<?xml version="1.0" encoding="utf-8"?>
<!-- Generator: Adobe Illustrator 19.2.0, SVG Export Plug-In . SVG Version: 6.00 Build 0)  -->
<!DOCTYPE svg PUBLIC "-//W3C//DTD SVG 1.1//EN" "http://www.w3.org/Graphics/SVG/1.1/DTD/svg11.dtd">
<svg version="1.1" id="scene_1_" xmlns="http://www.w3.org/2000/svg" xmlns:xlink="http://www.w3.org/1999/xlink" x="0px" y="0px"
	 viewBox="0 0 180.1 287.3" style="enable-background:new 0 0 180.1 287.3;" xml:space="preserve">
<style type="text/css">
	.st0{fill:none;stroke:#36302A;stroke-width:0.5;stroke-linecap:round;stroke-linejoin:round;}
	.st1{fill:none;stroke:#423B34;stroke-width:0.5;stroke-linecap:round;stroke-linejoin:round;}
	.st2{fill:none;stroke:#4A413A;stroke-width:0.5;stroke-linecap:round;stroke-linejoin:round;}
	.st3{fill:none;stroke:#52483F;stroke-width:0.5;stroke-linecap:round;stroke-linejoin:round;}
	.st4{opacity:0.6;fill:none;stroke:#36302A;stroke-width:0.5;stroke-linecap:round;stroke-linejoin:round;}
	.st5{opacity:0.6;fill:none;stroke:#423B34;stroke-width:0.5;stroke-linecap:round;stroke-linejoin:round;}
	.st6{opacity:0.6;fill:none;stroke:#4A413A;stroke-width:0.5;stroke-linecap:round;stroke-linejoin:round;}
	.st7{opacity:0.6;fill:none;stroke:#52483F;stroke-width:0.5;stroke-linecap:round;stroke-linejoin:round;}
	.st8{fill:none;}
	.st9{fill:#A66B5F;}
	.st10{fill:#423836;}
	.st11{fill:#FFFFFF;}
	.st12{opacity:0;}
	.st13{fill:none;stroke:#010101;stroke-miterlimit:10;}
	.st14{fill:#F79159;}
	.st15{fill:none;stroke:#000000;stroke-width:0.5914;stroke-miterlimit:10;stroke-dasharray:2.3988,2.3988;}
	.st16{display:none;fill:none;stroke:#EB5300;stroke-miterlimit:10;}
</style>
<symbol  id="fur-1" viewBox="-15.1 -19.4 29.6 38.8">
	<g id="_1_3_">
		<path class="st0" d="M5.4,9.9H5.3c2.9-1.3,6,0.1,8.9-0.3c-3,2.7-1.8,8.2-6.2,9.6"/>
		<path class="st1" d="M4.2,7.5L4.2,7.5c1.7-2.4,1.2-6.2,3.8-8C5.3,0,0.9-0.9-1.3,0.7l0,0"/>
		<path class="st2" d="M-9.1-7.9c1.1-1,3.4-1.9,7.8-2.3C-2.8-8.1-3.1-5-4-3.3"/>
		<path class="st3" d="M-14.9-17.1c3-1.1,7.8-1.2,9-2.1l0.1,0.1c-1.7,0.1-3,4-4.7,6.6"/>
	</g>
</symbol>
<symbol  id="fur-2" viewBox="-11.8 -15.5 35.9 39.3">
	<g id="_1_4_">
		<path class="st4" d="M11.8,14.1c2.9-1.3,9.6-0.7,12.1-2.6c-1.2,3.5-3.4,8.8-8.9,12.1"/>
		<path class="st5" d="M10.7,11.6c0.1-1.5,4.3-6.6,8.5-9.2c-1.6,1-10.4,1.7-14,2.4"/>
		<path class="st6" d="M-2.5-3.7C-1.4-4.7,7-5.5,11-5.8c-3,2.2-7.6,5-8.5,6.7"/>
		<path class="st7" d="M-8.3-12.9c5.7-4.4,11.1-1.1,13.6-1.1c0,0-6.6,1.8-9.2,5.8"/>
	</g>
	<circle class="st8" cx="-5.8" cy="-9.4" r="6"/>
</symbol>
<g id="purrly">
	<g id="body">
		<path class="st9" d="M5.6,260.5L5.4,260c-0.1-0.3-0.3-0.7-0.5-1.1l-0.2-0.7l-0.1-0.5l-0.2-0.8l-0.2-0.8c-0.5-2.2-0.8-4.4-1-6.7
			c-0.4-4.7,0.5-10.6,0.5-17.9s0.3-16,0.8-26c0.2-5,0.5-10.3,0.8-15.8l0.3-4.2l0.1-2.2l0.1-2c0.1-1.5,0.1-2.8,0.2-4.1l0.1-4.2
			c0.3-11.8-0.7-24.7-0.9-38.4s-0.6-28-1.4-42.8L3.1,80.6c-0.3-3.7-0.5-7.5-0.9-11.2l-0.5-5.6C1.4,62,1.2,60.1,1,58.3l-0.7-6
			l-0.1-2.1c-0.1-0.7-0.1-1.4-0.1-2c0-1.3-0.1-2.7,0-4.2c0.1-6.4,1.5-12.7,4.1-18.6C7.2,18.7,12.1,13,18.2,8.9
			C23.6,5.4,29.5,3,35.7,1.7C40.8,0.7,46,0.1,51.2,0c9,0,18,0.6,26.9,1.9l3,0.4l1.7,0.2l1.9,0.3c2.4,0.4,4.6,0.9,6.9,1.4
			c4.5,1,8.8,2.2,13.1,3.6c8.6,2.8,16.9,6.3,24.8,10.5c8.2,4.3,15.8,9.5,22.7,15.6c3.5,3.1,6.8,6.6,9.9,10.2
			c3.1,3.7,5.8,7.7,8.2,11.9c4.7,8.3,7.8,17.5,9.1,27c0.6,4.5,0.9,9,0.7,13.5c0,1.1-0.1,2.2-0.1,3.2l-0.1,1.6v0.4v0.2l-0.1,0.7
			l-0.1,0.6l-0.1,1.2l-0.1,0.6l-0.2,1l-0.3,2l-0.2,1l-0.2,0.9c-1,4.5-2.5,8.9-4.4,13.1c-1.8,3.9-3.9,7.7-6.4,11.2
			c-4.4,6.2-9.6,11.8-15.4,16.6c-4.9,4-10.1,7.7-15.5,10.9c-8.3,4.8-17,9-26.1,12.4c-7.3,2.8-13,4.6-16.9,5.8l-6,1.8
			c-11.1,3.3-22.8-3.1-26.1-14.2s3.1-22.8,14.2-26.1l0,0l0.3-0.1l0.6-0.1L82,140c3.3-0.9,8.2-2.4,14.1-4.5c6.9-2.4,13.6-5.5,20-9
			c3.6-2,7-4.3,10.2-6.8c3.1-2.4,5.9-5.3,8.3-8.5c2.2-2.9,3.8-6.2,4.6-9.8l0.1-0.3v-0.2c0-0.1,0-0.3,0.1-0.4l0.1-0.2l0.1-0.6
			l0.2-1.2l0.1-0.6c0-0.2-0.1,0.9,0,0.4v-0.1v-0.2L140,97c0.1-0.6,0.1-1.2,0.1-1.8c0.1-2.3,0-4.6-0.2-6.9c-0.5-4.6-2-9.1-4.2-13.2
			c-2.5-4.6-5.9-8.8-9.8-12.4c-8.4-7.8-20.4-14.4-33.4-18.9c-3.2-1.1-6.6-2.1-9.8-2.9c-1.6-0.4-3.3-0.8-4.9-1.1l-1.1-0.2l-1.3-0.2
			L72.7,39c-7-1.2-14.1-1.9-21.1-2.1c-2.8,0-5.7,0.2-8.4,0.7c-1.7,0.3-3.4,0.8-4.9,1.6c-0.6,0.3-1.1,0.8-1.4,1.4c-0.6,1.5-1,3-1,4.6
			c0,0.6,0,1.2,0,1.8V48v0.8l0.5,5.7c0.2,2,0.4,4.1,0.6,6.1l0.5,6c0.3,4,0.5,8,0.7,11.9l0.5,11.7c0.5,15.4,0.7,30.2,0.6,44.2
			s0.6,27.3,0.1,39.6l-0.2,4.8c-0.1,1.6-0.2,3.2-0.3,4.6l-0.2,2.3l-0.2,2.1l-0.3,4.1c-0.4,5.4-0.8,10.5-1.1,15.4
			c-0.6,9.6-1,18-1.2,24.8s-1.1,12-1,14.8c0.1,1.4,0.2,2.2,0.2,1.9l-0.1-0.4l-0.1-0.2l-0.2-0.4c-0.1-0.3-0.2-0.5-0.3-0.7
			s0-0.1,0-0.1v0.1v0.1v0.1l0.1,0.2c2.7,8.4-1.9,17.3-10.2,20.1C17.2,269.9,9.4,266.9,5.6,260.5z"/>
	</g>
	<g id="face">
		<g id="brow_right">
			<path d="M66.9,156l0.3-0.1c0.7-0.2,1.4-0.2,2,0.1c0.4,0.2,0.8,0.4,1.1,0.8c0.6,0.6,0.9,1.5,0.9,2.3c0,0.4-0.1,0.8-0.3,1.1
				l0.1-0.3c0-0.3,0-0.5,0-0.8c-0.1-1.6-1.4-3-3-3.1c-0.3,0-0.5,0-0.8,0L66.9,156z"/>
		</g>
		<g id="brow_left">
			<path d="M77.5,165.4c0.1-0.1,0.2-0.1,0.4-0.2c0.8-0.3,1.7-0.3,2.5,0c0.3,0.1,0.5,0.2,0.7,0.4c0.2,0.2,0.5,0.4,0.6,0.6
				c1,1.1,1.2,2.7,0.5,4l-0.2,0.3l0.1-0.4c0.1-0.3,0.2-0.7,0.2-1c0.1-1-0.2-2-0.9-2.8c-0.2-0.2-0.4-0.4-0.6-0.5
				c-0.2-0.2-0.4-0.3-0.7-0.4c-0.4-0.2-0.9-0.3-1.4-0.3c-0.3,0-0.7,0-1,0.1L77.5,165.4z"/>
		</g>
		<g id="mouth">
			<path class="st10" d="M66.2,164.5c0.3,0.6,0.7,1.1,1.2,1.5c0.1,0.1,0.2,0.1,0.4,0.2c0.1,0,0.1,0,0.2,0c0.1,0,0.1,0,0.2,0
				c0.1,0,0.3,0,0.4-0.1c0.1-0.1,0.3-0.1,0.4-0.2l0.1-0.1h0.1l0.3,0.1c0.1,0.1,0.1,0.1,0.2,0.2c0.1,0.1,0.2,0.2,0.2,0.4
				c0.1,0.2,0.2,0.5,0.3,0.8c0.1,0.5,0.3,1,0.4,1.4c0.1,0.2,0.2,0.4,0.3,0.6c0.1,0.2,0.3,0.4,0.4,0.6c0.2,0.2,0.3,0.3,0.6,0.5
				c0.2,0.1,0.4,0.2,0.7,0.3c-0.3,0-0.5-0.1-0.8-0.2c-0.3-0.1-0.5-0.2-0.7-0.4c-0.2-0.2-0.4-0.4-0.6-0.6c-0.2-0.2-0.3-0.4-0.4-0.7
				c-0.2-0.5-0.4-1-0.5-1.4c-0.1-0.2-0.1-0.5-0.2-0.7c0-0.1-0.1-0.2-0.1-0.2l-0.1,0h-0.1h0.2c-0.2,0.1-0.3,0.2-0.5,0.2
				c-0.2,0.1-0.4,0.1-0.6,0.1c-0.1,0-0.2,0-0.3,0c-0.1,0-0.2-0.1-0.3-0.1c-0.2-0.1-0.3-0.2-0.5-0.3c-0.3-0.2-0.5-0.5-0.6-0.9
				C66.4,165.2,66.3,164.9,66.2,164.5z"/>
		</g>
		<path id="nose" class="st10" d="M69.2,166.2c0,0-0.1-3.3,1-2.6S73.8,165.3,69.2,166.2z"/>
		<g id="eyes">
			<path class="st10" d="M81.8,170.5c-1,1.2-2.8,1.1-4.1-0.2c-1.3-1.1-1.5-3-0.5-4.4c1-1.2,2.8-1.1,4.1,0.2
				C82.6,167.3,82.8,169.1,81.8,170.5z"/>
			
				<ellipse transform="matrix(0.5047 -0.8633 0.8633 0.5047 -105.2535 153.3357)" class="st11" cx="81" cy="168.4" rx="0.9" ry="0.9"/>
			
				<ellipse transform="matrix(0.5047 -0.8633 0.8633 0.5047 -105.2777 151.0846)" class="st11" cx="79" cy="167.3" rx="0.5" ry="0.5"/>
			<path class="st10" d="M70.9,159.7c-0.6,0.9-2.2,0.9-3.4-0.1s-1.7-2.4-1-3.3s2.2-0.9,3.4,0.1S71.5,158.8,70.9,159.7z"/>
			
				<ellipse transform="matrix(0.5047 -0.8633 0.8633 0.5047 -101.7855 138.306)" class="st11" cx="69.6" cy="157.9" rx="0.9" ry="0.9"/>
			
				<ellipse transform="matrix(0.5047 -0.8633 0.8633 0.5047 -101.3361 136.6982)" class="st11" cx="68.5" cy="156.7" rx="0.5" ry="0.4"/>
		</g>
	</g>
</g>
<g id="fur">
	
		<use xlink:href="#fur-1"  width="29.6" height="38.8" x="-15.1" y="-19.4" transform="matrix(-0.2787 0.6092 -0.6092 -0.2787 19.8379 257.9115)" style="overflow:visible;"/>
	
		<use xlink:href="#fur-1"  width="29.6" height="38.8" id="fur_row-5" x="-15.1" y="-19.4" transform="matrix(-0.293 0.6136 -0.6136 -0.293 19.7888 248.2068)" style="overflow:visible;"/>
	
		<use xlink:href="#fur-1"  width="29.6" height="38.8" id="fur_row-8" x="-15.1" y="-19.4" transform="matrix(-0.2989 0.6107 -0.6107 -0.2989 20.1561 238.3801)" style="overflow:visible;"/>
	
		<use xlink:href="#fur-1"  width="29.6" height="38.8" id="fur_row-11" x="-15.1" y="-19.4" transform="matrix(-0.3 0.61 -0.61 -0.3 20.6551 228.5082)" style="overflow:visible;"/>
	
		<use xlink:href="#fur-1"  width="29.6" height="38.8" id="fur_row-14" x="-15.1" y="-19.4" transform="matrix(-0.303 0.6199 -0.6199 -0.303 20.9575 218.5977)" style="overflow:visible;"/>
	
		<use xlink:href="#fur-1"  width="29.6" height="38.8" id="fur_row-17" x="-15.1" y="-19.4" transform="matrix(-0.3 0.63 -0.63 -0.3 21.3165 208.6474)" style="overflow:visible;"/>
	
		<use xlink:href="#fur-1"  width="29.6" height="38.8" id="fur_row-20" x="-15.1" y="-19.4" transform="matrix(-0.29 0.64 -0.64 -0.29 21.6817 198.7014)" style="overflow:visible;"/>
	
		<use xlink:href="#fur-1"  width="29.6" height="38.8" id="fur_row-23" x="-15.1" y="-19.4" transform="matrix(-0.2807 0.6521 -0.6521 -0.2807 21.8345 188.6335)" style="overflow:visible;"/>
	
		<use xlink:href="#fur-1"  width="29.6" height="38.8" id="fur_row-26" x="-15.1" y="-19.4" transform="matrix(-0.2691 0.657 -0.657 -0.2691 21.9638 178.5432)" style="overflow:visible;"/>
	
		<use xlink:href="#fur-1"  width="29.6" height="38.8" id="fur_row-29" x="-15.1" y="-19.4" transform="matrix(-0.2728 0.6554 -0.6554 -0.2728 22.0676 168.4364)" style="overflow:visible;"/>
	
		<use xlink:href="#fur-1"  width="29.6" height="38.8" id="fur_row-32" x="-15.1" y="-19.4" transform="matrix(-0.2773 0.6644 -0.6644 -0.2773 22.0166 158.455)" style="overflow:visible;"/>
	
		<use xlink:href="#fur-1"  width="29.6" height="38.8" id="fur_row-35" x="-15.1" y="-19.4" transform="matrix(-0.28 0.67 -0.67 -0.28 22.0683 148.4348)" style="overflow:visible;"/>
	
		<use xlink:href="#fur-1"  width="29.6" height="38.8" id="fur_row-38" x="-15.1" y="-19.4" transform="matrix(-0.2716 0.6776 -0.6776 -0.2716 22.2167 138.6324)" style="overflow:visible;"/>
	
		<use xlink:href="#fur-1"  width="29.6" height="38.8" id="fur_row-41" x="-15.1" y="-19.4" transform="matrix(-0.2615 0.6815 -0.6815 -0.2615 22.3607 128.7475)" style="overflow:visible;"/>
	
		<use xlink:href="#fur-1"  width="29.6" height="38.8" id="fur_row-44" x="-15.1" y="-19.4" transform="matrix(-0.251 0.6961 -0.6961 -0.251 22.1442 118.9787)" style="overflow:visible;"/>
	
		<use xlink:href="#fur-1"  width="29.6" height="38.8" id="fur_row-47" x="-15.1" y="-19.4" transform="matrix(-0.2331 0.7023 -0.7023 -0.2331 22.002 109.1703)" style="overflow:visible;"/>
	
		<use xlink:href="#fur-1"  width="29.6" height="38.8" id="fur_row-50" x="-15.1" y="-19.4" transform="matrix(-0.2194 0.7171 -0.7171 -0.2194 21.408 99.4986)" style="overflow:visible;"/>
	
		<use xlink:href="#fur-1"  width="29.6" height="38.8" id="fur_row-53" x="-15.1" y="-19.4" transform="matrix(-0.22 0.7199 -0.7199 -0.22 20.7845 89.5491)" style="overflow:visible;"/>
	
		<use xlink:href="#fur-1"  width="29.6" height="38.8" id="fur_row-56" x="-15.1" y="-19.4" transform="matrix(-0.22 0.7299 -0.7299 -0.22 20.1101 79.8487)" style="overflow:visible;"/>
	
		<use xlink:href="#fur-1"  width="29.6" height="38.8" id="fur_row-59" x="-15.1" y="-19.4" transform="matrix(-0.2351 0.7227 -0.7227 -0.2351 19.7656 69.7363)" style="overflow:visible;"/>
	
		<use xlink:href="#fur-1"  width="29.6" height="38.8" id="fur_row-62" x="-15.1" y="-19.4" transform="matrix(-0.26 0.7199 -0.7199 -0.26 19.5159 59.6817)" style="overflow:visible;"/>
	
		<use xlink:href="#fur-1"  width="29.6" height="38.8" id="fur_row-65" x="-15.1" y="-19.4" transform="matrix(-0.3 0.71 -0.71 -0.3 19.6516 49.4447)" style="overflow:visible;"/>
	
		<use xlink:href="#fur-1"  width="29.6" height="38.8" id="fur_row-68" x="-15.1" y="-19.4" transform="matrix(-0.39 0.67 -0.67 -0.39 20.3822 38.6869)" style="overflow:visible;"/>
	
		<use xlink:href="#fur-1"  width="29.6" height="38.8" id="fur_row-71" x="-15.1" y="-19.4" transform="matrix(-0.6101 0.486 -0.486 -0.6101 23.1948 30.7156)" style="overflow:visible;"/>
	
		<use xlink:href="#fur-1"  width="29.6" height="38.8" id="fur_row-74" x="-15.1" y="-19.4" transform="matrix(-0.7627 0.2057 -0.2057 -0.7627 29.4582 25.0136)" style="overflow:visible;"/>
	
		<use xlink:href="#fur-1"  width="29.6" height="38.8" id="fur_row-77" x="-15.1" y="-19.4" transform="matrix(-0.7887 -4.492175e-02 4.492175e-02 -0.7887 38.4899 21.8789)" style="overflow:visible;"/>
	
		<use xlink:href="#fur-1"  width="29.6" height="38.8" id="fur_row-80" x="-15.1" y="-19.4" transform="matrix(-0.7699 -0.21 0.21 -0.7699 48.6183 20.3924)" style="overflow:visible;"/>
	
		<use xlink:href="#fur-1"  width="29.6" height="38.8" id="fur_row-83" x="-15.1" y="-19.4" transform="matrix(-0.7399 -0.3 0.3 -0.7399 59.4164 20.3686)" style="overflow:visible;"/>
	
		<use xlink:href="#fur-1"  width="29.6" height="38.8" id="fur_row-86" x="-15.1" y="-19.4" transform="matrix(-0.7299 -0.35 0.35 -0.7299 70.4278 21.3247)" style="overflow:visible;"/>
	
		<use xlink:href="#fur-1"  width="29.6" height="38.8" id="fur_row-89" x="-15.1" y="-19.4" transform="matrix(-0.7104 -0.3891 0.3891 -0.7104 81.6708 23.14)" style="overflow:visible;"/>
	
		<use xlink:href="#fur-1"  width="29.6" height="38.8" id="fur_row-92" x="-15.1" y="-19.4" transform="matrix(-0.6861 -0.449 0.449 -0.6861 92.1682 25.3554)" style="overflow:visible;"/>
	
		<use xlink:href="#fur-1"  width="29.6" height="38.8" id="fur_row-95" x="-15.1" y="-19.4" transform="matrix(-0.65 -0.5 0.5 -0.65 101.6803 28.6748)" style="overflow:visible;"/>
	
		<use xlink:href="#fur-1"  width="29.6" height="38.8" id="fur_row-98" x="-15.1" y="-19.4" transform="matrix(-0.6153 -0.557 0.557 -0.6153 111.2764 32.5652)" style="overflow:visible;"/>
	
		<use xlink:href="#fur-1"  width="29.6" height="38.8" id="fur_row-101" x="-15.1" y="-19.4" transform="matrix(-0.57 -0.61 0.61 -0.57 120.3953 37.3434)" style="overflow:visible;"/>
	
		<use xlink:href="#fur-1"  width="29.6" height="38.8" id="fur_row-104" x="-15.1" y="-19.4" transform="matrix(-0.51 -0.66 0.66 -0.51 128.9449 42.9912)" style="overflow:visible;"/>
	
		<use xlink:href="#fur-1"  width="29.6" height="38.8" id="fur_row-107" x="-15.1" y="-19.4" transform="matrix(-0.4482 -0.7104 0.7104 -0.4482 136.499 49.0872)" style="overflow:visible;"/>
	
		<use xlink:href="#fur-1"  width="29.6" height="38.8" id="fur_row-110" x="-15.1" y="-19.4" transform="matrix(-0.3698 -0.7653 0.7653 -0.3698 143.28 55.8294)" style="overflow:visible;"/>
	
		<use xlink:href="#fur-1"  width="29.6" height="38.8" id="fur_row-113" x="-15.1" y="-19.4" transform="matrix(-0.27 -0.8099 0.8099 -0.27 148.9018 63.6709)" style="overflow:visible;"/>
	
		<use xlink:href="#fur-1"  width="29.6" height="38.8" id="fur_row-116" x="-15.1" y="-19.4" transform="matrix(-0.1483 -0.8471 0.8471 -0.1483 153.3044 72.0706)" style="overflow:visible;"/>
	
		<use xlink:href="#fur-1"  width="29.6" height="38.8" id="fur_row-119" x="-15.1" y="-19.4" transform="matrix(-9.999303e-03 -0.8599 0.8599 -9.999303e-03 156.0945 81.0158)" style="overflow:visible;"/>
	
		<use xlink:href="#fur-1"  width="29.6" height="38.8" id="fur_row-122" x="-15.1" y="-19.4" transform="matrix(0.1576 -0.8555 0.8555 0.1576 157.6577 90.6399)" style="overflow:visible;"/>
	
		<use xlink:href="#fur-1"  width="29.6" height="38.8" id="fur_row-125" x="-15.1" y="-19.4" transform="matrix(0.344 -0.7991 0.7991 0.344 157.6584 101.1267)" style="overflow:visible;"/>
	
		<use xlink:href="#fur-1"  width="29.6" height="38.8" id="fur_row-128" x="-15.1" y="-19.4" transform="matrix(0.5046 -0.7209 0.7209 0.5046 155.8532 110.3884)" style="overflow:visible;"/>
	
		<use xlink:href="#fur-1"  width="29.6" height="38.8" id="fur_row-131" x="-15.1" y="-19.4" transform="matrix(0.62 -0.62 0.62 0.62 151.768 118.3914)" style="overflow:visible;"/>
	
		<use xlink:href="#fur-1"  width="29.6" height="38.8" id="fur_row-134" x="-15.1" y="-19.4" transform="matrix(0.71 -0.53 0.53 0.71 146.3457 126.2474)" style="overflow:visible;"/>
	
		<use xlink:href="#fur-1"  width="29.6" height="38.8" id="fur_row-137" x="-15.1" y="-19.4" transform="matrix(0.7699 -0.44 0.44 0.7699 139.3945 133.4203)" style="overflow:visible;"/>
	
		<use xlink:href="#fur-1"  width="29.6" height="38.8" id="fur_row-140" x="-15.1" y="-19.4" transform="matrix(0.8245 -0.3607 0.3607 0.8245 131.4903 140.0663)" style="overflow:visible;"/>
	
		<use xlink:href="#fur-1"  width="29.6" height="38.8" id="fur_row-143" x="-15.1" y="-19.4" transform="matrix(0.8543 -0.283 0.283 0.8543 122.486 145.7183)" style="overflow:visible;"/>
	
		<use xlink:href="#fur-1"  width="29.6" height="38.8" id="fur_row-146" x="-15.1" y="-19.4" transform="matrix(0.8853 -0.2104 0.2104 0.8853 113.2987 150.6275)" style="overflow:visible;"/>
	
		<use xlink:href="#fur-1"  width="29.6" height="38.8" id="fur_row-149" x="-15.1" y="-19.4" transform="matrix(0.9001 -0.1332 0.1332 0.9001 103.8011 154.4211)" style="overflow:visible;"/>
	
		<use xlink:href="#fur-1"  width="29.6" height="38.8" id="fur_row-152" x="-15.1" y="-19.4" transform="matrix(0.9186 -4.942839e-02 4.942839e-02 0.9186 94.6186 157.3446)" style="overflow:visible;"/>
</g>
<g id="strokes" class="st12">
	<path id="_x32_" class="st13" d="M76.7,211.9c0,0-12.1,15,1.9,21.5s77.5,0.5,64,24.5"/>
	<path id="path" class="st13" d="M96.4,157.2c31.7-18.6,71.5-25.5,62.6-71.7c-6-39.5-55.1-61.8-88-67.3C7.5,4.5,19,60.2,20.1,104.5
		c1.5,60.3,1.9,87-0.9,148.8"/>
</g>
<g id="A" class="st12">
	<circle class="st14" cx="97.1" cy="157" r="26"/>
	<circle class="st15" cx="97.1" cy="157" r="26"/>
</g>
<path id="_x32__1_" class="st16" d="M76.7,211.9c0,0-12.1,15,1.9,21.5s77.5,0.5,64,24.5"/>
<use xlink:href="#fur-2"  width="35.9" height="39.3" id="XMLID_1_" x="-11.8" y="-15.5" transform="matrix(1 0 0 -1 -43.2066 38.9287)" style="display:none;overflow:visible;"/>
</svg>
