<?xml version="1.0" encoding="utf-8"?>
<!-- Generator: Adobe Illustrator 19.2.0, SVG Export Plug-In . SVG Version: 6.00 Build 0)  -->
<!DOCTYPE svg PUBLIC "-//W3C//DTD SVG 1.1//EN" "http://www.w3.org/Graphics/SVG/1.1/DTD/svg11.dtd">
<svg version="1.1" id="scene_1_" xmlns="http://www.w3.org/2000/svg" xmlns:xlink="http://www.w3.org/1999/xlink" x="0px" y="0px"
	 viewBox="0 0 180.1 287.3" style="enable-background:new 0 0 180.1 287.3;" xml:space="preserve">
<style type="text/css">
	.st0{fill:#593E3A;fill-opacity:0;}
	.st1{opacity:0.5;fill:url(#SVGID_1_);enable-background:new    ;}
	.st2{fill:none;stroke:#996051;stroke-width:2;stroke-linecap:round;stroke-miterlimit:10;}
	.st3{fill:#996051;}
	.st4{fill:none;stroke:#735249;stroke-width:2;stroke-linecap:round;stroke-miterlimit:10;}
	.st5{fill:#735249;}
	.st6{fill:none;stroke:#BA9387;stroke-width:2;stroke-linecap:round;stroke-miterlimit:10;}
	.st7{fill:#BA9387;}
	.st8{display:none;fill:none;stroke:#E75E00;stroke-miterlimit:10;}
	.st9{display:none;fill:none;stroke:#010101;stroke-miterlimit:10;}
	.st10{fill:#A66B5F;stroke:#473C3C;stroke-miterlimit:10;}
	.st11{fill:#423836;}
	.st12{display:none;}
	.st13{display:inline;fill:#423836;}
	.st14{fill:#FFFFFF;}
	.st15{display:none;fill:#423836;}
	.st16{display:inline;}
	.st17{opacity:0.5;}
	.st18{fill:#FFFFFF;stroke:#736868;stroke-width:3;stroke-miterlimit:10;}
	.st19{font-family:'MyriadPro-Regular';}
	.st20{font-size:39.3259px;}
	.st21{fill:#474141;}
	.st22{font-size:9px;}
	.st23{fill:none;stroke:#474141;stroke-miterlimit:10;stroke-dasharray:2.399,2.3988;}
	.st24{opacity:0;}
	.st25{fill:none;stroke:#010101;stroke-width:30;stroke-linecap:round;stroke-miterlimit:10;}
	.st26{opacity:0.2;}
	.st27{fill:#F79159;}
</style>
<symbol  id="fur-caressed" viewBox="-19.6 -26 39.1 52">
	<polygon class="st0" points="-5,20.4 -8.9,14.8 -8.2,4.2 -15.8,-13.4 -4.1,-20.4 9.1,-20.4 15.8,-6 14.5,13.9 10.6,20.4 	"/>
	
		<radialGradient id="SVGID_1_" cx="-4491.2139" cy="-5334.3921" r="22.9825" gradientTransform="matrix(0.98 -0.1991 0.1991 0.98 5463.2729 4333.521)" gradientUnits="userSpaceOnUse">
		<stop  offset="0" style="stop-color:#302520;stop-opacity:0.3"/>
		<stop  offset="1" style="stop-color:#2B201C;stop-opacity:0"/>
	</radialGradient>
	<path class="st1" d="M18.9-3.8C16-18,5.2-27.8-5.2-25.8S-21.7-10.4-18.8,3.8s13.6,24,24,21.9S21.8,10.4,18.9-3.8z"/>
	<g>
		<g>
			<g>
				<path class="st2" d="M-3-14.2c-0.6,0.1-1.1,0.4-1.7,0.1c-0.5-0.2-0.8,0.2-1.3,0.3"/>
				<g>
					
						<ellipse transform="matrix(7.837490e-03 -1 1 7.837490e-03 7.8624 -19.6018)" class="st3" cx="-5.9" cy="-13.8" rx="1.5" ry="1.5"/>
				</g>
			</g>
			<g>
				<path class="st2" d="M-8.8-13.3c-0.2,0.1-0.3,0.1-0.5,0.2"/>
				<g>
					
						<ellipse transform="matrix(0.9967 -8.121875e-02 8.121875e-02 0.9967 1.0465 -0.8023)" class="st3" cx="-9.3" cy="-13.3" rx="1.5" ry="1.5"/>
				</g>
			</g>
		</g>
		<g>
			<g>
				<path class="st4" d="M2.8-8.8L2.8-8.8c-0.3,0-0.6,0-0.9,0.1S1.2-8.4,0.8-8.3"/>
				<g>
					
						<ellipse transform="matrix(2.460161e-02 -0.9997 0.9997 2.460161e-02 9.1937 -7.3033)" class="st5" cx="0.9" cy="-8.4" rx="1.5" ry="1.5"/>
				</g>
			</g>
			<g>
				<path class="st4" d="M10.5-9.8c-0.3,0-0.5-0.2-0.8-0.3S9.2-10,8.9-9.9C8.3-9.6,7.8-9.6,7.2-9.6S6-9.4,5.5-9.3
					c-0.1,0-0.2,0.1-0.3,0.1"/>
			</g>
			<g>
				<path class="st4" d="M-3.3-7.9c0.1,0,0.2,0,0.3,0"/>
				<g>
					<ellipse transform="matrix(0.1344 -0.9909 0.9909 0.1344 5.1629 -10.0037)" class="st5" cx="-3.1" cy="-8" rx="1.5" ry="1.5"/>
				</g>
			</g>
		</g>
		<g>
			<g>
				<path class="st6" d="M-8.4-0.7c0.3,0,0.5-0.4,0.9-0.5C-7.2-1.2-6.9-1-6.6-1c0.1,0,0.3,0,0.4,0"/>
				<g>
					<ellipse transform="matrix(0.2007 -0.9797 0.9797 0.2007 -4.205 -7.073)" class="st7" cx="-6.4" cy="-1" rx="1.5" ry="1.5"/>
				</g>
			</g>
			<g>
				<path class="st6" d="M4.4-2.8c-0.3,0-0.6,0.2-0.9,0.3C3-2.4,2.4-2.5,1.8-2.7C0.6-2.8-0.5-2.3-1.5-1.9c-0.4,0.2-0.9,0-1.3,0"/>
				<g>
					
						<ellipse transform="matrix(0.2323 -0.9726 0.9726 0.2323 -0.5564 -4.2079)" class="st7" cx="-2.9" cy="-1.8" rx="1.5" ry="1.5"/>
				</g>
			</g>
		</g>
		<g>
			<g>
				<path class="st2" d="M4.7-5.9c-0.3,0-0.6,0-0.9,0C3.5-5.8,3.2-5.5,2.9-5.5S2.4-5.8,2.1-5.8S1.5-5.5,1.2-5.5
					C0.7-5.3,0.1-5.4-0.5-5.3s-1.1,0.4-1.7,0.4c-1.1,0-2.5-0.3-3.5,0.3c-0.1,0-0.2,0-0.3,0"/>
			</g>
			<g>
				
					<ellipse transform="matrix(0.2079 -0.9782 0.9782 0.2079 -4.3805 -12.552)" class="st3" cx="-9.9" cy="-3.6" rx="1.5" ry="1.5"/>
			</g>
		</g>
		<g>
			<g>
				<path class="st4" d="M12.2-0.5c-0.1,0-0.1,0-0.2,0"/>
			</g>
			<g>
				<path class="st4" d="M9-0.2c-0.1,0-0.2-0.1-0.3-0.1C7.5-0.7,6.4,0.3,5.3,0.3c-0.6,0-1.1,0.4-1.7,0.3c-0.1,0-0.2,0-0.3,0"/>
				<g>
					<ellipse transform="matrix(0.2149 -0.9766 0.9766 0.2149 2.0161 3.775)" class="st5" cx="3.4" cy="0.6" rx="1.5" ry="1.5"/>
				</g>
			</g>
		</g>
		<g>
			<g>
				<path class="st4" d="M7,3.2c-0.6,0-1.2,0.1-1.9,0.1C4.5,3.3,4,3.8,3.3,3.6c-0.2,0-0.5-0.1-0.8,0.1C2.4,3.8,2.4,3.8,2.3,3.9"/>
			</g>
			<g>
				<path class="st4" d="M0.3,3.9c-0.1,0-0.2,0-0.3,0c-0.6,0.2-1.1,0.4-1.7,0.5c-0.1,0-0.3,0-0.4,0"/>
				<g>
					
						<ellipse transform="matrix(6.173253e-02 -0.9981 0.9981 6.173253e-02 -6.4392 2.0198)" class="st5" cx="-2.1" cy="4.4" rx="1.5" ry="1.5"/>
				</g>
			</g>
		</g>
		<g>
			<g>
				<path class="st4" d="M6.1,6.5C5.8,6.6,5.5,6.7,5.2,6.7S4.6,6.6,4.3,6.6S3.8,6.9,3.6,7C3.3,7.1,3,7.1,2.7,7.2
					c-0.3,0-0.6,0-0.9-0.1C1.4,7,1.2,7.2,0.9,7.4c-0.3,0.2-0.5,0.1-0.8,0s-0.6-0.1-0.9,0c-0.5,0.1-1.1,0.2-1.7,0.3
					c-0.3,0-0.6,0-0.8,0.2c-0.3,0.2-0.5,0.4-0.8,0.4c-0.7,0-1.4,0.2-2.1,0.3"/>
				<g>
					<ellipse transform="matrix(0.1517 -0.9884 0.9884 0.1517 -13.6528 1.164)" class="st5" cx="-6.1" cy="8.5" rx="1.5" ry="1.5"/>
				</g>
			</g>
		</g>
		<g>
			<g>
				<path class="st6" d="M12.9,8.7c-0.3,0-0.5,0.2-0.8,0.3c-0.5,0.1-1.1,0.1-1.6,0.1c-0.3,0-0.6,0-0.9,0.1"/>
				<g>
					<ellipse transform="matrix(0.2507 -0.9681 0.9681 0.2507 -1.8538 16.0866)" class="st7" cx="9.5" cy="9.2" rx="1.5" ry="1.5"/>
				</g>
			</g>
			<g>
				<path class="st6" d="M6.5,9.8c-1,0-2,0.2-2.9,0.3c-0.5,0.1-1.1,0.3-1.6,0.4c-0.2,0-0.3,0-0.5,0"/>
				<g>
					
						<ellipse transform="matrix(0.9984 -5.624292e-02 5.624292e-02 0.9984 -0.5846 9.853715e-02)" class="st7" cx="1.5" cy="10.4" rx="1.5" ry="1.5"/>
				</g>
			</g>
		</g>
		<g>
			<g>
				<path class="st4" d="M-3,14.2c-0.5,0.2-1.1,0.3-1.6,0.4c-0.2,0-0.3,0-0.5,0"/>
				<g>
					
						<ellipse transform="matrix(0.9997 -2.504031e-02 2.504031e-02 0.9997 -0.3682 -0.1241)" class="st5" cx="-5.1" cy="14.6" rx="1.5" ry="1.5"/>
				</g>
			</g>
			<g>
				<path class="st4" d="M5.6,13.2c-0.6,0.1-1.2,0.1-1.7,0.1c-0.7,0-1.2-0.1-1.8,0.2c-0.5,0.2-1.1,0.2-1.7,0.3c-0.1,0-0.2,0-0.3,0.1
					"/>
				<g>
					
						<ellipse transform="matrix(0.1395 -0.9902 0.9902 0.1395 -13.5612 11.8731)" class="st5" cx="0.1" cy="13.7" rx="1.5" ry="1.5"/>
				</g>
			</g>
		</g>
		<g>
			<g>
				<path class="st2" d="M3.7,16.5c-0.6,0.1-1.2-0.3-1.8,0c-0.3,0.2-0.5,0.3-0.8,0.3s-0.6-0.2-0.9-0.1c-0.7,0.2-1.4,0.3-2,0.4"/>
				<g>
					
						<ellipse transform="matrix(0.183 -0.9831 0.9831 0.183 -18.3659 12.1908)" class="st3" cx="-1.8" cy="17.1" rx="1.5" ry="1.5"/>
				</g>
			</g>
			<g>
				<path class="st2" d="M9.2,15.8c-0.7,0.1-1.3,0.2-2,0.3"/>
				<g>
					
						<ellipse transform="matrix(2.299205e-02 -0.9997 0.9997 2.299205e-02 -9.0455 22.8204)" class="st3" cx="7.2" cy="16" rx="1.5" ry="1.5"/>
				</g>
			</g>
		</g>
	</g>
	<circle class="st8" cx="2.4" cy="4.3" r="14.9"/>
</symbol>
<symbol  id="fur-flat" viewBox="-16.8 -20.5 33.6 41">
	<polygon class="st0" points="-5.9,20.3 -9.8,14.6 -9.2,4 -16.8,-13.5 -5,-20.5 8.2,-20.5 14.9,-6.1 13.6,13.8 9.6,20.3 	"/>
	<g>
		<g>
			<g>
				<path class="st2" d="M-2.5-12.4c-0.6,0.1-1.1,0.4-1.7,0.1C-4.7-12.5-5-12.1-5.5-12"/>
				<g>
					<ellipse transform="matrix(3.231533e-03 -1 1 3.231533e-03 6.616 -17.36)" class="st3" cx="-5.4" cy="-12" rx="1.5" ry="1.5"/>
				</g>
			</g>
			<g>
				<path class="st2" d="M-8.3-11.7c-0.2,0.1-0.3,0.1-0.5,0.2"/>
				<g>
					
						<ellipse transform="matrix(0.9963 -8.581171e-02 8.581171e-02 0.9963 0.9552 -0.7963)" class="st3" cx="-8.8" cy="-11.5" rx="1.5" ry="1.5"/>
				</g>
			</g>
		</g>
		<g>
			<g>
				<path class="st4" d="M3.3-7L3.3-7C3-7,2.7-7,2.4-6.9C2-6.8,1.7-6.7,1.3-6.6"/>
				<g>
					
						<ellipse transform="matrix(1.999643e-02 -0.9998 0.9998 1.999643e-02 7.7716 -5.0673)" class="st5" cx="1.3" cy="-6.5" rx="1.5" ry="1.5"/>
				</g>
			</g>
			<g>
				<path class="st4" d="M11-7.9c-0.3,0-0.5-0.2-0.8-0.3S9.6-8.1,9.3-8C8.8-7.8,8.2-7.7,7.6-7.7S6.4-7.6,5.9-7.4
					c-0.1,0-0.2,0.1-0.3,0.1"/>
				<g>
					
						<ellipse transform="matrix(0.1494 -0.9888 0.9888 0.1494 11.9758 -0.6783)" class="st5" cx="5.6" cy="-7.3" rx="1.5" ry="1.5"/>
				</g>
			</g>
			<g>
				<path class="st4" d="M-2.8-6.2c0.1,0,0.2,0,0.3,0"/>
				<g>
					
						<ellipse transform="matrix(0.1299 -0.9915 0.9915 0.1299 3.8774 -7.9753)" class="st5" cx="-2.6" cy="-6.2" rx="1.5" ry="1.5"/>
				</g>
			</g>
		</g>
		<g>
			<g>
				<path class="st6" d="M-8,1c0.3,0,0.5-0.4,0.9-0.4c0.3,0,0.6,0.2,0.9,0.2c0.1,0,0.3,0,0.4,0"/>
				<g>
					
						<ellipse transform="matrix(0.1962 -0.9806 0.9806 0.1962 -5.5175 -5.1395)" class="st7" cx="-5.9" cy="0.8" rx="1.5" ry="1.5"/>
				</g>
			</g>
			<g>
				<path class="st6" d="M4.8-1.1c-0.3,0-0.6,0.2-0.9,0.3c-0.5,0.1-1.1,0-1.7-0.1C1.1-0.9,0-0.4-1.1-0.1c-0.4,0.2-0.9,0-1.3,0"/>
				<g>
					
						<ellipse transform="matrix(0.2278 -0.9737 0.9737 0.2278 -1.7647 -2.4157)" class="st7" cx="-2.4" cy="-0.1" rx="1.5" ry="1.5"/>
				</g>
			</g>
		</g>
		<g>
			<g>
				<path class="st2" d="M5.2-4.2c-0.3,0-0.6,0-0.9,0C3.9-4.1,3.7-3.8,3.4-3.8C3.1-3.7,2.9-3.9,2.6-4C2.3-4,2-3.8,1.7-3.7
					C1.2-3.6,0.6-3.7,0-3.5c-0.6,0.1-1.1,0.4-1.7,0.4c-1.1,0-2.5-0.3-3.5,0.2c-0.1,0-0.2,0.1-0.3,0.1"/>
				<g>
					
						<ellipse transform="matrix(0.2102 -0.9777 0.9777 0.2102 -1.6117 -7.5787)" class="st3" cx="-5.5" cy="-2.8" rx="1.5" ry="1.5"/>
				</g>
			</g>
			<g>
				
					<ellipse transform="matrix(0.2034 -0.9791 0.9791 0.2034 -5.8858 -10.815)" class="st3" cx="-9.6" cy="-1.8" rx="1.5" ry="1.5"/>
			</g>
		</g>
		<g>
			<g>
				<path class="st4" d="M12.6,1.2c-0.1,0-0.1,0-0.2,0"/>
			</g>
			<g>
				<path class="st4" d="M9.4,1.5c-0.1,0-0.2-0.1-0.3-0.1C8,1.2,6.9,2.1,5.7,2.1C5.1,2.1,4.6,2.5,4,2.4c-0.1,0-0.2,0-0.3,0"/>
				<g>
					<ellipse transform="matrix(0.2104 -0.9776 0.9776 0.2104 0.6506 5.604)" class="st5" cx="3.8" cy="2.4" rx="1.5" ry="1.5"/>
				</g>
			</g>
		</g>
		<g>
			<g>
				<path class="st4" d="M7.4,4.9c-0.6,0-1.2,0.2-1.8,0.2c-0.7,0-1.2,0.4-1.8,0.3C3.5,5.3,3.2,5.2,3,5.4C2.9,5.5,2.8,5.6,2.7,5.6"/>
				<g>
					
						<ellipse transform="matrix(3.774512e-02 -0.9993 0.9993 3.774512e-02 -2.9998 8.0912)" class="st5" cx="2.7" cy="5.6" rx="1.5" ry="1.5"/>
				</g>
			</g>
			<g>
				<path class="st4" d="M0.7,5.6c-0.1,0-0.2,0-0.3,0C-0.2,5.8-0.7,6-1.3,6.1c-0.1,0-0.3,0-0.4,0"/>
				<g>
					
						<ellipse transform="matrix(5.713128e-02 -0.9984 0.9984 5.713128e-02 -7.7919 4.1494)" class="st5" cx="-1.7" cy="6.2" rx="1.5" ry="1.5"/>
				</g>
			</g>
		</g>
		<g>
			<g>
				<path class="st4" d="M6.5,8.3c-0.3,0-0.6,0.2-0.9,0.2C5.3,8.5,5,8.3,4.7,8.3C4.4,8.4,4.2,8.6,4,8.7C3.7,8.8,3.4,8.8,3.1,8.9
					c-0.3,0-0.6,0-0.9-0.1C1.9,8.8,1.7,9,1.4,9.1c-0.3,0.2-0.5,0.1-0.8,0c-0.4,0-0.6,0-1,0C-1,9.2-1.5,9.3-2.1,9.3
					c-0.3,0-0.6,0-0.8,0.2c-0.3,0.2-0.5,0.4-0.8,0.4c-0.7,0.1-1.4,0.2-2.1,0.3"/>
				<g>
					
						<ellipse transform="matrix(0.1471 -0.9891 0.9891 0.1471 -15.1324 3.0553)" class="st5" cx="-5.8" cy="10.3" rx="1.5" ry="1.5"/>
				</g>
			</g>
		</g>
		<g>
			<g>
				<path class="st6" d="M13.3,10.4c-0.3,0-0.5,0.2-0.8,0.3c-0.5,0.2-1.1,0.2-1.7,0.2c-0.3,0-0.6,0-0.9,0.1"/>
				<g>
					<ellipse transform="matrix(0.2463 -0.9692 0.9692 0.2463 -3.1183 17.9742)" class="st7" cx="10" cy="11" rx="1.5" ry="1.5"/>
				</g>
			</g>
			<g>
				<path class="st6" d="M6.9,11.5c-1,0-2,0.1-2.9,0.3c-0.5,0.1-1.1,0.3-1.6,0.4c-0.2,0-0.3,0-0.5,0"/>
				<g>
					
						<ellipse transform="matrix(0.9981 -6.084534e-02 6.084534e-02 0.9981 -0.7444 0.1393)" class="st7" cx="1.9" cy="12.3" rx="1.5" ry="1.5"/>
				</g>
			</g>
		</g>
		<g>
			<g>
				<path class="st4" d="M-2.6,16c-0.5,0.1-1.1,0.3-1.6,0.3c-0.2,0-0.3,0-0.5,0"/>
				<g>
					
						<ellipse transform="matrix(0.9996 -2.964340e-02 2.964340e-02 0.9996 -0.488 -0.1319)" class="st5" cx="-4.7" cy="16.4" rx="1.5" ry="1.5"/>
				</g>
			</g>
			<g>
				<path class="st4" d="M6,14.9C5.4,15,4.9,15,4.3,15s-1.2-0.1-1.8,0.1c-0.5,0.2-1.1,0.2-1.7,0.3c-0.1,0-0.2,0-0.3,0.1"/>
				<g>
					
						<ellipse transform="matrix(0.1349 -0.9909 0.9909 0.1349 -15.0212 13.991)" class="st5" cx="0.5" cy="15.6" rx="1.5" ry="1.5"/>
				</g>
			</g>
		</g>
		<g>
			<g>
				<path class="st2" d="M4.1,18.3c-0.6,0.1-1.2-0.3-1.8,0c-0.3,0.2-0.5,0.3-0.8,0.3s-0.6-0.2-0.9-0.1c-0.7,0.1-1.4,0.3-2,0.4"/>
				<g>
					
						<ellipse transform="matrix(0.1785 -0.9839 0.9839 0.1785 -19.8372 14.2368)" class="st3" cx="-1.4" cy="19" rx="1.5" ry="1.5"/>
				</g>
			</g>
			<g>
				<path class="st2" d="M9.6,17.5c-0.7,0.1-1.3,0.2-2,0.3"/>
				<g>
					
						<ellipse transform="matrix(1.838606e-02 -0.9998 0.9998 1.838606e-02 -10.4374 25.1693)" class="st3" cx="7.6" cy="17.9" rx="1.5" ry="1.5"/>
				</g>
			</g>
		</g>
	</g>
	<circle class="st9" cx="1.4" cy="4.2" r="14.9"/>
</symbol>
<g id="purrly">
	<g id="body">
		<path class="st10" d="M5.6,260.5L5.4,260c-0.1-0.3-0.3-0.7-0.5-1.1l-0.2-0.7l-0.1-0.5l-0.2-0.8l-0.2-0.8c-0.5-2.2-0.8-4.4-1-6.7
			c-0.4-4.7,0.5-10.6,0.5-17.9s0.3-16,0.8-26c0.2-5,0.5-10.3,0.8-15.8l0.3-4.2l0.1-2.2l0.1-2c0.1-1.5,0.1-2.8,0.2-4.1l0.1-4.2
			c0.3-11.8-0.7-24.7-0.9-38.4s-0.6-28-1.4-42.8L3.1,80.6c-0.3-3.7-0.5-7.5-0.9-11.2l-0.5-5.6C1.4,62,1.2,60.1,1,58.3l-0.7-6
			l-0.1-2.1c-0.1-0.7-0.1-1.4-0.1-2c0-1.3-0.1-2.7,0-4.2c0.1-6.4,1.5-12.7,4.1-18.6c3-6.7,7.9-12.4,14-16.5
			C23.6,5.4,29.5,3,35.7,1.7C40.8,0.7,46,0.1,51.2,0c9,0,18,0.6,26.9,1.9l3,0.4l1.7,0.2l1.9,0.3c2.4,0.4,4.6,0.9,6.9,1.4
			c4.5,1,8.8,2.2,13.1,3.6c8.6,2.8,16.9,6.3,24.8,10.5c8.2,4.3,15.8,9.5,22.7,15.6c3.5,3.1,6.8,6.6,9.9,10.2
			c3.1,3.7,5.8,7.7,8.2,11.9c4.7,8.3,7.8,17.5,9.1,27c0.6,4.5,0.9,9,0.7,13.5c0,1.1-0.1,2.2-0.1,3.2l-0.1,1.6v0.4v0.2l-0.1,0.7
			l-0.1,0.6l-0.1,1.2l-0.1,0.6l-0.2,1l-0.3,2l-0.2,1l-0.2,0.9c-1,4.5-2.5,8.9-4.4,13.1c-1.8,3.9-3.9,7.7-6.4,11.2
			c-4.4,6.2-9.6,11.8-15.4,16.6c-4.9,4-10.1,7.7-15.5,10.9c-8.3,4.8-17,9-26.1,12.4c-7.3,2.8-13,4.6-16.9,5.8l-6,1.8
			c-11.1,3.3-22.8-3.1-26.1-14.2s3.1-22.8,14.2-26.1l0,0l0.3-0.1l0.6-0.1L82,140c3.3-0.9,8.2-2.4,14.1-4.5c6.9-2.4,13.6-5.5,20-9
			c3.6-2,7-4.3,10.2-6.8c3.1-2.4,5.9-5.3,8.3-8.5c2.2-2.9,3.8-6.2,4.6-9.8l0.1-0.3v-0.2c0-0.1,0-0.3,0.1-0.4l0.1-0.2l0.1-0.6
			l0.2-1.2l0.1-0.6c0-0.2-0.1,0.9,0,0.4v-0.1V98l0.1-1c0.1-0.6,0.1-1.2,0.1-1.8c0.1-2.3,0-4.6-0.2-6.9c-0.5-4.6-2-9.1-4.2-13.2
			c-2.5-4.6-5.9-8.8-9.8-12.4c-8.4-7.8-20.4-14.4-33.4-18.9c-3.2-1.1-6.6-2.1-9.8-2.9c-1.6-0.4-3.3-0.8-4.9-1.1l-1.1-0.2l-1.3-0.2
			L72.7,39c-7-1.2-14.1-1.9-21.1-2.1c-2.8,0-5.7,0.2-8.4,0.7c-1.7,0.3-3.4,0.8-4.9,1.6c-0.6,0.3-1.1,0.8-1.4,1.4c-0.6,1.5-1,3-1,4.6
			c0,0.6,0,1.2,0,1.8v1v0.8l0.5,5.7c0.2,2,0.4,4.1,0.6,6.1l0.5,6c0.3,4,0.5,8,0.7,11.9l0.5,11.7c0.5,15.4,0.7,30.2,0.6,44.2
			s0.6,27.3,0.1,39.6l-0.2,4.8c-0.1,1.6-0.2,3.2-0.3,4.6l-0.2,2.3l-0.2,2.1l-0.3,4.1c-0.4,5.4-0.8,10.5-1.1,15.4
			c-0.6,9.6-1,18-1.2,24.8s-1.1,12-1,14.8c0.1,1.4,0.2,2.2,0.2,1.9l-0.1-0.4l-0.1-0.2l-0.2-0.4c-0.1-0.3-0.2-0.5-0.3-0.7
			s0-0.1,0-0.1v0.1v0.1v0.1l0.1,0.2c2.7,8.4-1.9,17.3-10.2,20.1C17.2,269.9,9.4,266.9,5.6,260.5z"/>
	</g>
	<g id="face">
		<g id="brow_right">
			<path d="M64.9,154.8l0.2-0.2c0.6-0.4,1.2-0.6,1.9-0.6c0.5,0,0.9,0.1,1.3,0.3c0.8,0.4,1.3,1.1,1.6,1.9c0.1,0.4,0.1,0.8,0.1,1.1
				V157c-0.1-0.3-0.1-0.5-0.3-0.8c-0.6-1.5-2.3-2.4-3.9-2c-0.3,0.1-0.5,0.1-0.8,0.3L64.9,154.8z"/>
		</g>
		<g id="brow_left">
			<path d="M77.9,160.3c0.1-0.1,0.2-0.2,0.3-0.3c0.6-0.5,1.5-0.8,2.3-0.8c0.3,0,0.6,0.1,0.8,0.1c0.3,0.1,0.6,0.2,0.8,0.3
				c1.3,0.7,2,2.2,1.8,3.6l-0.1,0.4v-0.4c0-0.3-0.1-0.7-0.1-1c-0.2-1-0.9-1.8-1.7-2.3c-0.2-0.1-0.5-0.2-0.7-0.3
				c-0.3-0.1-0.5-0.1-0.8-0.1c-0.5,0-0.9,0-1.4,0.2c-0.3,0.1-0.6,0.3-0.9,0.4L77.9,160.3z"/>
		</g>
		<g id="mouth">
			<path class="st11" d="M67,163.1c0.5,0.5,1,0.8,1.6,1c0.1,0,0.3,0.1,0.4,0.1s0.1,0,0.2-0.1c0.1,0,0.1,0,0.2-0.1
				c0.1,0,0.2-0.1,0.3-0.2c0.1-0.1,0.2-0.2,0.3-0.3l0.1-0.1h0.1h0.3c0.1,0,0.2,0.1,0.3,0.1c0.1,0.1,0.3,0.2,0.4,0.3
				c0.2,0.2,0.3,0.4,0.5,0.6c0.3,0.4,0.6,0.9,0.9,1.2c0.2,0.2,0.3,0.3,0.5,0.5s0.4,0.3,0.6,0.4c0.2,0.1,0.4,0.2,0.7,0.3
				c0.2,0.1,0.5,0.1,0.7,0.1c-0.2,0.1-0.5,0.1-0.8,0.1s-0.5,0-0.8-0.1s-0.5-0.2-0.7-0.4c-0.2-0.1-0.4-0.3-0.6-0.5
				c-0.4-0.4-0.7-0.8-1-1.2c-0.2-0.2-0.3-0.4-0.4-0.6c-0.1-0.1-0.1-0.1-0.2-0.2h-0.1h-0.1l0.2-0.1c-0.1,0.1-0.3,0.3-0.4,0.4
				c-0.2,0.1-0.3,0.2-0.5,0.3c-0.1,0-0.2,0.1-0.3,0.1c-0.1,0-0.2,0-0.3,0c-0.2,0-0.4-0.1-0.5-0.1c-0.3-0.1-0.6-0.3-0.9-0.6
				C67.4,163.8,67.2,163.5,67,163.1z"/>
		</g>
		<g id="mouth.mad" class="st12">
			<path class="st13" d="M69,166.2c0,0,0-0.1,0-0.3s0-0.5,0.1-0.9c0.1-0.2,0.1-0.4,0.2-0.6c0.1-0.2,0.3-0.4,0.5-0.5
				c0.3-0.1,0.6-0.1,0.8,0c0.2,0.1,0.5,0.2,0.7,0.4c0.4,0.3,0.7,0.7,0.9,1.2c0.2,0.4,0.3,0.8,0.4,1.2s0,0.7,0,0.9s-0.1,0.3-0.1,0.3
				s0-0.1,0-0.3s-0.1-0.5-0.2-0.8c-0.2-0.6-0.6-1.5-1.3-2c-0.2-0.1-0.3-0.2-0.5-0.3s-0.3-0.1-0.5-0.1c-0.3,0.1-0.5,0.5-0.7,0.8
				C69.1,165.7,69,166.2,69,166.2z"/>
		</g>
		<path id="nose" class="st11" d="M70.3,163.8c0,0-1.2-3.1,0.1-2.8S74.5,161.4,70.3,163.8z"/>
		<g id="eyes">
			<path class="st11" d="M83.7,163.7c-0.6,1.4-2.3,1.9-3.9,1.2c-1.5-0.7-2.4-2.4-1.9-4c0.6-1.4,2.3-1.9,3.9-1.2
				C83.3,160.4,84.2,162.1,83.7,163.7z"/>
			<ellipse transform="matrix(0.1938 -0.981 0.981 0.1938 -92.6182 211.2228)" class="st14" cx="82.2" cy="162" rx="0.9" ry="0.9"/>
			
				<ellipse transform="matrix(0.1938 -0.981 0.981 0.1938 -94.0143 208.5974)" class="st14" cx="79.9" cy="161.5" rx="0.5" ry="0.5"/>
			<path class="st11" d="M69.8,157c-0.3,1.1-1.8,1.5-3.2,1s-2.4-1.7-2-2.8s1.8-1.5,3.2-1S70.1,156,69.8,157z"/>
			
				<ellipse transform="matrix(0.1938 -0.981 0.981 0.1938 -97.9708 192.3563)" class="st14" cx="68.1" cy="155.8" rx="0.9" ry="0.9"/>
			<ellipse transform="matrix(0.1938 -0.981 0.981 0.1938 -98.3928 190.2241)" class="st14" cx="66.5" cy="155" rx="0.5" ry="0.4"/>
		</g>
		<path id="mouth.open" class="st15" d="M68.5,164.6c0,0,0.9,4.3,2.9,4.3s1.3-2.2,2.1-2l-2.9-2.9L68.5,164.6z"/>
		<g id="frown" class="st12">
			<g class="st16">
				<path class="st11" d="M75.7,158.6c0,0,0.1,0.1,0.3,0.2c0.2,0.1,0.6,0.3,1,0.3s0.9-0.1,1.4-0.3c0.2-0.1,0.5-0.2,0.8-0.3
					s0.6-0.2,0.8-0.3c2.3-0.7,4.5-1.4,4.5-1.4c0.5-0.2,1.1,0.1,1.3,0.7s-0.1,1.1-0.7,1.3c-0.1,0-0.1,0-0.2,0c0,0-2.3,0.2-4.7,0.4
					c-0.3,0-0.6,0.1-0.9,0.1s-0.5,0.1-0.8,0.1c-0.6,0.1-1.1,0.1-1.6,0s-0.8-0.3-1-0.5C75.8,158.8,75.7,158.6,75.7,158.6z"/>
			</g>
			<g class="st16">
				<path class="st11" d="M67,150.6C67,150.6,67,150.7,67,150.6c0,0.1,0,0.1,0,0.2c0,0.1,0.1,0.3,0.2,0.6c0.2,0.3,0.4,0.7,0.7,1.1
					c0.3,0.4,0.6,0.8,0.9,1.3s0.5,0.9,0.8,1.4c0.2,0.5,0.3,0.9,0.5,1.2s0.5,0.5,0.7,0.6s0.3,0.1,0.3,0.1s-0.1,0-0.4,0
					c-0.2,0-0.6-0.2-0.9-0.4c-0.3-0.3-0.6-0.7-0.8-1.1c-0.3-0.4-0.6-0.7-1-1.1c-0.4-0.3-0.7-0.7-1.1-1s-0.7-0.6-1-0.9
					c-0.3-0.3-0.6-0.7-0.7-1c-0.1-0.1-0.1-0.3-0.1-0.4c0-0.1,0-0.1,0-0.1c-0.2-0.5,0.1-1.1,0.7-1.3S66.9,149.9,67,150.6
					C67,150.5,67,150.5,67,150.6z"/>
			</g>
		</g>
	</g>
</g>
<g id="fur" class="st17">
	
		<use xlink:href="#fur-flat"  width="33.6" height="41" x="-16.8" y="-20.5" transform="matrix(3.660052e-02 0.6667 -0.6667 3.660052e-02 18.1219 257.4645)" style="overflow:visible;"/>
	
		<use xlink:href="#fur-flat"  width="33.6" height="41" id="fur_row-5" x="-16.8" y="-20.5" transform="matrix(-0.1821 0.6528 -0.6528 -0.1821 18.2217 247.8944)" style="overflow:visible;opacity:0.5;"/>
	
		<use xlink:href="#fur-flat"  width="33.6" height="41" id="fur_row-8" x="-16.8" y="-20.5" transform="matrix(-0.2238 0.6397 -0.6397 -0.2238 18.6101 238.0946)" style="overflow:visible;opacity:0.5;"/>
	
		<use xlink:href="#fur-flat"  width="33.6" height="41" id="fur_row-11" x="-16.8" y="-20.5" transform="matrix(-0.232 0.6365 -0.6365 -0.232 19.1137 228.2286)" style="overflow:visible;opacity:0.5;"/>
	
		<use xlink:href="#fur-flat"  width="33.6" height="41" id="fur_row-14" x="-16.8" y="-20.5" transform="matrix(-0.302 0.6179 -0.6179 -0.302 19.4464 218.3863)" style="overflow:visible;opacity:0.5;"/>
	
		<use xlink:href="#fur-flat"  width="33.6" height="41" id="fur_row-17" x="-16.8" y="-20.5" transform="matrix(-0.299 0.6279 -0.6279 -0.299 19.7975 208.4389)" style="overflow:visible;opacity:0.5;"/>
	
		<use xlink:href="#fur-flat"  width="33.6" height="41" id="fur_row-20" x="-16.8" y="-20.5" transform="matrix(-0.289 0.6379 -0.6379 -0.289 20.1552 198.5014)" style="overflow:visible;opacity:0.5;"/>
	
		<use xlink:href="#fur-flat"  width="33.6" height="41" id="fur_row-23" x="-16.8" y="-20.5" transform="matrix(-0.2798 0.65 -0.65 -0.2798 20.2987 188.4415)" style="overflow:visible;opacity:0.5;"/>
	
		<use xlink:href="#fur-flat"  width="33.6" height="41" id="fur_row-26" x="-16.8" y="-20.5" transform="matrix(-0.1491 0.6917 -0.6917 -0.1491 20.3331 178.2625)" style="overflow:visible;opacity:0.5;"/>
	
		<use xlink:href="#fur-flat"  width="33.6" height="41" id="fur_row-29" x="-16.8" y="-20.5" transform="matrix(-0.2719 0.6533 -0.6533 -0.2719 20.5296 168.251)" style="overflow:visible;opacity:0.5;"/>
	
		<use xlink:href="#fur-flat"  width="33.6" height="41" id="fur_row-32" x="-16.8" y="-20.5" transform="matrix(-0.2764 0.6622 -0.6622 -0.2764 20.4712 158.2664)" style="overflow:visible;opacity:0.5;"/>
	
		<use xlink:href="#fur-flat"  width="33.6" height="41" id="fur_row-35" x="-16.8" y="-20.5" transform="matrix(-0.2791 0.6678 -0.6678 -0.2791 20.5183 148.2443)" style="overflow:visible;opacity:0.5;"/>
	
		<use xlink:href="#fur-flat"  width="33.6" height="41" id="fur_row-38" x="-16.8" y="-20.5" transform="matrix(-0.2123 0.6959 -0.6959 -0.2123 20.6155 138.3993)" style="overflow:visible;opacity:0.5;"/>
	
		<use xlink:href="#fur-flat"  width="33.6" height="41" id="fur_row-41" x="-16.8" y="-20.5" transform="matrix(-0.2606 0.6793 -0.6793 -0.2606 20.8024 128.5724)" style="overflow:visible;opacity:0.5;"/>
	
		<use xlink:href="#fur-flat"  width="33.6" height="41" id="fur_row-44" x="-16.8" y="-20.5" transform="matrix(-0.1653 0.7188 -0.7188 -0.1653 20.4935 118.7501)" style="overflow:visible;opacity:0.5;"/>
	
		<use xlink:href="#fur-flat"  width="33.6" height="41" id="fur_row-47" x="-16.8" y="-20.5" transform="matrix(-0.2323 0.7 -0.7 -0.2323 20.4285 109.0189)" style="overflow:visible;opacity:0.5;"/>
	
		<use xlink:href="#fur-flat"  width="33.6" height="41" id="fur_row-50" x="-16.8" y="-20.5" transform="matrix(-0.2186 0.7148 -0.7148 -0.2186 19.8233 99.3589)" style="overflow:visible;opacity:0.5;"/>
	
		<use xlink:href="#fur-flat"  width="33.6" height="41" id="fur_row-53" x="-16.8" y="-20.5" transform="matrix(-8.169541e-02 0.7458 -0.7458 -8.169541e-02 18.5284 89.2142)" style="overflow:visible;opacity:0.5;"/>
	
		<use xlink:href="#fur-flat"  width="33.6" height="41" id="fur_row-56" x="-16.8" y="-20.5" transform="matrix(-0.2192 0.7274 -0.7274 -0.2192 18.5152 79.7092)" style="overflow:visible;opacity:0.5;"/>
	
		<use xlink:href="#fur-flat"  width="33.6" height="41" id="fur_row-59" x="-16.8" y="-20.5" transform="matrix(-0.2343 0.7203 -0.7203 -0.2343 18.1757 69.5843)" style="overflow:visible;opacity:0.5;"/>
	
		<use xlink:href="#fur-flat"  width="33.6" height="41" id="fur_row-62" x="-16.8" y="-20.5" transform="matrix(-0.2591 0.7176 -0.7176 -0.2591 17.927 59.5097)" style="overflow:visible;opacity:0.5;"/>
	
		<use xlink:href="#fur-flat"  width="33.6" height="41" id="fur_row-65" x="-16.8" y="-20.5" transform="matrix(-0.299 0.7077 -0.7077 -0.299 18.0686 49.2402)" style="overflow:visible;opacity:0.5;"/>
	
		<use xlink:href="#fur-flat"  width="33.6" height="41" id="fur_row-68" x="-16.8" y="-20.5" transform="matrix(-0.3887 0.6678 -0.6678 -0.3887 18.8267 38.4084)" style="overflow:visible;opacity:0.5;"/>
	
		<use xlink:href="#fur-flat"  width="33.6" height="41" id="fur_row-71" x="-16.8" y="-20.5" transform="matrix(-0.6081 0.4844 -0.4844 -0.6081 22.7755 30.2518)" style="overflow:visible;opacity:0.5;"/>
	
		<use xlink:href="#fur-flat"  width="33.6" height="41" id="fur_row-74" x="-16.8" y="-20.5" transform="matrix(-0.7601 0.205 -0.205 -0.7601 29.2555 24.4137)" style="overflow:visible;opacity:0.5;"/>
	
		<use xlink:href="#fur-flat"  width="33.6" height="41" id="fur_row-77" x="-16.8" y="-20.5" transform="matrix(-0.7861 -4.477255e-02 4.477255e-02 -0.7861 38.4864 21.2457)" style="overflow:visible;opacity:0.5;"/>
	
		<use xlink:href="#fur-flat"  width="33.6" height="41" id="fur_row-80" x="-16.8" y="-20.5" transform="matrix(-0.7673 -0.2093 0.2093 -0.7673 48.7478 19.766)" style="overflow:visible;opacity:0.5;"/>
	
		<use xlink:href="#fur-flat"  width="33.6" height="41" id="fur_row-83" x="-16.8" y="-20.5" transform="matrix(-0.7374 -0.299 0.299 -0.7374 59.6194 19.7617)" style="overflow:visible;opacity:0.5;"/>
	
		<use xlink:href="#fur-flat"  width="33.6" height="41" id="fur_row-86" x="-16.8" y="-20.5" transform="matrix(-0.7842 -0.1899 0.1899 -0.7842 70.826 20.631)" style="overflow:visible;opacity:0.5;"/>
	
		<use xlink:href="#fur-flat"  width="33.6" height="41" id="fur_row-89" x="-16.8" y="-20.5" transform="matrix(-0.7081 -0.3878 0.3878 -0.7081 81.9466 22.5522)" style="overflow:visible;opacity:0.5;"/>
	
		<use xlink:href="#fur-flat"  width="33.6" height="41" id="fur_row-92" x="-16.8" y="-20.5" transform="matrix(-0.6839 -0.4475 0.4475 -0.6839 92.4931 24.784)" style="overflow:visible;opacity:0.5;"/>
	
		<use xlink:href="#fur-flat"  width="33.6" height="41" id="fur_row-95" x="-16.8" y="-20.5" transform="matrix(-0.6479 -0.4983 0.4983 -0.6479 102.0478 28.1298)" style="overflow:visible;opacity:0.5;"/>
	
		<use xlink:href="#fur-flat"  width="33.6" height="41" id="fur_row-98" x="-16.8" y="-20.5" transform="matrix(-0.6133 -0.5551 0.5551 -0.6133 111.6912 32.0451)" style="overflow:visible;opacity:0.5;"/>
	
		<use xlink:href="#fur-flat"  width="33.6" height="41" id="fur_row-101" x="-16.8" y="-20.5" transform="matrix(-0.717 -0.4223 0.4223 -0.717 119.7685 35.6914)" style="overflow:visible;opacity:0.5;"/>
	
		<use xlink:href="#fur-flat"  width="33.6" height="41" id="fur_row-104" x="-16.8" y="-20.5" transform="matrix(-0.5083 -0.6578 0.6578 -0.5083 128.4475 41.5502)" style="overflow:visible;opacity:0.5;"/>
	
		<use xlink:href="#fur-flat"  width="33.6" height="41" id="fur_row-107" x="-16.8" y="-20.5" transform="matrix(-0.4467 -0.7081 0.7081 -0.4467 136.0449 47.6931)" style="overflow:visible;opacity:0.5;"/>
	
		<use xlink:href="#fur-flat"  width="33.6" height="41" id="fur_row-110" x="-16.8" y="-20.5" transform="matrix(-0.3686 -0.7627 0.7627 -0.3686 142.8737 54.4952)" style="overflow:visible;opacity:0.5;"/>
	
		<use xlink:href="#fur-flat"  width="33.6" height="41" id="fur_row-113" x="-16.8" y="-20.5" transform="matrix(-0.2691 -0.8072 0.8072 -0.2691 148.5362 62.4144)" style="overflow:visible;opacity:0.5;"/>
	
		<use xlink:href="#fur-flat"  width="33.6" height="41" id="fur_row-116" x="-16.8" y="-20.5" transform="matrix(-0.1478 -0.8443 0.8443 -0.1478 152.9747 70.9096)" style="overflow:visible;opacity:0.5;"/>
	
		<use xlink:href="#fur-flat"  width="33.6" height="41" id="fur_row-119" x="-16.8" y="-20.5" transform="matrix(-0.1906 -0.8357 0.8357 -0.1906 155.5849 79.9876)" style="overflow:visible;opacity:0.5;"/>
	
		<use xlink:href="#fur-flat"  width="33.6" height="41" id="fur_row-122" x="-16.8" y="-20.5" transform="matrix(0.157 -0.8527 0.8527 0.157 157.35 89.7232)" style="overflow:visible;opacity:0.5;"/>
	
		<use xlink:href="#fur-flat"  width="33.6" height="41" id="fur_row-125" x="-16.8" y="-20.5" transform="matrix(0.3429 -0.7964 0.7964 0.3429 156.3149 98.3619)" style="overflow:visible;opacity:0.5;"/>
	
		<use xlink:href="#fur-flat"  width="33.6" height="41" id="fur_row-128" x="-16.8" y="-20.5" transform="matrix(0.5029 -0.7186 0.7186 0.5029 154.4552 107.756)" style="overflow:visible;opacity:0.5;"/>
	
		<use xlink:href="#fur-flat"  width="33.6" height="41" id="fur_row-131" x="-16.8" y="-20.5" transform="matrix(0.7313 -0.4783 0.4783 0.7313 150.1561 115.858)" style="overflow:visible;opacity:0.5;"/>
	
		<use xlink:href="#fur-flat"  width="33.6" height="41" id="fur_row-134" x="-16.8" y="-20.5" transform="matrix(0.7077 -0.5282 0.5282 0.7077 144.8052 123.7889)" style="overflow:visible;opacity:0.5;"/>
	
		<use xlink:href="#fur-flat"  width="33.6" height="41" id="fur_row-137" x="-16.8" y="-20.5" transform="matrix(0.7673 -0.4385 0.4385 0.7673 137.785 131.0142)" style="overflow:visible;opacity:0.5;"/>
	
		<use xlink:href="#fur-flat"  width="33.6" height="41" id="fur_row-140" x="-16.8" y="-20.5" transform="matrix(0.8217 -0.3595 0.3595 0.8217 129.8201 137.7078)" style="overflow:visible;opacity:0.5;"/>
	
		<use xlink:href="#fur-flat"  width="33.6" height="41" id="fur_row-143" x="-16.8" y="-20.5" transform="matrix(0.8515 -0.2821 0.2821 0.8515 120.7551 143.3876)" style="overflow:visible;opacity:0.5;"/>
	
		<use xlink:href="#fur-flat"  width="33.6" height="41" id="fur_row-146" x="-16.8" y="-20.5" transform="matrix(0.8824 -0.2097 0.2097 0.8824 111.5113 148.3253)" style="overflow:visible;opacity:0.5;"/>
	
		<use xlink:href="#fur-flat"  width="33.6" height="41" id="fur_row-149" x="-16.8" y="-20.5" transform="matrix(0.8971 -0.1328 0.1328 0.8971 103.9527 152.1346)" style="overflow:visible;opacity:0.5;"/>
	
		<use xlink:href="#fur-flat"  width="33.6" height="41" id="fur_row-152" x="-16.8" y="-20.5" transform="matrix(0.8397 -0.3683 0.3683 0.8397 97.6425 153.6543)" style="overflow:visible;opacity:0.5;"/>
</g>
<use xlink:href="#fur-caressed"  width="39.1" height="52" id="XMLID_1_" x="-19.6" y="-26" transform="matrix(0.9978 0 0 -0.9978 -45.0565 50.3788)" style="display:none;overflow:visible;"/>
<g id="UI">
	<g id="phonetics">
		<path class="st18" d="M133.8,268.3h-57c-6.1,0-11.1-5-11.1-11.1v-37.7c0-6.1,5-11.1,11.1-11.1h56.9c6.1,0,11.1,5,11.1,11.1v37.7
			C144.9,263.4,139.9,268.3,133.8,268.3z"/>
		<text transform="matrix(1 0 0 1 79.3685 249.328)" class="st19 st20">[ r ]</text>
	</g>
	<g id="explainer">
		<text transform="matrix(1 0 0 1 122.9671 198.5)" class="st21 st19 st22">  start stroking here</text>
		<g>
			<g>
				<path class="st23" d="M119.4,192.7c-5.6-1.6-22.4-7.2-30.4-20.8"/>
				<g>
					<polygon class="st21" points="94.3,172.5 94,173.5 89.2,172.2 88.3,177.1 87.3,176.9 88.4,171 					"/>
				</g>
			</g>
		</g>
	</g>
</g>
<g id="strokes" class="st24">
	<path id="_x31_" class="st25" d="M96.4,157.2c31.7-18.6,71.5-25.5,62.6-71.7c-6-39.5-55.1-61.8-88-67.3c-63.5-13.7-52,42-50.9,86.3
		c1.3,53.9,1.8,81-0.1,130.4"/>
</g>
<g id="control" class="st26">
	<circle class="st27" cx="97.1" cy="157" r="26"/>
</g>
</svg>
