<?xml version="1.0" encoding="utf-8"?>
<!-- Generator: Adobe Illustrator 19.2.0, SVG Export Plug-In . SVG Version: 6.00 Build 0)  -->
<!DOCTYPE svg PUBLIC "-//W3C//DTD SVG 1.1//EN" "http://www.w3.org/Graphics/SVG/1.1/DTD/svg11.dtd">
<svg version="1.1" id="scene_1_" xmlns="http://www.w3.org/2000/svg" xmlns:xlink="http://www.w3.org/1999/xlink" x="0px" y="0px"
	 viewBox="0 0 180.1 287.3" style="enable-background:new 0 0 180.1 287.3;" xml:space="preserve">
<style type="text/css">
	.st0{opacity:0;fill:#593E3A;}
	.st1{fill:none;stroke:#996051;stroke-width:2;stroke-linecap:round;stroke-miterlimit:10;}
	.st2{fill:#996051;}
	.st3{fill:none;stroke:#735249;stroke-width:2;stroke-linecap:round;stroke-miterlimit:10;}
	.st4{fill:#735249;}
	.st5{fill:none;stroke:#BA9387;stroke-width:2;stroke-linecap:round;stroke-miterlimit:10;}
	.st6{fill:#BA9387;}
	.st7{opacity:0.5;fill:url(#SVGID_1_);}
	.st8{fill:#A66B5F;stroke:#473C3C;stroke-width:0.5;stroke-miterlimit:10;}
	.st9{fill:#423836;}
	.st10{fill:#FFFFFF;}
	.st11{opacity:0.5;}
	.st12{opacity:0;}
	.st13{fill:none;stroke:#010101;stroke-miterlimit:10;}
	.st14{fill:#F79159;}
	.st15{fill:none;stroke:#000000;stroke-width:0.5914;stroke-miterlimit:10;stroke-dasharray:2.3988,2.3988;}
	.st16{display:none;fill:none;stroke:#EB5300;stroke-miterlimit:10;}
	.st17{fill:#FFFFFF;stroke:#736868;stroke-width:3;stroke-miterlimit:10;}
	.st18{font-family:'MyriadPro-Regular';}
	.st19{font-size:39.3259px;}
</style>
<symbol  id="fur-1" viewBox="-18.6 -22.3 35.7 42.9">
	<polygon class="st0" points="-0.5,20.6 -5.6,16 -7.3,5.5 -18.6,-10 -8.7,-19.4 4.1,-22.3 13.9,-9.8 17.1,10 14.6,17.2 	"/>
	<g>
		<g>
			<g>
				<path class="st1" d="M-2.3-12.9c-0.6,0.1-1.1,0.5-1.7,0.2c-0.6-0.2-0.8,0.2-1.2,0.4"/>
				<g>
					
						<ellipse transform="matrix(8.958979e-02 -0.996 0.996 8.958979e-02 7.4733 -16.3347)" class="st2" cx="-5.2" cy="-12.3" rx="1.5" ry="1.5"/>
				</g>
			</g>
			<g>
				<path class="st1" d="M-8.1-11.6c-0.1,0.1-0.3,0.1-0.4,0.2"/>
				<g>
					<circle class="st2" cx="-8.5" cy="-11.5" r="1.5"/>
				</g>
			</g>
		</g>
		<g>
			<g>
				<path class="st3" d="M3.9-8L3.9-8C3.6-8,3.3-8,3-7.9C2.7-7.7,2.3-7.5,1.9-7.4"/>
				<g>
					<ellipse transform="matrix(0.1063 -0.9943 0.9943 0.1063 9.2041 -4.6923)" class="st4" cx="2" cy="-7.5" rx="1.5" ry="1.5"/>
				</g>
			</g>
			<g>
				<path class="st3" d="M11.5-9.6c-0.3,0.1-0.5-0.2-0.8-0.2c-0.3,0-0.5,0.2-0.8,0.3C9.3-9.3,8.7-9.1,8.1-9C7.6-9,7-8.9,6.5-8.6
					C6.3-8.6,6.2-8.5,6.1-8.5"/>
				<g>
					
						<ellipse transform="matrix(0.2342 -0.9722 0.9722 0.2342 13.0229 -0.5031)" class="st4" cx="6.2" cy="-8.5" rx="1.5" ry="1.5"/>
				</g>
			</g>
			<g>
				<path class="st3" d="M-2.1-6.7c0.1,0,0.2,0,0.3,0"/>
				<g>
					<ellipse transform="matrix(0.215 -0.9766 0.9766 0.215 5.0967 -7.1082)" class="st4" cx="-1.9" cy="-6.7" rx="1.5" ry="1.5"/>
				</g>
			</g>
		</g>
		<g>
			<g>
				<path class="st5" d="M-6.6,0.9c0.3-0.1,0.5-0.4,0.8-0.5c0.3-0.1,0.6,0.1,0.9,0.1c0.1,0,0.3,0,0.4-0.1"/>
				<g>
					
						<ellipse transform="matrix(0.2802 -0.9599 0.9599 0.2802 -3.7334 -4.0509)" class="st6" cx="-4.6" cy="0.5" rx="1.5" ry="1.5"/>
				</g>
			</g>
			<g>
				<path class="st5" d="M5.9-2.2C5.6-2.2,5.4-1.9,5.1-1.9C4.5-1.7,3.9-1.8,3.4-1.8c-1.2,0-2.2,0.6-3.3,1.1
					c-0.4,0.2-0.9,0.1-1.3,0.1"/>
				<g>
					<ellipse transform="matrix(0.311 -0.9504 0.9504 0.311 -0.1709 -1.4759)" class="st6" cx="-1.1" cy="-0.6" rx="1.5" ry="1.5"/>
				</g>
			</g>
		</g>
		<g>
			<g>
				<path class="st1" d="M6-5.4c-0.3,0.1-0.6,0-0.9,0.1C4.8-5.2,4.6-4.8,4.3-4.8C4-4.7,3.8-4.9,3.5-4.9C3.1-5,2.9-4.7,2.6-4.6
					C2.1-4.4,1.5-4.4,0.9-4.3c-0.6,0.2-1,0.5-1.6,0.5c-1.1,0.1-2.5-0.1-3.5,0.5C-4.3-3.1-4.4-3.1-4.5-3"/>
				<g>
					
						<ellipse transform="matrix(0.2938 -0.9559 0.9559 0.2938 -0.1966 -6.4161)" class="st2" cx="-4.4" cy="-3.1" rx="1.5" ry="1.5"/>
				</g>
			</g>
			<g>
				
					<ellipse transform="matrix(0.2872 -0.9579 0.9579 0.2872 -4.2611 -9.3304)" class="st2" cx="-8.4" cy="-1.8" rx="1.5" ry="1.5"/>
			</g>
		</g>
		<g>
			<g>
				<path class="st3" d="M13.9-0.6c-0.1,0-0.1,0-0.2,0"/>
			</g>
			<g>
				<path class="st3" d="M10.8,0c-0.1,0-0.2,0-0.3-0.1C9.3-0.3,8.2,0.7,7.1,0.8C6.5,0.9,6,1.3,5.4,1.3c-0.1,0-0.2,0-0.3,0"/>
				<g>
					<ellipse transform="matrix(0.294 -0.9558 0.9558 0.294 2.4512 5.9048)" class="st4" cx="5.2" cy="1.3" rx="1.5" ry="1.5"/>
				</g>
			</g>
		</g>
		<g>
			<g>
				<path class="st3" d="M9,3.5C8.4,3.6,7.8,3.8,7.2,3.8C6.6,3.9,6.1,4.4,5.5,4.3C5.2,4.3,4.9,4.2,4.6,4.4C4.5,4.5,4.5,4.6,4.4,4.6"
					/>
				<g>
					<ellipse transform="matrix(0.1239 -0.9923 0.9923 0.1239 -0.6301 8.4217)" class="st4" cx="4.5" cy="4.6" rx="1.5" ry="1.5"/>
				</g>
			</g>
			<g>
				<path class="st3" d="M2.4,4.8c-0.1,0-0.2,0-0.3,0.1C1.5,5,1,5.3,0.4,5.4C0.3,5.5,0.2,5.5,0,5.5"/>
				<g>
					<ellipse transform="matrix(0.1432 -0.9897 0.9897 0.1432 -5.3588 4.7969)" class="st4" cx="0.1" cy="5.5" rx="1.5" ry="1.5"/>
				</g>
			</g>
		</g>
		<g>
			<g>
				<path class="st3" d="M8.4,6.9C8.1,7,7.8,7.2,7.5,7.2c-0.3,0-0.6-0.1-0.9,0c-0.3,0-0.5,0.3-0.7,0.4C5.7,7.8,5.4,7.8,5.1,7.8
					c-0.3,0.1-0.6,0-0.9,0C3.9,7.8,3.7,8,3.4,8.3C3.1,8.5,2.9,8.4,2.6,8.3c-0.4-0.1-0.6,0-0.9,0C1.1,8.5,0.5,8.7-0.1,8.8
					C-0.3,8.8-0.6,8.8-0.9,9c-0.3,0.2-0.4,0.4-0.8,0.5C-2.3,9.6-3,9.8-3.7,10"/>
				<g>
					<ellipse transform="matrix(0.232 -0.9727 0.9727 0.232 -12.4266 4.1641)" class="st4" cx="-3.6" cy="10" rx="1.5" ry="1.5"/>
				</g>
			</g>
		</g>
		<g>
			<g>
				<path class="st5" d="M15.4,8.5c-0.3,0.1-0.5,0.3-0.8,0.4c-0.5,0.2-1.1,0.2-1.7,0.3c-0.3,0-0.6,0.1-0.9,0.2"/>
				<g>
					<ellipse transform="matrix(0.329 -0.9443 0.9443 0.329 -0.6845 17.7052)" class="st6" cx="12.1" cy="9.3" rx="1.5" ry="1.5"/>
				</g>
			</g>
			<g>
				<path class="st5" d="M9.1,10.1c-1,0.1-1.9,0.3-2.9,0.6c-0.5,0.2-1,0.4-1.6,0.5c-0.2,0-0.3,0.1-0.5,0.1"/>
				<g>
					
						<ellipse transform="matrix(2.559854e-02 -0.9997 0.9997 2.559854e-02 -7.1552 15.2579)" class="st6" cx="4.2" cy="11.3" rx="1.5" ry="1.5"/>
				</g>
			</g>
		</g>
		<g>
			<g>
				<path class="st3" d="M0,15.4c-0.5,0.2-1,0.4-1.6,0.5c-0.1,0-0.3,0-0.5,0"/>
				<g>
					
						<ellipse transform="matrix(5.679783e-02 -0.9984 0.9984 5.679783e-02 -17.7852 13.0382)" class="st4" cx="-2" cy="15.9" rx="1.5" ry="1.5"/>
				</g>
			</g>
			<g>
				<path class="st3" d="M8.5,13.6c-0.6,0.1-1.1,0.2-1.7,0.3c-0.6,0-1.2,0-1.8,0.3c-0.5,0.3-1.1,0.3-1.7,0.4c-0.1,0-0.2,0.1-0.3,0.1
					"/>
				<g>
					<ellipse transform="matrix(0.22 -0.9755 0.9755 0.22 -11.8941 14.4639)" class="st4" cx="3.1" cy="14.7" rx="1.5" ry="1.5"/>
				</g>
			</g>
		</g>
		<g>
			<g>
				<path class="st1" d="M6.9,17.2c-0.6,0.1-1.3-0.2-1.8,0.1c-0.3,0.2-0.4,0.4-0.8,0.4c-0.3,0-0.6-0.1-0.9,0c-0.7,0.2-1.3,0.4-2,0.6
					"/>
				<g>
					
						<ellipse transform="matrix(0.2628 -0.9648 0.9648 0.2628 -16.4544 14.8501)" class="st2" cx="1.5" cy="18.2" rx="1.5" ry="1.5"/>
				</g>
			</g>
			<g>
				<path class="st1" d="M12.3,15.9c-0.6,0.2-1.3,0.3-2,0.5"/>
				<g>
					
						<ellipse transform="matrix(0.1047 -0.9945 0.9945 0.1047 -6.983 24.9751)" class="st2" cx="10.4" cy="16.4" rx="1.5" ry="1.5"/>
				</g>
			</g>
		</g>
	</g>
</symbol>
<symbol  id="fur-2" viewBox="-16.4 -26.5 39.2 52">
	<polygon class="st0" points="1.7,17.3 -3.3,12.6 -5.1,2.1 -16.4,-13.3 -6.5,-22.7 6.4,-25.6 16.1,-13.1 19.3,6.6 16.9,13.8 	"/>
	<g>
		<g>
			<g>
				<path class="st1" d="M-1.1-14.2c-0.6,0.1-1.1,0.5-1.7,0.2c-0.6-0.2-0.8,0.2-1.2,0.4"/>
				<g>
					
						<ellipse transform="matrix(8.958979e-02 -0.996 0.996 8.958979e-02 9.9334 -16.3479)" class="st2" cx="-4" cy="-13.6" rx="1.5" ry="1.5"/>
				</g>
			</g>
			<g>
				<path class="st1" d="M-6.9-13c-0.1,0.1-0.3,0.1-0.4,0.2"/>
				<g>
					<circle class="st2" cx="-7.2" cy="-12.8" r="1.5"/>
				</g>
			</g>
		</g>
		<g>
			<g>
				<path class="st3" d="M5.1-9.4L5.1-9.4c-0.3,0-0.6,0-0.9,0.2C3.9-9,3.5-8.9,3.1-8.8"/>
				<g>
					<ellipse transform="matrix(0.1063 -0.9943 0.9943 0.1063 11.6415 -4.685)" class="st4" cx="3.2" cy="-8.8" rx="1.5" ry="1.5"/>
				</g>
			</g>
			<g>
				<path class="st3" d="M12.7-10.9c-0.3,0.1-0.5-0.2-0.8-0.2c-0.3,0-0.5,0.2-0.8,0.3c-0.6,0.2-1.1,0.4-1.7,0.5
					c-0.6,0-1.2,0.2-1.7,0.4C7.6-9.9,7.5-9.9,7.3-9.8"/>
			</g>
			<g>
				<path class="st3" d="M-0.9-8.1c0.1,0,0.2,0,0.3,0"/>
				<g>
					<ellipse transform="matrix(0.215 -0.9766 0.9766 0.215 7.3772 -6.9755)" class="st4" cx="-0.7" cy="-8.1" rx="1.5" ry="1.5"/>
				</g>
			</g>
		</g>
		<g>
			<g>
				<path class="st5" d="M-5.4-0.4C-5.1-0.5-4.9-0.9-4.6-1C-4.3-1-4-0.8-3.7-0.8c0.1,0,0.3,0,0.4-0.1"/>
				<g>
					
						<ellipse transform="matrix(0.2802 -0.9599 0.9599 0.2802 -1.5551 -3.8505)" class="st6" cx="-3.3" cy="-0.9" rx="1.5" ry="1.5"/>
				</g>
			</g>
			<g>
				<path class="st5" d="M7.2-3.6C6.8-3.5,6.6-3.3,6.3-3.2C5.7-3.1,5.2-3.2,4.6-3.1c-1.2,0-2.2,0.6-3.3,1.1C0.9-1.9,0.5-2,0-2"/>
				<g>
					<ellipse transform="matrix(0.311 -0.9504 0.9504 0.311 1.9567 -1.2454)" class="st6" cx="0.1" cy="-2" rx="1.5" ry="1.5"/>
				</g>
			</g>
		</g>
		<g>
			<g>
				<path class="st1" d="M7.3-6.7C7-6.6,6.6-6.7,6.3-6.6C6-6.5,5.8-6.2,5.5-6.1C5.2-6.1,5-6.3,4.7-6.3C4.4-6.3,4.1-6.1,3.8-6
					C3.3-5.8,2.7-5.8,2.2-5.6c-0.6,0.2-1,0.5-1.6,0.5C-0.6-5-2-5.2-3-4.5c-0.1,0.1-0.2,0.1-0.3,0.2"/>
			</g>
			<g>
				<ellipse transform="matrix(0.2872 -0.9579 0.9579 0.2872 -2.0942 -9.123)" class="st2" cx="-7.2" cy="-3.2" rx="1.5" ry="1.5"/>
			</g>
		</g>
		<g>
			<g>
				<path class="st3" d="M15.1-2c-0.1,0-0.1,0-0.2,0"/>
			</g>
			<g>
				<path class="st3" d="M12-1.4c-0.1,0-0.2,0-0.3-0.1c-1.2-0.2-2.2,0.8-3.4,0.9C7.7-0.5,7.3,0,6.7-0.1c-0.1,0-0.2,0-0.3,0"/>
				<g>
					<ellipse transform="matrix(0.294 -0.9558 0.9558 0.294 4.6069 6.1189)" class="st4" cx="6.4" cy="-0.1" rx="1.5" ry="1.5"/>
				</g>
			</g>
		</g>
		<g>
			<g>
				<path class="st3" d="M10.2,2.1C9.6,2.2,9,2.4,8.4,2.5C7.8,2.5,7.3,3.1,6.7,3C6.4,2.9,6.1,2.8,5.9,3C5.8,3.1,5.7,3.2,5.6,3.3"/>
			</g>
			<g>
				<path class="st3" d="M3.7,3.4c-0.1,0-0.2,0-0.3,0.1C2.8,3.7,2.3,4,1.7,4.1c-0.1,0-0.3,0.1-0.4,0.1"/>
				<g>
					<ellipse transform="matrix(0.1432 -0.9897 0.9897 0.1432 -2.9727 4.8485)" class="st4" cx="1.3" cy="4.1" rx="1.5" ry="1.5"/>
				</g>
			</g>
		</g>
		<g>
			<g>
				<path class="st3" d="M9.6,5.6C9.3,5.6,9.1,5.8,8.8,5.9c-0.3,0-0.6-0.1-0.9,0c-0.3,0-0.5,0.3-0.7,0.4C6.9,6.4,6.6,6.4,6.3,6.5
					c-0.3,0.1-0.6,0-0.9,0c-0.4,0-0.6,0.2-0.9,0.4C4.3,7.1,4.1,7.1,3.8,7c-0.4-0.1-0.6,0-0.9,0C2.3,7.2,1.7,7.3,1.2,7.4
					C0.9,7.5,0.6,7.5,0.4,7.7C0.1,7.9-0.1,8.1-0.4,8.1c-0.7,0.1-1.4,0.3-2,0.5"/>
				<g>
					<ellipse transform="matrix(0.232 -0.9727 0.9727 0.232 -10.1721 4.315)" class="st4" cx="-2.4" cy="8.6" rx="1.5" ry="1.5"/>
				</g>
			</g>
		</g>
		<g>
			<g>
				<path class="st5" d="M16.6,7.1c-0.3,0.1-0.5,0.3-0.8,0.4c-0.5,0.2-1.1,0.2-1.7,0.3c-0.3,0-0.6,0.1-0.9,0.2"/>
				<g>
					<ellipse transform="matrix(0.329 -0.9443 0.9443 0.329 1.4129 17.9526)" class="st6" cx="13.3" cy="8" rx="1.5" ry="1.5"/>
				</g>
			</g>
			<g>
				<path class="st5" d="M10.3,8.8c-1,0.1-1.9,0.3-2.9,0.6c-0.5,0.2-1,0.4-1.6,0.5C5.7,9.9,5.6,10,5.4,10"/>
				<g>
					
						<ellipse transform="matrix(2.559854e-02 -0.9997 0.9997 2.559854e-02 -4.6119 15.1627)" class="st6" cx="5.5" cy="9.9" rx="1.5" ry="1.5"/>
				</g>
			</g>
		</g>
		<g>
			<g>
				<path class="st3" d="M1.2,14.1c-0.5,0.2-1,0.4-1.6,0.5c-0.1,0-0.3,0-0.5,0"/>
				<g>
					
						<ellipse transform="matrix(5.679783e-02 -0.9984 0.9984 5.679783e-02 -15.2818 12.9836)" class="st4" cx="-0.8" cy="14.6" rx="1.5" ry="1.5"/>
				</g>
			</g>
			<g>
				<path class="st3" d="M9.7,12.3c-0.6,0.1-1.1,0.2-1.7,0.3c-0.6,0-1.2,0-1.8,0.3c-0.5,0.3-1.1,0.3-1.7,0.4c-0.1,0-0.2,0.1-0.3,0.1
					"/>
				<g>
					<ellipse transform="matrix(0.22 -0.9755 0.9755 0.22 -9.6213 14.602)" class="st4" cx="4.3" cy="13.3" rx="1.5" ry="1.5"/>
				</g>
			</g>
		</g>
		<g>
			<g>
				<path class="st1" d="M8.1,15.8c-0.6,0.1-1.3-0.2-1.8,0.1c-0.3,0.2-0.4,0.4-0.8,0.4c-0.3,0-0.6-0.1-0.9,0c-0.7,0.2-1.3,0.4-2,0.6
					"/>
				<g>
					
						<ellipse transform="matrix(0.2628 -0.9648 0.9648 0.2628 -14.2483 15.0331)" class="st2" cx="2.7" cy="16.8" rx="1.5" ry="1.5"/>
				</g>
			</g>
			<g>
				<path class="st1" d="M13.5,14.6c-0.6,0.2-1.3,0.3-2,0.5"/>
				<g>
					<ellipse transform="matrix(0.1047 -0.9945 0.9945 0.1047 -4.5434 24.9805)" class="st2" cx="11.6" cy="15" rx="1.5" ry="1.5"/>
				</g>
			</g>
		</g>
	</g>
	
		<radialGradient id="SVGID_1_" cx="-1466.6512" cy="-1815.5042" r="23.0245" gradientTransform="matrix(0.98 -0.1991 0.1991 0.98 1801.8987 1486.7863)" gradientUnits="userSpaceOnUse">
		<stop  offset="0" style="stop-color:#302520;stop-opacity:0.3"/>
		<stop  offset="1" style="stop-color:#2B201C;stop-opacity:0"/>
	</radialGradient>
	<path class="st7" d="M22.1-4.3C19.2-18.5,8.4-28.3-2-26.2S-18.5-10.8-15.7,3.4S-2,27.4,8.4,25.3S25,9.9,22.1-4.3z"/>
</symbol>
<g id="purrly">
	<g id="body">
		<path class="st8" d="M5.6,260.5L5.4,260c-0.1-0.3-0.3-0.7-0.5-1.1l-0.2-0.7l-0.1-0.5l-0.2-0.8l-0.2-0.8c-0.5-2.2-0.8-4.4-1-6.7
			c-0.4-4.7,0.5-10.6,0.5-17.9s0.3-16,0.8-26c0.2-5,0.5-10.3,0.8-15.8l0.3-4.2l0.1-2.2l0.1-2c0.1-1.5,0.1-2.8,0.2-4.1l0.1-4.2
			c0.3-11.8-0.7-24.7-0.9-38.4s-0.6-28-1.4-42.8L3.1,80.6c-0.3-3.7-0.5-7.5-0.9-11.2l-0.5-5.6C1.4,62,1.2,60.1,1,58.3l-0.7-6
			l-0.1-2.1c-0.1-0.7-0.1-1.4-0.1-2c0-1.3-0.1-2.7,0-4.2c0.1-6.4,1.5-12.7,4.1-18.6C7.2,18.7,12.1,13,18.2,8.9
			C23.6,5.4,29.5,3,35.7,1.7C40.8,0.7,46,0.1,51.2,0c9,0,18,0.6,26.9,1.9l3,0.4l1.7,0.2l1.9,0.3c2.4,0.4,4.6,0.9,6.9,1.4
			c4.5,1,8.8,2.2,13.1,3.6c8.6,2.8,16.9,6.3,24.8,10.5c8.2,4.3,15.8,9.5,22.7,15.6c3.5,3.1,6.8,6.6,9.9,10.2
			c3.1,3.7,5.8,7.7,8.2,11.9c4.7,8.3,7.8,17.5,9.1,27c0.6,4.5,0.9,9,0.7,13.5c0,1.1-0.1,2.2-0.1,3.2l-0.1,1.6v0.4v0.2l-0.1,0.7
			l-0.1,0.6l-0.1,1.2l-0.1,0.6l-0.2,1l-0.3,2l-0.2,1l-0.2,0.9c-1,4.5-2.5,8.9-4.4,13.1c-1.8,3.9-3.9,7.7-6.4,11.2
			c-4.4,6.2-9.6,11.8-15.4,16.6c-4.9,4-10.1,7.7-15.5,10.9c-8.3,4.8-17,9-26.1,12.4c-7.3,2.8-13,4.6-16.9,5.8l-6,1.8
			c-11.1,3.3-22.8-3.1-26.1-14.2s3.1-22.8,14.2-26.1l0,0l0.3-0.1l0.6-0.1L82,140c3.3-0.9,8.2-2.4,14.1-4.5c6.9-2.4,13.6-5.5,20-9
			c3.6-2,7-4.3,10.2-6.8c3.1-2.4,5.9-5.3,8.3-8.5c2.2-2.9,3.8-6.2,4.6-9.8l0.1-0.3v-0.2c0-0.1,0-0.3,0.1-0.4l0.1-0.2l0.1-0.6
			l0.2-1.2l0.1-0.6c0-0.2-0.1,0.9,0,0.4v-0.1v-0.2L140,97c0.1-0.6,0.1-1.2,0.1-1.8c0.1-2.3,0-4.6-0.2-6.9c-0.5-4.6-2-9.1-4.2-13.2
			c-2.5-4.6-5.9-8.8-9.8-12.4c-8.4-7.8-20.4-14.4-33.4-18.9c-3.2-1.1-6.6-2.1-9.8-2.9c-1.6-0.4-3.3-0.8-4.9-1.1l-1.1-0.2l-1.3-0.2
			L72.7,39c-7-1.2-14.1-1.9-21.1-2.1c-2.8,0-5.7,0.2-8.4,0.7c-1.7,0.3-3.4,0.8-4.9,1.6c-0.6,0.3-1.1,0.8-1.4,1.4c-0.6,1.5-1,3-1,4.6
			c0,0.6,0,1.2,0,1.8V48v0.8l0.5,5.7c0.2,2,0.4,4.1,0.6,6.1l0.5,6c0.3,4,0.5,8,0.7,11.9l0.5,11.7c0.5,15.4,0.7,30.2,0.6,44.2
			s0.6,27.3,0.1,39.6l-0.2,4.8c-0.1,1.6-0.2,3.2-0.3,4.6l-0.2,2.3l-0.2,2.1l-0.3,4.1c-0.4,5.4-0.8,10.5-1.1,15.4
			c-0.6,9.6-1,18-1.2,24.8s-1.1,12-1,14.8c0.1,1.4,0.2,2.2,0.2,1.9l-0.1-0.4l-0.1-0.2l-0.2-0.4c-0.1-0.3-0.2-0.5-0.3-0.7
			s0-0.1,0-0.1v0.1v0.1v0.1l0.1,0.2c2.7,8.4-1.9,17.3-10.2,20.1C17.2,269.9,9.4,266.9,5.6,260.5z"/>
	</g>
	<g id="face">
		<g id="brow_right">
			<path d="M64.9,154.8l0.2-0.2c0.6-0.4,1.2-0.6,1.9-0.6c0.5,0,0.9,0.1,1.3,0.3c0.8,0.4,1.3,1.1,1.6,1.9c0.1,0.4,0.1,0.8,0.1,1.1
				l0-0.3c-0.1-0.3-0.1-0.5-0.3-0.8c-0.6-1.5-2.3-2.4-3.9-2c-0.3,0.1-0.5,0.1-0.8,0.3L64.9,154.8z"/>
		</g>
		<g id="brow_left">
			<path d="M77.9,160.3c0.1-0.1,0.2-0.2,0.3-0.3c0.6-0.5,1.5-0.8,2.3-0.8c0.3,0,0.6,0.1,0.8,0.1c0.3,0.1,0.6,0.2,0.8,0.3
				c1.3,0.7,2,2.2,1.8,3.6l-0.1,0.4l0-0.4c0-0.3-0.1-0.7-0.1-1c-0.2-1-0.9-1.8-1.7-2.3c-0.2-0.1-0.5-0.2-0.7-0.3
				c-0.3-0.1-0.5-0.1-0.8-0.1c-0.5,0-0.9,0-1.4,0.2c-0.3,0.1-0.6,0.3-0.9,0.4L77.9,160.3z"/>
		</g>
		<g id="mouth">
			<path class="st9" d="M67,163.1c0.5,0.5,1,0.8,1.6,1c0.1,0,0.3,0.1,0.4,0.1c0.1,0,0.1,0,0.2-0.1c0.1,0,0.1,0,0.2-0.1
				c0.1,0,0.2-0.1,0.3-0.2c0.1-0.1,0.2-0.2,0.3-0.3l0.1-0.1l0.1,0l0.3,0c0.1,0,0.2,0.1,0.3,0.1c0.1,0.1,0.3,0.2,0.4,0.3
				c0.2,0.2,0.3,0.4,0.5,0.6c0.3,0.4,0.6,0.9,0.9,1.2c0.2,0.2,0.3,0.3,0.5,0.5c0.2,0.2,0.4,0.3,0.6,0.4c0.2,0.1,0.4,0.2,0.7,0.3
				c0.2,0.1,0.5,0.1,0.7,0.1c-0.2,0.1-0.5,0.1-0.8,0.1c-0.3,0-0.5,0-0.8-0.1c-0.3-0.1-0.5-0.2-0.7-0.4c-0.2-0.1-0.4-0.3-0.6-0.5
				c-0.4-0.4-0.7-0.8-1-1.2c-0.2-0.2-0.3-0.4-0.4-0.6c-0.1-0.1-0.1-0.1-0.2-0.2l-0.1,0l-0.1,0l0.2-0.1c-0.1,0.1-0.3,0.3-0.4,0.4
				c-0.2,0.1-0.3,0.2-0.5,0.3c-0.1,0-0.2,0.1-0.3,0.1c-0.1,0-0.2,0-0.3,0c-0.2,0-0.4-0.1-0.5-0.1c-0.3-0.1-0.6-0.3-0.9-0.6
				C67.4,163.8,67.2,163.5,67,163.1z"/>
		</g>
		<path id="nose" class="st9" d="M70.3,163.8c0,0-1.2-3.1,0.1-2.8S74.5,161.4,70.3,163.8z"/>
		<g id="eyes">
			<path class="st9" d="M83.7,163.7c-0.6,1.4-2.3,1.9-3.9,1.2c-1.5-0.7-2.4-2.4-1.9-4c0.6-1.4,2.3-1.9,3.9-1.2
				C83.3,160.4,84.2,162.1,83.7,163.7z"/>
			
				<ellipse transform="matrix(0.1938 -0.981 0.981 0.1938 -92.5702 211.2342)" class="st10" cx="82.2" cy="161.9" rx="0.9" ry="0.9"/>
			<ellipse transform="matrix(0.1938 -0.981 0.981 0.1938 -93.9767 208.7301)" class="st10" cx="80" cy="161.5" rx="0.5" ry="0.5"/>
			<path class="st9" d="M69.8,157c-0.3,1.1-1.8,1.5-3.2,1s-2.4-1.7-2-2.8c0.4-1.1,1.8-1.5,3.2-1C69.2,154.7,70.1,156,69.8,157z"/>
			<ellipse transform="matrix(0.1938 -0.981 0.981 0.1938 -97.8993 192.2907)" class="st10" cx="68" cy="155.7" rx="0.9" ry="0.9"/>
			<ellipse transform="matrix(0.1938 -0.981 0.981 0.1938 -98.3817 190.2162)" class="st10" cx="66.5" cy="155" rx="0.5" ry="0.4"/>
		</g>
	</g>
</g>
<g id="fur" class="st11">
	
		<use xlink:href="#fur-1"  width="35.7" height="42.9" x="-18.6" y="-22.3" transform="matrix(-0.2787 0.6092 -0.6092 -0.2787 18.8379 257.9115)" style="overflow:visible;"/>
	
		<use xlink:href="#fur-1"  width="35.7" height="42.9" id="fur_row-5" x="-18.6" y="-22.3" transform="matrix(-0.293 0.6136 -0.6136 -0.293 18.7888 248.2068)" style="overflow:visible;"/>
	
		<use xlink:href="#fur-1"  width="35.7" height="42.9" id="fur_row-8" x="-18.6" y="-22.3" transform="matrix(-0.2989 0.6107 -0.6107 -0.2989 19.1561 238.3801)" style="overflow:visible;"/>
	
		<use xlink:href="#fur-1"  width="35.7" height="42.9" id="fur_row-11" x="-18.6" y="-22.3" transform="matrix(-0.3 0.61 -0.61 -0.3 19.6551 228.5082)" style="overflow:visible;"/>
	
		<use xlink:href="#fur-1"  width="35.7" height="42.9" id="fur_row-14" x="-18.6" y="-22.3" transform="matrix(-0.303 0.6199 -0.6199 -0.303 19.9575 218.5977)" style="overflow:visible;"/>
	
		<use xlink:href="#fur-1"  width="35.7" height="42.9" id="fur_row-17" x="-18.6" y="-22.3" transform="matrix(-0.3 0.63 -0.63 -0.3 20.3165 208.6474)" style="overflow:visible;"/>
	
		<use xlink:href="#fur-1"  width="35.7" height="42.9" id="fur_row-20" x="-18.6" y="-22.3" transform="matrix(-0.29 0.64 -0.64 -0.29 20.6817 198.7014)" style="overflow:visible;"/>
	
		<use xlink:href="#fur-1"  width="35.7" height="42.9" id="fur_row-23" x="-18.6" y="-22.3" transform="matrix(-0.2807 0.6521 -0.6521 -0.2807 20.8345 188.6335)" style="overflow:visible;"/>
	
		<use xlink:href="#fur-1"  width="35.7" height="42.9" id="fur_row-26" x="-18.6" y="-22.3" transform="matrix(-0.2691 0.657 -0.657 -0.2691 20.9638 178.5432)" style="overflow:visible;"/>
	
		<use xlink:href="#fur-1"  width="35.7" height="42.9" id="fur_row-29" x="-18.6" y="-22.3" transform="matrix(-0.2728 0.6554 -0.6554 -0.2728 21.0676 168.4364)" style="overflow:visible;"/>
	
		<use xlink:href="#fur-1"  width="35.7" height="42.9" id="fur_row-32" x="-18.6" y="-22.3" transform="matrix(-0.2773 0.6644 -0.6644 -0.2773 21.0166 158.455)" style="overflow:visible;"/>
	
		<use xlink:href="#fur-1"  width="35.7" height="42.9" id="fur_row-35" x="-18.6" y="-22.3" transform="matrix(-0.28 0.67 -0.67 -0.28 21.0683 148.4348)" style="overflow:visible;"/>
	
		<use xlink:href="#fur-1"  width="35.7" height="42.9" id="fur_row-38" x="-18.6" y="-22.3" transform="matrix(-0.2716 0.6776 -0.6776 -0.2716 21.2167 138.6324)" style="overflow:visible;"/>
	
		<use xlink:href="#fur-1"  width="35.7" height="42.9" id="fur_row-41" x="-18.6" y="-22.3" transform="matrix(-0.2615 0.6815 -0.6815 -0.2615 21.3607 128.7475)" style="overflow:visible;"/>
	
		<use xlink:href="#fur-1"  width="35.7" height="42.9" id="fur_row-44" x="-18.6" y="-22.3" transform="matrix(-0.251 0.6961 -0.6961 -0.251 21.1442 118.9787)" style="overflow:visible;"/>
	
		<use xlink:href="#fur-1"  width="35.7" height="42.9" id="fur_row-47" x="-18.6" y="-22.3" transform="matrix(-0.2331 0.7023 -0.7023 -0.2331 21.002 109.1703)" style="overflow:visible;"/>
	
		<use xlink:href="#fur-1"  width="35.7" height="42.9" id="fur_row-50" x="-18.6" y="-22.3" transform="matrix(-0.2194 0.7171 -0.7171 -0.2194 20.408 99.4986)" style="overflow:visible;"/>
	
		<use xlink:href="#fur-1"  width="35.7" height="42.9" id="fur_row-53" x="-18.6" y="-22.3" transform="matrix(-0.22 0.7199 -0.7199 -0.22 19.7845 89.5491)" style="overflow:visible;"/>
	
		<use xlink:href="#fur-1"  width="35.7" height="42.9" id="fur_row-56" x="-18.6" y="-22.3" transform="matrix(-0.22 0.7299 -0.7299 -0.22 19.1101 79.8487)" style="overflow:visible;"/>
	
		<use xlink:href="#fur-1"  width="35.7" height="42.9" id="fur_row-59" x="-18.6" y="-22.3" transform="matrix(-0.2351 0.7227 -0.7227 -0.2351 18.7656 69.7363)" style="overflow:visible;"/>
	
		<use xlink:href="#fur-1"  width="35.7" height="42.9" id="fur_row-62" x="-18.6" y="-22.3" transform="matrix(-0.26 0.7199 -0.7199 -0.26 18.5159 59.6817)" style="overflow:visible;"/>
	
		<use xlink:href="#fur-1"  width="35.7" height="42.9" id="fur_row-65" x="-18.6" y="-22.3" transform="matrix(-0.3 0.71 -0.71 -0.3 18.6516 49.4447)" style="overflow:visible;"/>
	
		<use xlink:href="#fur-1"  width="35.7" height="42.9" id="fur_row-68" x="-18.6" y="-22.3" transform="matrix(-0.39 0.67 -0.67 -0.39 19.3822 38.6869)" style="overflow:visible;"/>
	
		<use xlink:href="#fur-1"  width="35.7" height="42.9" id="fur_row-71" x="-18.6" y="-22.3" transform="matrix(-0.6101 0.486 -0.486 -0.6101 23.1948 30.7156)" style="overflow:visible;"/>
	
		<use xlink:href="#fur-1"  width="35.7" height="42.9" id="fur_row-74" x="-18.6" y="-22.3" transform="matrix(-0.7627 0.2057 -0.2057 -0.7627 29.4582 25.0136)" style="overflow:visible;"/>
	
		<use xlink:href="#fur-1"  width="35.7" height="42.9" id="fur_row-77" x="-18.6" y="-22.3" transform="matrix(-0.7887 -4.492175e-02 4.492175e-02 -0.7887 38.4899 21.8789)" style="overflow:visible;"/>
	
		<use xlink:href="#fur-1"  width="35.7" height="42.9" id="fur_row-80" x="-18.6" y="-22.3" transform="matrix(-0.7699 -0.21 0.21 -0.7699 48.6183 20.3924)" style="overflow:visible;"/>
	
		<use xlink:href="#fur-1"  width="35.7" height="42.9" id="fur_row-83" x="-18.6" y="-22.3" transform="matrix(-0.7399 -0.3 0.3 -0.7399 59.4164 20.3686)" style="overflow:visible;"/>
	
		<use xlink:href="#fur-1"  width="35.7" height="42.9" id="fur_row-86" x="-18.6" y="-22.3" transform="matrix(-0.7299 -0.35 0.35 -0.7299 70.4278 21.3247)" style="overflow:visible;"/>
	
		<use xlink:href="#fur-1"  width="35.7" height="42.9" id="fur_row-89" x="-18.6" y="-22.3" transform="matrix(-0.7104 -0.3891 0.3891 -0.7104 81.6708 23.14)" style="overflow:visible;"/>
	
		<use xlink:href="#fur-1"  width="35.7" height="42.9" id="fur_row-92" x="-18.6" y="-22.3" transform="matrix(-0.6861 -0.449 0.449 -0.6861 92.1682 25.3554)" style="overflow:visible;"/>
	
		<use xlink:href="#fur-1"  width="35.7" height="42.9" id="fur_row-95" x="-18.6" y="-22.3" transform="matrix(-0.65 -0.5 0.5 -0.65 101.6803 28.6748)" style="overflow:visible;"/>
	
		<use xlink:href="#fur-1"  width="35.7" height="42.9" id="fur_row-98" x="-18.6" y="-22.3" transform="matrix(-0.6153 -0.557 0.557 -0.6153 111.2764 32.5652)" style="overflow:visible;"/>
	
		<use xlink:href="#fur-1"  width="35.7" height="42.9" id="fur_row-101" x="-18.6" y="-22.3" transform="matrix(-0.57 -0.61 0.61 -0.57 119.3953 36.3434)" style="overflow:visible;"/>
	
		<use xlink:href="#fur-1"  width="35.7" height="42.9" id="fur_row-104" x="-18.6" y="-22.3" transform="matrix(-0.51 -0.66 0.66 -0.51 127.945 41.9912)" style="overflow:visible;"/>
	
		<use xlink:href="#fur-1"  width="35.7" height="42.9" id="fur_row-107" x="-18.6" y="-22.3" transform="matrix(-0.4482 -0.7104 0.7104 -0.4482 135.499 48.0872)" style="overflow:visible;"/>
	
		<use xlink:href="#fur-1"  width="35.7" height="42.9" id="fur_row-110" x="-18.6" y="-22.3" transform="matrix(-0.3698 -0.7653 0.7653 -0.3698 142.28 54.8294)" style="overflow:visible;"/>
	
		<use xlink:href="#fur-1"  width="35.7" height="42.9" id="fur_row-113" x="-18.6" y="-22.3" transform="matrix(-0.27 -0.8099 0.8099 -0.27 147.9018 62.6709)" style="overflow:visible;"/>
	
		<use xlink:href="#fur-1"  width="35.7" height="42.9" id="fur_row-116" x="-18.6" y="-22.3" transform="matrix(-0.1483 -0.8471 0.8471 -0.1483 152.3044 71.0706)" style="overflow:visible;"/>
	
		<use xlink:href="#fur-1"  width="35.7" height="42.9" id="fur_row-119" x="-18.6" y="-22.3" transform="matrix(-9.999303e-03 -0.8599 0.8599 -9.999303e-03 155.0945 80.0158)" style="overflow:visible;"/>
	
		<use xlink:href="#fur-1"  width="35.7" height="42.9" id="fur_row-122" x="-18.6" y="-22.3" transform="matrix(0.1576 -0.8555 0.8555 0.1576 156.6577 89.6399)" style="overflow:visible;"/>
	
		<use xlink:href="#fur-1"  width="35.7" height="42.9" id="fur_row-125" x="-18.6" y="-22.3" transform="matrix(0.344 -0.7991 0.7991 0.344 155.6584 98.1267)" style="overflow:visible;"/>
	
		<use xlink:href="#fur-1"  width="35.7" height="42.9" id="fur_row-128" x="-18.6" y="-22.3" transform="matrix(0.5046 -0.7209 0.7209 0.5046 153.8532 107.3884)" style="overflow:visible;"/>
	
		<use xlink:href="#fur-1"  width="35.7" height="42.9" id="fur_row-131" x="-18.6" y="-22.3" transform="matrix(0.62 -0.62 0.62 0.62 149.768 115.3914)" style="overflow:visible;"/>
	
		<use xlink:href="#fur-1"  width="35.7" height="42.9" id="fur_row-134" x="-18.6" y="-22.3" transform="matrix(0.71 -0.53 0.53 0.71 144.3457 123.2474)" style="overflow:visible;"/>
	
		<use xlink:href="#fur-1"  width="35.7" height="42.9" id="fur_row-137" x="-18.6" y="-22.3" transform="matrix(0.7699 -0.44 0.44 0.7699 137.3945 130.4203)" style="overflow:visible;"/>
	
		<use xlink:href="#fur-1"  width="35.7" height="42.9" id="fur_row-140" x="-18.6" y="-22.3" transform="matrix(0.8245 -0.3607 0.3607 0.8245 129.4903 137.0663)" style="overflow:visible;"/>
	
		<use xlink:href="#fur-1"  width="35.7" height="42.9" id="fur_row-143" x="-18.6" y="-22.3" transform="matrix(0.8543 -0.283 0.283 0.8543 120.486 142.7183)" style="overflow:visible;"/>
	
		<use xlink:href="#fur-1"  width="35.7" height="42.9" id="fur_row-146" x="-18.6" y="-22.3" transform="matrix(0.8853 -0.2104 0.2104 0.8853 111.2987 147.6275)" style="overflow:visible;"/>
	
		<use xlink:href="#fur-1"  width="35.7" height="42.9" id="fur_row-149" x="-18.6" y="-22.3" transform="matrix(0.9001 -0.1332 0.1332 0.9001 101.8011 151.4211)" style="overflow:visible;"/>
	
		<use xlink:href="#fur-1"  width="35.7" height="42.9" id="fur_row-152" x="-18.6" y="-22.3" transform="matrix(0.9186 -4.942839e-02 4.942839e-02 0.9186 92.6186 154.3446)" style="overflow:visible;"/>
</g>
<g id="strokes" class="st12">
	<path id="_x32_" class="st13" d="M76.7,211.9c0,0-12.1,15,1.9,21.5s77.5,0.5,64,24.5"/>
	<path id="path_1_" class="st13" d="M96.4,157.2c31.7-18.6,71.5-25.5,62.6-71.7c-6-39.5-55.1-61.8-88-67.3
		C7.5,4.5,19,60.2,20.1,104.5c1.3,53.9,1.8,81-0.1,130.4"/>
</g>
<g id="A" class="st12">
	<circle class="st14" cx="97.1" cy="157" r="26"/>
	<circle class="st15" cx="97.1" cy="157" r="26"/>
</g>
<path id="_x32__1_" class="st16" d="M76.7,211.9c0,0-12.1,15,1.9,21.5s77.5,0.5,64,24.5"/>
<use xlink:href="#fur-2"  width="39.2" height="52" id="XMLID_1_" x="-16.4" y="-26.5" transform="matrix(1 0 0 -1 -43.2066 38.9287)" style="display:none;overflow:visible;"/>
<g id="UI">
	<g id="phonetics">
		<path class="st17" d="M133.8,268.3H76.8c-6.1,0-11.1-5-11.1-11.1v-37.7c0-6.1,5-11.1,11.1-11.1h56.9c6.1,0,11.1,5,11.1,11.1v37.7
			C144.9,263.4,139.9,268.3,133.8,268.3z"/>
		<text transform="matrix(1 0 0 1 79.3685 249.328)" class="st18 st19">[ r ]</text>
	</g>
</g>
</svg>
