<svg id="scene" xmlns="http://www.w3.org/2000/svg" xmlns:xlink="http://www.w3.org/1999/xlink" viewBox="0 0 400 400"><defs><clipPath id="clip-path"><circle cx="3.07" cy="1.63" r="1.63" transform="translate(-0.25 2.64) rotate(-45)" style="fill:#603913"/></clipPath><linearGradient id="linear-gradient" x1="22.67" y1="27.35" x2="51.98" y2="27.35" gradientUnits="userSpaceOnUse"><stop offset="0" stop-color="#fff"/><stop offset="1" stop-color="#fff" stop-opacity="0"/></linearGradient><clipPath id="clip-path-2"><path d="M88.23,277.34s-1.17-.73-1.78-0.34L83,278.83a10.42,10.42,0,0,0-1.29.81c-1.59,1.16-4.68,2.94-9.78,6.2,0,0-4.63,3.35-4.24,4.92a17.4,17.4,0,0,0,1.58,3,19.28,19.28,0,0,0,2,2.68c1.16,1.1,6.25-1.79,6.25-1.79,5-2.95,8.38-5.53,9.95-6.4a6.89,6.89,0,0,0,.83-0.55l3.35-2.57c0.61-.39.4-1.81,0.43-1.76" style="fill:#173d64"/></clipPath><clipPath id="clip-path-3"><path d="M88.44,287L84,288.51a19.2,19.2,0,0,0-3.81-6l3.19-3.45A14.64,14.64,0,0,1,88.44,287Z" style="fill:#7dc9d0"/></clipPath><linearGradient id="linear-gradient-2" x1="376.72" y1="-36.7" x2="385.4" y2="-36" gradientTransform="translate(-298.56 320.91)" xlink:href="#linear-gradient"/><clipPath id="clip-path-4"><path d="M226,92.82c-0.06,0,1.25-.59,1.25-1.32l0.34-3.93a10.42,10.42,0,0,0,0-1.52c-0.12-2,0-5.52,0-11.58,0,0-.33-5.71-1.86-6.23a17.4,17.4,0,0,0-3.36-.28,19.28,19.28,0,0,0-3.36.28c-1.55.38-1.86,6.23-1.86,6.23-0.2,5.79.14,10,0,11.83a6.89,6.89,0,0,0,0,1l0.36,4.21c0,0.73,1.31,1.32,1.25,1.32" style="fill:#17643b"/></clipPath><clipPath id="clip-path-5"><path d="M217.79,87.79l1.1-4.54a19.2,19.2,0,0,0,7.07,0l1.18,4.54A14.64,14.64,0,0,1,217.79,87.79Z" style="fill:#7dc9d0"/></clipPath><linearGradient id="linear-gradient-3" x1="156.98" y1="105.72" x2="165.66" y2="106.42" gradientTransform="translate(58.84 -20.69)" xlink:href="#linear-gradient"/><clipPath id="clip-path-6"><path d="M86.85,135c0,0.06-.59-1.25-1.32-1.25l-3.93-.34a10.42,10.42,0,0,0-1.52,0c-2,.12-5.52,0-11.58,0,0,0-5.71.33-6.23,1.86a17.4,17.4,0,0,0-.28,3.36,19.28,19.28,0,0,0,.28,3.36c0.38,1.55,6.23,1.86,6.23,1.86,5.79,0.2,10-.14,11.83,0a6.89,6.89,0,0,0,1,0l4.21-.36c0.73,0,1.32-1.31,1.32-1.25" style="fill:#642717"/></clipPath><clipPath id="clip-path-7"><path d="M81.82,143.24l-4.54-1.1a19.2,19.2,0,0,0,0-7.07l4.54-1.18A14.64,14.64,0,0,1,81.82,143.24Z" style="fill:#7dc9d0"/></clipPath><linearGradient id="linear-gradient-4" x1="238.96" y1="13.7" x2="247.63" y2="14.4" gradientTransform="translate(-165.53 124.88)" xlink:href="#linear-gradient"/><symbol id="light.red" data-name="light.red" viewBox="0 0 23.68 23.68"><circle cx="11.84" cy="11.84" r="11.84" style="fill:#f15b6c;opacity:0.2"/><circle cx="9.59" cy="11.84" r="1.75" style="fill:#ed1c24;stroke:#f15b6c;stroke-miterlimit:10;stroke-width:0.5px"/><rect x="9.59" y="9.09" width="3.5" height="5.5" style="fill:#231f20"/></symbol><symbol id="human.shoe" data-name="human.shoe" viewBox="0 0 1.69 1.77"><g id="shoes"><path d="M0.49,0.49A1.53,1.53,0,0,1,1.4,0c0.4,0,.33.41,0.16,0.93a2.12,2.12,0,0,1-.28.35,1,1,0,0,1-1.18.4A1,1,0,0,1,.49.49Z" style="fill:#231f20"/></g></symbol><symbol id="human.shoulders" data-name="human.shoulders" viewBox="0 0 4.77 4.77"><path id="shoulders" d="M1.59,0.27l2.9,2.9a0.94,0.94,0,0,1,0,1.32h0a0.94,0.94,0,0,1-1.32,0l-2.9-2.9A0.94,0.94,0,0,1,.27.27h0A0.94,0.94,0,0,1,1.59.27Z" style="fill:#add5de"/></symbol><symbol id="human.head" data-name="human.head" viewBox="0 0 4.7 4.7"><circle cx="3.07" cy="1.63" r="1.63" transform="translate(-0.25 2.64) rotate(-45)" style="fill:#603913"/><g style="clip-path:url(#clip-path)"><circle cx="1.63" cy="3.07" r="1.63" transform="translate(-1.69 2.05) rotate(-45)" style="fill:#c49a6c"/></g></symbol><symbol id="whiteOut" data-name="whiteOut" viewBox="0 0 51.98 54.7"><rect x="22.67" width="29.31" height="54.7" style="fill:url(#linear-gradient)"/><rect y="0.66" width="22.67" height="54.05" style="fill:#fff"/></symbol><symbol id="light.green" data-name="light.green" viewBox="0 0 23.68 23.68"><circle cx="11.84" cy="11.84" r="11.84" style="fill:#c6db5e;opacity:0.2"/><circle cx="9.09" cy="11.84" r="1.75" style="fill:#abd037;stroke:#e1e561;stroke-miterlimit:10;stroke-width:0.5px"/><rect x="9.09" y="9.09" width="3.5" height="5.5" style="fill:#231f20"/></symbol><symbol id="light.orange" data-name="light.orange" viewBox="0 0 23.68 23.68"><circle cx="11.84" cy="11.84" r="11.84" style="fill:#f1925c;opacity:0.2"/><circle cx="9.59" cy="11.84" r="1.75" style="fill:#ed9322;stroke:#f1d35a;stroke-miterlimit:10;stroke-width:0.5px"/><rect x="9.59" y="9.09" width="3.5" height="5.5" style="fill:#231f20"/></symbol></defs><title>オ</title><g id="shadow"><path d="M254.33,110.64a4.45,4.45,0,0,1-.76.54l0.34,2.81-3.16,2.28-1.21,0L244,120.5l-2.15-1.72,4.6-4.93v-1.21l3.39-3.05,2.66,0.53a4.31,4.31,0,0,1,.69-0.75c0.86-.75,1.19-0.47,1.5-0.12S255.18,109.89,254.33,110.64Z" style="fill:#e6e7e8"/></g><path d="M213.59,75.9V306.22a18.18,18.18,0,0,1-18.18,18.18H148" style="fill:none;stroke:#8f8785;stroke-miterlimit:10;stroke-width:37px"/><line x1="71.74" y1="148.6" x2="312.5" y2="148.6" style="fill:none;stroke:#8f8785;stroke-miterlimit:10;stroke-width:37px"/><path d="M208,148.6s-47.77,84-140.76,137.49" style="fill:none;stroke:#8f8785;stroke-miterlimit:10;stroke-width:37px"/><path d="M208,148.6s-47.77,84-140.76,137.49" style="fill:none;stroke:#bec0c2;stroke-miterlimit:10;stroke-width:33px"/><line x1="71.74" y1="148.6" x2="312.5" y2="148.6" style="fill:none;stroke:#bec0c2;stroke-miterlimit:10;stroke-width:33px"/><path d="M213.59,74.9V306.22a18.18,18.18,0,0,1-18.18,18.18H148" style="fill:none;stroke:#bec0c2;stroke-miterlimit:10;stroke-width:33px"/><path id="_---" data-name="---" d="M208,154.1c-22.75,32.54-78.23,96-140.76,132" style="fill:none;stroke:#fff;stroke-miterlimit:10;stroke-width:2px;stroke-dasharray:7"/><path id="_----2" data-name="---" d="M213.59,74.9V306.22a18.18,18.18,0,0,1-18.18,18.18H148" style="fill:none;stroke:#fff;stroke-miterlimit:10;stroke-width:2px;stroke-dasharray:7"/><g id="_----3" data-name="---"><line x1="71.74" y1="148.6" x2="75.24" y2="148.6" style="fill:none;stroke:#fff;stroke-miterlimit:10;stroke-width:2px"/><line x1="82.32" y1="148.6" x2="305.46" y2="148.6" style="fill:none;stroke:#fff;stroke-miterlimit:10;stroke-width:2px;stroke-dasharray:7.083767414093018,7.083767414093018"/><line x1="309" y1="148.6" x2="312.5" y2="148.6" style="fill:none;stroke:#fff;stroke-miterlimit:10;stroke-width:2px"/></g><use id="light.red-3" data-name="light.red" width="23.68" height="23.68" transform="translate(116.42 136.76)" xlink:href="#light.red"/><g id="human"><g id="f1"><use width="1.69" height="1.77" transform="translate(240.32 118.46)" xlink:href="#human.shoe"/><use width="1.69" height="1.77" transform="matrix(-0.14, -0.99, -0.99, 0.14, 243.96, 121.7)" xlink:href="#human.shoe"/><use width="4.77" height="4.77" transform="translate(240.66 116.91)" xlink:href="#human.shoulders"/><use width="4.69" height="4.69" transform="translate(239.81 117.72)" xlink:href="#human.head"/></g></g><circle id="shadow-2" data-name="shadow" cx="127.77" cy="177.78" r="2.72" style="fill:#6d6e71"/><line x1="127.77" y1="151.35" x2="127.77" y2="177.78" style="fill:none;stroke:#231f20;stroke-linecap:round;stroke-linejoin:round"/><circle cx="151.48" cy="177.08" r="2.72" transform="translate(-81.54 174.48) rotate(-48.82)" style="fill:#6d6e71"/><line x1="171.38" y1="194.49" x2="151.48" y2="177.08" style="fill:none;stroke:#231f20;stroke-linecap:round;stroke-linejoin:round"/><circle cx="187.46" cy="110.25" r="2.72" transform="matrix(0.63, -0.78, 0.78, 0.63, -16.07, 186.87)" style="fill:#6d6e71"/><polyline points="214.03 126.85 187.41 126.85 187.46 110.25" style="fill:none;stroke:#231f20;stroke-linecap:round;stroke-linejoin:round"/><g id="car"><path d="M88.23,277.34s-1.17-.73-1.78-0.34L83,278.83a10.42,10.42,0,0,0-1.29.81c-1.59,1.16-4.68,2.94-9.78,6.2,0,0-4.63,3.35-4.24,4.92a17.4,17.4,0,0,0,1.58,3,19.28,19.28,0,0,0,2,2.68c1.16,1.1,6.25-1.79,6.25-1.79,5-2.95,8.38-5.53,9.95-6.4a6.89,6.89,0,0,0,.83-0.55l3.35-2.57c0.61-.39.4-1.81,0.43-1.76" style="fill:#173d64"/><g style="clip-path:url(#clip-path-2)"><rect x="86.59" y="274.64" width="3.2" height="3.2" rx="1.03" ry="1.03" transform="translate(273.31 53.04) rotate(57.38)" style="fill:#fee246"/><rect x="91.46" y="282.24" width="3.2" height="3.2" rx="1.03" ry="1.03" transform="translate(281.96 52.44) rotate(57.38)" style="fill:#fee246"/></g><path d="M84.74,288l-3.82-6,7.56-4a0.81,0.81,0,0,1,1.06.28l2.17,3.38a0.81,0.81,0,0,1-.19,1.08Z" style="fill:#1b5b8c"/><path d="M88.44,287L84,288.51a19.2,19.2,0,0,0-3.81-6l3.19-3.45A14.64,14.64,0,0,1,88.44,287Z" style="fill:#7dc9d0"/><g style="clip-path:url(#clip-path-3)"><rect x="82.54" y="278.98" width="3.5" height="11.46" transform="translate(343.54 139.95) rotate(77.31)" style="fill:url(#linear-gradient-2)"/></g><path d="M72.22,286.27l2.13-.06,3.81,6-0.9,2A24,24,0,0,1,72.22,286.27Z" style="fill:#7dc9d0"/><path d="M78.16,292.17a17.33,17.33,0,0,1-3.76-5.88,24.43,24.43,0,0,1,5.82-3.72A17.74,17.74,0,0,1,84,288.44,23.44,23.44,0,0,1,78.16,292.17Z" style="fill:#2874a2"/></g><use width="51.98" height="54.7" transform="translate(47.31 121.25)" xlink:href="#whiteOut"/><use width="51.98" height="54.7" transform="translate(240.94 51.91) rotate(90)" xlink:href="#whiteOut"/><use width="51.98" height="54.7" transform="translate(335.49 175.28) rotate(180)" xlink:href="#whiteOut"/><use width="51.98" height="54.7" transform="matrix(0.88, -0.47, 0.47, 0.88, 34.81, 272.28)" xlink:href="#whiteOut"/><use width="51.98" height="54.7" transform="translate(125.86 297.39) rotate(1.07)" xlink:href="#whiteOut"/><g id="car-2" data-name="car"><path d="M226,92.82c-0.06,0,1.25-.59,1.25-1.32l0.34-3.93a10.42,10.42,0,0,0,0-1.52c-0.12-2,0-5.52,0-11.58,0,0-.33-5.71-1.86-6.23a17.4,17.4,0,0,0-3.36-.28,19.28,19.28,0,0,0-3.36.28c-1.55.38-1.86,6.23-1.86,6.23-0.2,5.79.14,10,0,11.83a6.89,6.89,0,0,0,0,1l0.36,4.21c0,0.73,1.31,1.32,1.25,1.32" style="fill:#17643b"/><g style="clip-path:url(#clip-path-4)"><rect x="225.38" y="91.78" width="3.2" height="3.2" rx="1.03" ry="1.03" transform="translate(453.96 186.76) rotate(180)" style="fill:#fee246"/><rect x="216.35" y="91.78" width="3.2" height="3.2" rx="1.03" ry="1.03" transform="translate(435.9 186.76) rotate(-180)" style="fill:#fee246"/></g><path d="M218.92,84.12H226l-0.73,8.51a0.81,0.81,0,0,1-.81.74h-4a0.81,0.81,0,0,1-.81-0.74Z" style="fill:#228a51"/><path d="M217.79,87.79l1.1-4.54a19.2,19.2,0,0,0,7.07,0l1.18,4.54A14.64,14.64,0,0,1,217.79,87.79Z" style="fill:#7dc9d0"/><g style="clip-path:url(#clip-path-5)"><rect x="220.2" y="79.79" width="3.5" height="11.46" transform="translate(401.44 241.61) rotate(-160.06)" style="fill:url(#linear-gradient-3)"/></g><path d="M227.14,74.52L226,76.34H219l-1.18-1.82A24,24,0,0,1,227.14,74.52Z" style="fill:#7dc9d0"/><path d="M219,76.34a17.33,17.33,0,0,1,7,0,24.43,24.43,0,0,1,0,6.91,17.74,17.74,0,0,1-7,0A23.44,23.44,0,0,1,219,76.34Z" style="fill:#1d854f"/></g><g id="car-3" data-name="car"><path d="M86.85,135c0,0.06-.59-1.25-1.32-1.25l-3.93-.34a10.42,10.42,0,0,0-1.52,0c-2,.12-5.52,0-11.58,0,0,0-5.71.33-6.23,1.86a17.4,17.4,0,0,0-.28,3.36,19.28,19.28,0,0,0,.28,3.36c0.38,1.55,6.23,1.86,6.23,1.86,5.79,0.2,10-.14,11.83,0a6.89,6.89,0,0,0,1,0l4.21-.36c0.73,0,1.32-1.31,1.32-1.25" style="fill:#642717"/><g style="clip-path:url(#clip-path-6)"><rect x="85.81" y="132.45" width="3.2" height="3.2" rx="1.03" ry="1.03" transform="translate(221.46 46.64) rotate(90)" style="fill:#fee246"/><rect x="85.81" y="141.48" width="3.2" height="3.2" rx="1.03" ry="1.03" transform="translate(230.49 55.67) rotate(90)" style="fill:#fee246"/></g><path d="M78.15,142.11V135l8.51,0.73a0.81,0.81,0,0,1,.74.81v4a0.81,0.81,0,0,1-.74.81Z" style="fill:#8b251b"/><path d="M81.82,143.24l-4.54-1.1a19.2,19.2,0,0,0,0-7.07l4.54-1.18A14.64,14.64,0,0,1,81.82,143.24Z" style="fill:#7dc9d0"/><g style="clip-path:url(#clip-path-7)"><rect x="77.81" y="133.35" width="3.5" height="11.46" transform="translate(237.43 111.71) rotate(109.94)" style="fill:url(#linear-gradient-4)"/></g><path d="M68.55,133.89l1.82,1.1v7.07l-1.82,1.18A24,24,0,0,1,68.55,133.89Z" style="fill:#7dc9d0"/><path d="M70.37,142.05a17.33,17.33,0,0,1,0-7,24.43,24.43,0,0,1,6.91,0,17.74,17.74,0,0,1,0,7A23.44,23.44,0,0,1,70.37,142.05Z" style="fill:#a43223"/></g><use width="23.68" height="23.68" transform="translate(225.43 116.01) rotate(90)" xlink:href="#light.green"/><use width="23.68" height="23.68" transform="translate(190.29 195.21) rotate(130.41)" xlink:href="#light.orange"/><g id="strokes" style="opacity:0"><path id="_1" data-name="1" d="M213.59,75.9V306.22a18.18,18.18,0,0,1-18.18,18.18H148" style="fill:none;stroke:#231f20;stroke-linecap:round;stroke-miterlimit:10;stroke-width:33px"/><line id="_2" data-name="2" x1="71.74" y1="148.6" x2="312.5" y2="148.6" style="fill:none;stroke:#231f20;stroke-linecap:round;stroke-miterlimit:10;stroke-width:33px"/><path id="_3" data-name="3" d="M208,148.6s-47.77,84-140.76,137.49" style="fill:none;stroke:#231f20;stroke-linecap:round;stroke-miterlimit:10;stroke-width:33px"/></g><g id="control"><circle cx="213.59" cy="77.02" r="18.6" style="fill:#37479d;opacity:0"/></g></svg>