<svg id="scene" xmlns="http://www.w3.org/2000/svg" xmlns:xlink="http://www.w3.org/1999/xlink" viewBox="0 0 300.37 301.15"><defs><clipPath id="clip-path"><circle cx="3.07" cy="1.63" r="1.63" transform="translate(-0.25 2.64) rotate(-45)" style="fill:#603913"/></clipPath><linearGradient id="linear-gradient" x1="22.67" y1="27.35" x2="51.98" y2="27.35" gradientUnits="userSpaceOnUse"><stop offset="0" stop-color="#fff"/><stop offset="1" stop-color="#fff" stop-opacity="0"/></linearGradient><radialGradient id="radial-gradient" cx="242.38" cy="278.5" r="3.76" gradientTransform="matrix(1, 0, 0, -1, -35.12, 350.09)" gradientUnits="userSpaceOnUse"><stop offset="0" stop-color="#010101" stop-opacity="0.2"/><stop offset="1" stop-color="#010101" stop-opacity="0"/></radialGradient><clipPath id="clip-path-2" transform="translate(-35.12 -51.91)"><path d="M210.28,84.27c0-.06.59,1.25,1.32,1.25l3.93,0.34a10.42,10.42,0,0,0,1.52,0c2-.12,5.52,0,11.58,0,0,0,5.71-.33,6.23-1.86a17.4,17.4,0,0,0,.28-3.36,19.28,19.28,0,0,0-.28-3.36c-0.38-1.55-6.23-1.86-6.23-1.86-5.79-.2-10,0.14-11.83,0a6.89,6.89,0,0,0-1,0l-4.21.36c-0.73,0-1.32,1.31-1.32,1.25" style="fill:#17643b"/></clipPath><clipPath id="clip-path-3" transform="translate(-35.12 -51.91)"><path d="M215.31,76l4.54,1.1a19.2,19.2,0,0,0,0,7.07l-4.54,1.18A14.64,14.64,0,0,1,215.31,76Z" style="fill:#7dc9d0"/></clipPath><linearGradient id="linear-gradient-2" x1="156.98" y1="105.72" x2="165.66" y2="106.42" gradientTransform="translate(54.47 -26.03)" xlink:href="#linear-gradient"/><clipPath id="clip-path-4" transform="translate(-35.12 -51.91)"><path d="M86.85,135c0,0.06-.59-1.25-1.32-1.25l-3.93-.34a10.42,10.42,0,0,0-1.52,0c-2,.12-5.52,0-11.58,0,0,0-5.71.33-6.23,1.86a17.4,17.4,0,0,0-.28,3.36,19.28,19.28,0,0,0,.28,3.36c0.38,1.55,6.23,1.86,6.23,1.86,5.79,0.2,10-.14,11.83,0a6.89,6.89,0,0,0,1,0l4.21-.36c0.73,0,1.32-1.31,1.32-1.25" style="fill:#642717"/></clipPath><clipPath id="clip-path-5" transform="translate(-35.12 -51.91)"><path d="M81.82,143.24l-4.54-1.1a19.2,19.2,0,0,0,0-7.07l4.54-1.18A14.64,14.64,0,0,1,81.82,143.24Z" style="fill:#7dc9d0"/></clipPath><linearGradient id="linear-gradient-3" x1="238.96" y1="13.7" x2="247.63" y2="14.4" gradientTransform="translate(-165.53 124.88)" xlink:href="#linear-gradient"/><clipPath id="clip-path-6" transform="translate(-35.12 -51.91)"><path d="M67.7,290.21c0-.06.59,1.25,1.31,1.25l3.93,0.34a10.42,10.42,0,0,0,1.52,0c2-.12,5.52.05,11.58,0.06,0,0,5.71-.32,6.23-1.85a17.4,17.4,0,0,0,.28-3.36,19.28,19.28,0,0,0-.28-3.36c-0.38-1.56-6.22-1.86-6.22-1.86-5.79-.21-10,0.13-11.83,0a6.89,6.89,0,0,0-1,0l-4.21.36c-0.73,0-1.32,1.3-1.32,1.25" style="fill:#173d64"/></clipPath><clipPath id="clip-path-7" transform="translate(-35.12 -51.91)"><path d="M72.74,282l4.54,1.1a19.2,19.2,0,0,0,0,7.07l-4.54,1.18A14.64,14.64,0,0,1,72.74,282Z" style="fill:#7dc9d0"/></clipPath><linearGradient id="linear-gradient-4" x1="376.72" y1="-36.7" x2="385.4" y2="-36" gradientTransform="translate(-307.84 322.33)" xlink:href="#linear-gradient"/><symbol id="human.shoe" data-name="human.shoe" viewBox="0 0 1.69 1.77"><g id="shoes"><path d="M0.49,0.49A1.53,1.53,0,0,1,1.4,0c0.4,0,.33.41,0.16,0.93a2.12,2.12,0,0,1-.28.35,1,1,0,0,1-1.18.4A1,1,0,0,1,.49.49Z" style="fill:#231f20"/></g></symbol><symbol id="human.shoulders" data-name="human.shoulders" viewBox="0 0 4.77 4.77"><path id="shoulders" d="M1.59,0.27l2.9,2.9a0.94,0.94,0,0,1,0,1.32h0a0.94,0.94,0,0,1-1.32,0l-2.9-2.9A0.94,0.94,0,0,1,.27.27h0A0.94,0.94,0,0,1,1.59.27Z" style="fill:#add5de"/></symbol><symbol id="human.head" data-name="human.head" viewBox="0 0 4.7 4.7"><circle cx="3.07" cy="1.63" r="1.63" transform="translate(-0.25 2.64) rotate(-45)" style="fill:#603913"/><g style="clip-path:url(#clip-path)"><circle cx="1.63" cy="3.07" r="1.63" transform="translate(-1.69 2.05) rotate(-45)" style="fill:#c49a6c"/></g></symbol><symbol id="whiteOut" data-name="whiteOut" viewBox="0 0 51.98 54.7"><rect x="22.67" width="29.31" height="54.7" style="fill:url(#linear-gradient)"/><rect y="0.66" width="22.67" height="54.05" style="fill:#fff"/></symbol><symbol id="light.red" data-name="light.red" viewBox="0 0 23.68 23.68"><circle cx="11.84" cy="11.84" r="11.84" style="fill:#f15b6c;opacity:0.2"/><circle cx="9.59" cy="11.84" r="1.75" style="fill:#ed1c24;stroke:#f15b6c;stroke-miterlimit:10;stroke-width:0.5px"/><rect x="9.59" y="9.09" width="3.5" height="5.5" style="fill:#231f20"/></symbol><symbol id="light.green" data-name="light.green" viewBox="0 0 23.68 23.68"><circle cx="11.84" cy="11.84" r="11.84" style="fill:#c6db5e;opacity:0.2"/><circle cx="9.09" cy="11.84" r="1.75" style="fill:#abd037;stroke:#e1e561;stroke-miterlimit:10;stroke-width:0.5px"/><rect x="9.09" y="9.09" width="3.5" height="5.5" style="fill:#231f20"/></symbol><symbol id="light.orange" data-name="light.orange" viewBox="0 0 23.68 23.68"><circle cx="11.84" cy="11.84" r="11.84" style="fill:#f1925c;opacity:0.2"/><circle cx="9.59" cy="11.84" r="1.75" style="fill:#ed9322;stroke:#f1d35a;stroke-miterlimit:10;stroke-width:0.5px"/><rect x="9.59" y="9.09" width="3.5" height="5.5" style="fill:#231f20"/></symbol></defs><title>オ</title><g id="streets"><path d="M213.59,75.9V306.22a18.18,18.18,0,0,1-18.18,18.18H148" transform="translate(-35.12 -51.91)" style="fill:none;stroke:#8f8785;stroke-miterlimit:10;stroke-width:37px"/><line x1="36.62" y1="96.69" x2="277.38" y2="96.69" style="fill:none;stroke:#8f8785;stroke-miterlimit:10;stroke-width:37px"/><path d="M208,148.6s-47.77,84-140.76,137.49" transform="translate(-35.12 -51.91)" style="fill:none;stroke:#8f8785;stroke-miterlimit:10;stroke-width:37px"/><path d="M208,148.6s-47.77,84-140.76,137.49" transform="translate(-35.12 -51.91)" style="fill:none;stroke:#bec0c2;stroke-miterlimit:10;stroke-width:33px"/><line x1="36.62" y1="96.69" x2="277.38" y2="96.69" style="fill:none;stroke:#bec0c2;stroke-miterlimit:10;stroke-width:33px"/><path d="M213.59,74.9V306.22a18.18,18.18,0,0,1-18.18,18.18H148" transform="translate(-35.12 -51.91)" style="fill:none;stroke:#bec0c2;stroke-miterlimit:10;stroke-width:33px"/><path id="_---" data-name="---" d="M208,154.1c-22.75,32.54-78.23,96-140.76,132" transform="translate(-35.12 -51.91)" style="fill:none;stroke:#fff;stroke-miterlimit:10;stroke-width:2px;stroke-dasharray:7"/><path id="_----2" data-name="---" d="M213.59,74.9V306.22a18.18,18.18,0,0,1-18.18,18.18H148" transform="translate(-35.12 -51.91)" style="fill:none;stroke:#fff;stroke-miterlimit:10;stroke-width:2px;stroke-dasharray:7"/><g id="_----3" data-name="---"><line x1="36.62" y1="96.69" x2="40.12" y2="96.69" style="fill:none;stroke:#fff;stroke-miterlimit:10;stroke-width:2px"/><line x1="47.2" y1="96.69" x2="270.34" y2="96.69" style="fill:none;stroke:#fff;stroke-miterlimit:10;stroke-width:2px;stroke-dasharray:7.083767414093018,7.083767414093018"/><line x1="273.88" y1="96.69" x2="277.38" y2="96.69" style="fill:none;stroke:#fff;stroke-miterlimit:10;stroke-width:2px"/></g></g><g id="human"><circle id="floor_shadow" cx="207.28" cy="71.59" r="3.8" style="fill:url(#radial-gradient)"/><g id="f1"><path id="shadow" d="M253.84,114.79a4.45,4.45,0,0,1-.76.54l0.34,2.81-3.16,2.28-1.21,0-5.52,4.27-2.15-1.72,4.7-5.13v-1.21l3.39-3.05,2.56,0.73a4.31,4.31,0,0,1,.69-0.75c0.86-.75,1.19-0.47,1.5-0.12S254.69,114,253.84,114.79Z" transform="translate(-35.12 -51.91)" style="fill:#231f20;opacity:0.1"/><use width="1.69" height="1.77" transform="translate(204.71 70.71)" xlink:href="#human.shoe"/><use width="1.69" height="1.77" transform="matrix(-0.14, -0.99, -0.99, 0.14, 208.35, 73.95)" xlink:href="#human.shoe"/><use width="4.77" height="4.77" transform="translate(205.05 69.15)" xlink:href="#human.shoulders"/><use width="4.69" height="4.69" transform="translate(204.2 69.96)" xlink:href="#human.head"/></g><g id="f2" display="none"><path d="M253.84,114.79a4.45,4.45,0,0,1-.76.54l-0.23,3-3.16,2.28-1.21,0-6.14,4.59-0.69-3.11,5.21-4.53v-1.21l3.39-3.05,1.79,1a4.31,4.31,0,0,1,.69-0.75c0.86-.75,1.19-0.47,1.5-0.12S254.69,114,253.84,114.79Z" transform="translate(-35.12 -51.91)" style="fill:#231f20;opacity:0.1"/><use width="1.69" height="1.77" transform="matrix(1, -0.01, 0.01, 1, 205.13, 70.17)" xlink:href="#human.shoe"/><use width="1.69" height="1.77" transform="matrix(-0.31, -0.95, -0.95, 0.31, 208.05, 74.44)" xlink:href="#human.shoe"/><use width="4.77" height="4.77" transform="translate(205.89 68.58) rotate(17.5)" xlink:href="#human.shoulders"/><use width="4.69" height="4.69" transform="translate(204.21 69.99)" xlink:href="#human.head"/></g><g id="f3" display="none"><path id="shadow-2" data-name="shadow" d="M253.84,114.79a4.45,4.45,0,0,1-.76.54l0.34,2.81-3.16,2.28-1.21,0-5.52,4.27-2.15-1.72,4.7-5.13v-1.21l3.39-3.05,2.56,0.73a4.31,4.31,0,0,1,.69-0.75c0.86-.75,1.19-0.47,1.5-0.12S254.69,114,253.84,114.79Z" transform="translate(-35.12 -51.91)" style="fill:#231f20;opacity:0.1"/><use width="1.69" height="1.77" transform="translate(204.71 70.71)" xlink:href="#human.shoe"/><use width="1.69" height="1.77" transform="matrix(-0.14, -0.99, -0.99, 0.14, 208.35, 73.95)" xlink:href="#human.shoe"/><use width="4.77" height="4.77" transform="translate(205.05 69.15)" xlink:href="#human.shoulders"/><use width="4.69" height="4.69" transform="translate(204.2 69.96)" xlink:href="#human.head"/></g><g id="f4" display="none"><path id="shadow-3" data-name="shadow" d="M253.84,114.79a4.45,4.45,0,0,1-.76.54l0.92,1.1-2.75,2.75-1.21,0-7,5.35-1.69-1.94,4.56-4.31V117l3.39-3.05,2.77,0.28a4.31,4.31,0,0,1,.69-0.75c0.86-.75,1.19-0.47,1.5-0.12S254.69,114,253.84,114.79Z" transform="translate(-35.12 -51.91)" style="fill:#231f20;opacity:0.1"/><use width="1.69" height="1.77" transform="translate(204.39 70.98) rotate(6.81)" xlink:href="#human.shoe"/><use width="1.69" height="1.77" transform="matrix(0, -1, -1, 0, 209.45, 74.11)" xlink:href="#human.shoe"/><use width="4.77" height="4.77" transform="translate(204.71 69.65) rotate(-10.38)" xlink:href="#human.shoulders"/><use width="4.69" height="4.69" transform="translate(204.25 69.99)" xlink:href="#human.head"/></g></g><g id="deco"><use width="51.98" height="54.7" transform="translate(12.19 69.34)" xlink:href="#whiteOut"/><use width="51.98" height="54.7" transform="translate(205.82 0) rotate(90)" xlink:href="#whiteOut"/><use width="51.98" height="54.7" transform="translate(300.37 123.37) rotate(180)" xlink:href="#whiteOut"/><use width="51.98" height="54.7" transform="matrix(0.88, -0.47, 0.47, 0.88, -0.31, 220.37)" xlink:href="#whiteOut"/><use width="51.98" height="54.7" transform="translate(90.74 245.49) rotate(1.07)" xlink:href="#whiteOut"/></g><g id="cars"><g id="car1"><path d="M210.28,84.27c0-.06.59,1.25,1.32,1.25l3.93,0.34a10.42,10.42,0,0,0,1.52,0c2-.12,5.52,0,11.58,0,0,0,5.71-.33,6.23-1.86a17.4,17.4,0,0,0,.28-3.36,19.28,19.28,0,0,0-.28-3.36c-0.38-1.55-6.23-1.86-6.23-1.86-5.79-.2-10,0.14-11.83,0a6.89,6.89,0,0,0-1,0l-4.21.36c-0.73,0-1.32,1.31-1.32,1.25" transform="translate(-35.12 -51.91)" style="fill:#17643b"/><g style="clip-path:url(#clip-path-2)"><rect x="208.12" y="83.62" width="3.2" height="3.2" rx="1.03" ry="1.03" transform="translate(89.39 243.03) rotate(-90)" style="fill:#fee246"/><rect x="208.12" y="74.59" width="3.2" height="3.2" rx="1.03" ry="1.03" transform="translate(98.42 234) rotate(-90)" style="fill:#fee246"/></g><path d="M219,77.16v7.09l-8.51-.73a0.81,0.81,0,0,1-.74-0.81v-4a0.81,0.81,0,0,1,.74-0.81Z" transform="translate(-35.12 -51.91)" style="fill:#228a51"/><path d="M215.31,76l4.54,1.1a19.2,19.2,0,0,0,0,7.07l-4.54,1.18A14.64,14.64,0,0,1,215.31,76Z" transform="translate(-35.12 -51.91)" style="fill:#7dc9d0"/><g style="clip-path:url(#clip-path-3)"><rect x="215.83" y="74.46" width="3.5" height="11.46" transform="translate(32.89 205.48) rotate(-70.06)" style="fill:url(#linear-gradient-2)"/></g><path d="M228.59,85.38l-1.82-1.1V77.21L228.59,76A24,24,0,0,1,228.59,85.38Z" transform="translate(-35.12 -51.91)" style="fill:#7dc9d0"/><path d="M226.76,77.21a17.33,17.33,0,0,1,0,7,24.43,24.43,0,0,1-6.91,0,17.74,17.74,0,0,1,0-7A23.44,23.44,0,0,1,226.76,77.21Z" transform="translate(-35.12 -51.91)" style="fill:#1d854f"/></g><g id="car2"><path d="M86.85,135c0,0.06-.59-1.25-1.32-1.25l-3.93-.34a10.42,10.42,0,0,0-1.52,0c-2,.12-5.52,0-11.58,0,0,0-5.71.33-6.23,1.86a17.4,17.4,0,0,0-.28,3.36,19.28,19.28,0,0,0,.28,3.36c0.38,1.55,6.23,1.86,6.23,1.86,5.79,0.2,10-.14,11.83,0a6.89,6.89,0,0,0,1,0l4.21-.36c0.73,0,1.32-1.31,1.32-1.25" transform="translate(-35.12 -51.91)" style="fill:#642717"/><g style="clip-path:url(#clip-path-4)"><rect x="85.81" y="132.45" width="3.2" height="3.2" rx="1.03" ry="1.03" transform="translate(186.34 -5.27) rotate(90)" style="fill:#fee246"/><rect x="85.81" y="141.48" width="3.2" height="3.2" rx="1.03" ry="1.03" transform="translate(195.37 3.76) rotate(90)" style="fill:#fee246"/></g><path d="M78.15,142.11V135l8.51,0.73a0.81,0.81,0,0,1,.74.81v4a0.81,0.81,0,0,1-.74.81Z" transform="translate(-35.12 -51.91)" style="fill:#8b251b"/><path d="M81.82,143.24l-4.54-1.1a19.2,19.2,0,0,0,0-7.07l4.54-1.18A14.64,14.64,0,0,1,81.82,143.24Z" transform="translate(-35.12 -51.91)" style="fill:#7dc9d0"/><g style="clip-path:url(#clip-path-5)"><rect x="77.81" y="133.35" width="3.5" height="11.46" transform="translate(202.31 59.8) rotate(109.94)" style="fill:url(#linear-gradient-3)"/></g><path d="M68.55,133.89l1.82,1.1v7.07l-1.82,1.18A24,24,0,0,1,68.55,133.89Z" transform="translate(-35.12 -51.91)" style="fill:#7dc9d0"/><path d="M70.37,142.05a17.33,17.33,0,0,1,0-7,24.43,24.43,0,0,1,6.91,0,17.74,17.74,0,0,1,0,7A23.44,23.44,0,0,1,70.37,142.05Z" transform="translate(-35.12 -51.91)" style="fill:#a43223"/></g><g id="car3"><path d="M67.7,290.21c0-.06.59,1.25,1.31,1.25l3.93,0.34a10.42,10.42,0,0,0,1.52,0c2-.12,5.52.05,11.58,0.06,0,0,5.71-.32,6.23-1.85a17.4,17.4,0,0,0,.28-3.36,19.28,19.28,0,0,0-.28-3.36c-0.38-1.56-6.22-1.86-6.22-1.86-5.79-.21-10,0.13-11.83,0a6.89,6.89,0,0,0-1,0l-4.21.36c-0.73,0-1.32,1.3-1.32,1.25" transform="translate(-35.12 -51.91)" style="fill:#173d64"/><g style="clip-path:url(#clip-path-6)"><rect x="65.54" y="289.55" width="3.2" height="3.2" rx="1.03" ry="1.03" transform="translate(-259.19 306.1) rotate(-89.94)" style="fill:#fee246"/><rect x="65.55" y="280.52" width="3.2" height="3.2" rx="1.03" ry="1.03" transform="translate(-250.16 297.09) rotate(-89.94)" style="fill:#fee246"/></g><path d="M76.41,283.1v7.09l-8.51-.74a0.81,0.81,0,0,1-.74-0.81v-4a0.81,0.81,0,0,1,.74-0.81Z" transform="translate(-35.12 -51.91)" style="fill:#1b5b8c"/><path d="M72.74,282l4.54,1.1a19.2,19.2,0,0,0,0,7.07l-4.54,1.18A14.64,14.64,0,0,1,72.74,282Z" transform="translate(-35.12 -51.91)" style="fill:#7dc9d0"/><g style="clip-path:url(#clip-path-7)"><rect x="73.25" y="280.4" width="3.5" height="11.46" transform="translate(-254.65 206.88) rotate(-70.01)" style="fill:url(#linear-gradient-4)"/></g><path d="M86,291.33l-1.82-1.1v-7.07L86,282A24,24,0,0,1,86,291.33Z" transform="translate(-35.12 -51.91)" style="fill:#7dc9d0"/><path d="M84.19,283.16a17.33,17.33,0,0,1,0,7,24.43,24.43,0,0,1-6.91,0,17.74,17.74,0,0,1,0-7A23.44,23.44,0,0,1,84.19,283.16Z" transform="translate(-35.12 -51.91)" style="fill:#2874a2"/></g></g><g id="traffic_lights" data-name="traffic lights"><circle cx="187.46" cy="110.25" r="2.72" transform="matrix(0.63, -0.78, 0.78, 0.63, -51.19, 134.96)" style="fill:#6d6e71"/><polyline points="178.91 74.94 152.28 74.94 152.34 58.34" style="fill:none;stroke:#231f20;stroke-linecap:round;stroke-linejoin:round"/><circle id="shadow-4" data-name="shadow" cx="92.65" cy="125.87" r="2.72" style="fill:#6d6e71"/><line x1="92.65" y1="99.44" x2="92.65" y2="125.87" style="fill:none;stroke:#231f20;stroke-linecap:round;stroke-linejoin:round"/><circle cx="151.48" cy="177.08" r="2.72" transform="translate(-116.66 122.57) rotate(-48.82)" style="fill:#6d6e71"/><line x1="136.26" y1="142.58" x2="116.36" y2="125.17" style="fill:none;stroke:#231f20;stroke-linecap:round;stroke-linejoin:round"/><use id="light-red" width="23.68" height="23.68" transform="translate(81.3 84.85)" xlink:href="#light.red"/><use id="light-green" width="23.68" height="23.68" transform="translate(190.31 64.1) rotate(90)" xlink:href="#light.green"/><use id="light-orange" width="23.68" height="23.68" transform="translate(155.17 143.3) rotate(130.41)" xlink:href="#light.orange"/></g><g id="strokes" style="opacity:0"><path id="_1" data-name="1" d="M213.59,75.9V306.22a18.18,18.18,0,0,1-18.18,18.18H148" transform="translate(-35.12 -51.91)" style="fill:none;stroke:#231f20;stroke-linecap:round;stroke-miterlimit:10;stroke-width:33px"/><line id="_2" data-name="2" x1="36.62" y1="96.69" x2="277.38" y2="96.69" style="fill:none;stroke:#231f20;stroke-linecap:round;stroke-miterlimit:10;stroke-width:33px"/><path id="_3" data-name="3" d="M208,148.6s-47.77,84-140.76,137.49" transform="translate(-35.12 -51.91)" style="fill:none;stroke:#231f20;stroke-linecap:round;stroke-miterlimit:10;stroke-width:33px"/></g><g id="control"><circle cx="178.47" cy="25.11" r="18.6" style="fill:#37479d;opacity:0"/></g><g id="UI"><line id="carPath3" x1="38.7" y1="86.68" x2="277.38" y2="86.68" style="fill:none;stroke:#ec4524;stroke-miterlimit:10"/><path id="carPath2" d="M79.18,287.36S128.43,265,182,199.09c34-41.86,58.75-54.8,69.9-58.77A30,30,0,0,1,262,138.6h19" transform="translate(-35.12 -51.91)" style="fill:none;stroke:#4154a5;stroke-miterlimit:10"/><path id="carPath1" d="M222.44,79.79V307.68a24.76,24.76,0,0,1-24.76,24.76H148" transform="translate(-35.12 -51.91)" style="fill:none;stroke:#68c07e;stroke-miterlimit:10"/><g id="phonetics"><path d="M239.32,179.65h-57a11.14,11.14,0,0,1-11.1-11.1v-37.7a11.14,11.14,0,0,1,11.1-11.1h56.9a11.14,11.14,0,0,1,11.1,11.1v37.7A10.93,10.93,0,0,1,239.32,179.65Z" transform="translate(-35.12 -51.91)" style="fill:#fff;stroke:#746968;stroke-miterlimit:10;stroke-width:3px"/><text transform="translate(149.25 108.92)" style="isolation:isolate;font-size:39.32590103149414px;fill:#010101;font-family:Myriad Pro">[ r ]</text></g></g></svg>