<?xml version="1.0" encoding="utf-8"?>
<!-- Generator: Adobe Illustrator 19.2.0, SVG Export Plug-In . SVG Version: 6.00 Build 0)  -->
<!DOCTYPE svg PUBLIC "-//W3C//DTD SVG 1.1//EN" "http://www.w3.org/Graphics/SVG/1.1/DTD/svg11.dtd">
<svg version="1.1" id="scene_1_" xmlns="http://www.w3.org/2000/svg" xmlns:xlink="http://www.w3.org/1999/xlink" x="0px" y="0px"
	 viewBox="0 0 180.1 287.3" style="enable-background:new 0 0 180.1 287.3;" xml:space="preserve">
<style type="text/css">
	.st0{opacity:0.1;fill:url(#SVGID_1_);enable-background:new    ;}
	.st1{display:none;}
	.st2{display:inline;}
	.st3{fill:none;stroke:#996051;stroke-linecap:round;stroke-miterlimit:10;}
	.st4{fill:none;stroke:#735249;stroke-linecap:round;stroke-miterlimit:10;}
	.st5{fill:none;stroke:#BA9387;stroke-linecap:round;stroke-miterlimit:10;}
	.st6{opacity:0.8;}
	.st7{fill:none;stroke:#7D4E41;stroke-linecap:round;stroke-miterlimit:10;}
	.st8{fill:none;stroke:#5E423B;stroke-linecap:round;stroke-miterlimit:10;}
	.st9{fill:none;}
	.st10{opacity:0.4;}
	.st11{display:none;fill:none;stroke:#010101;stroke-miterlimit:10;}
	.st12{fill:#A66B5F;stroke:#473C3C;stroke-width:2;stroke-miterlimit:10;}
	.st13{fill:#423836;}
	.st14{display:inline;fill:#423836;}
	.st15{fill:#FFFFFF;}
	.st16{display:none;fill:#423836;}
	.st17{display:none;fill:none;stroke:#EB5300;stroke-miterlimit:10;}
	.st18{fill:#FFFFFF;stroke:#736868;stroke-width:3;stroke-miterlimit:10;}
	.st19{font-family:'MyriadPro-Regular';}
	.st20{font-size:39.3259px;}
	.st21{opacity:0.7;}
	.st22{fill:#CF3228;}
	.st23{font-size:9px;}
	.st24{fill:none;stroke:#CF3228;stroke-width:3;stroke-linecap:round;stroke-miterlimit:10;}
	.st25{fill:#ADD136;}
	.st26{fill:#CF3228;stroke:#231F20;stroke-miterlimit:10;}
	.st27{opacity:0;}
	.st28{fill:none;stroke:#010101;stroke-width:30;stroke-linecap:round;stroke-miterlimit:10;}
	.st29{fill:#F79159;}
</style>
<symbol  id="fur-caressed" viewBox="-19.6 -25.3 39.1 50.6">
	
		<radialGradient id="SVGID_1_" cx="-7512.0176" cy="-9562.7852" r="22.4928" gradientTransform="matrix(0.98 -0.1991 0.2233 1.0993 9499.4521 9026.6455)" gradientUnits="userSpaceOnUse">
		<stop  offset="0" style="stop-color:#3B2F29;stop-opacity:0.6"/>
		<stop  offset="1" style="stop-color:#2B201C;stop-opacity:0"/>
	</radialGradient>
	<path class="st0" d="M18.9-3C16-17.2,5.2-27-5.2-25S-21.7-9.6-18.8,4.6c0.2,1,0.4,2,0.7,2.9c0.3,0.9,0.6,1.9,0.9,2.7
		c0.2,1,0.5,1.9,0.9,2.8c0.4,0.9,0.8,1.8,1.3,2.7c1.5,2.4,3.6,4.5,6.1,6.2c0.8,0.6,1.7,1.1,2.6,1.5c10.3,5.2,22.3-0.8,25-11
		c0.1-0.7,0.2-1.4,0.3-2.1c0.2-1,0.4-2.1,0.5-3.2C19.7,4.1,19.6,0.6,18.9-3z"/>
	<g class="st1">
		<g class="st2">
			<g>
				<path class="st3" d="M-3-13.4c-0.6,0.1-1.1,0.4-1.7,0.1C-5.2-13.5-5.5-13.1-6-13"/>
			</g>
			<g>
				<path class="st3" d="M-8.8-12.5c-0.2,0.1-0.3,0.1-0.5,0.2"/>
			</g>
		</g>
		<g class="st2">
			<g>
				<path class="st4" d="M2.8-8L2.8-8C2.5-8,2.2-8,1.9-7.9S1.2-7.6,0.8-7.5"/>
			</g>
			<g>
				<path class="st4" d="M10.5-9C10.2-9,10-9.2,9.7-9.3S9.2-9.2,8.9-9.1C8.3-8.8,7.8-8.8,7.2-8.8S6-8.6,5.5-8.5
					c-0.1,0-0.2,0.1-0.3,0.1"/>
			</g>
			<g>
				<path class="st4" d="M-3.3-7.1c0.1,0,0.2,0,0.3,0"/>
			</g>
		</g>
		<g class="st2">
			<g>
				<path class="st5" d="M-8.4,0.1c0.3,0,0.5-0.4,0.9-0.5c0.3,0,0.6,0.2,0.9,0.2c0.1,0,0.3,0,0.4,0"/>
			</g>
			<g>
				<path class="st5" d="M4.4-2C4.1-2,3.8-1.8,3.5-1.7C3-1.6,2.4-1.7,1.8-1.9C0.6-2-0.5-1.5-1.5-1.1c-0.4,0.2-0.9,0-1.3,0"/>
			</g>
		</g>
		<g class="st2">
			<g>
				<path class="st3" d="M4.7-5.1c-0.3,0-0.6,0-0.9,0C3.5-5,3.2-4.7,2.9-4.7S2.4-5,2.1-5S1.5-4.7,1.2-4.7C0.7-4.5,0.1-4.6-0.5-4.5
					s-1.1,0.4-1.7,0.4c-1.1,0-2.5-0.3-3.5,0.3c-0.1,0-0.2,0-0.3,0"/>
			</g>
		</g>
		<g class="st2">
			<g>
				<path class="st4" d="M9,0.6c-0.1,0-0.2-0.1-0.3-0.1C7.5,0.1,6.4,1.1,5.3,1.1c-0.6,0-1.1,0.4-1.7,0.3c-0.1,0-0.2,0-0.3,0"/>
			</g>
		</g>
		<g class="st2">
			<g>
				<path class="st4" d="M7,4C6.4,4,5.8,4.1,5.1,4.1C4.5,4.1,4,4.6,3.3,4.4c-0.2,0-0.5-0.1-0.8,0.1C2.4,4.6,2.4,4.6,2.3,4.7"/>
			</g>
			<g>
				<path class="st4" d="M0.3,4.7c-0.1,0-0.2,0-0.3,0c-0.6,0.2-1.1,0.4-1.7,0.5c-0.1,0-0.3,0-0.4,0"/>
			</g>
		</g>
		<g class="st2">
			<g>
				<path class="st4" d="M6.1,7.3C5.8,7.4,5.5,7.5,5.2,7.5S4.6,7.4,4.3,7.4S3.8,7.7,3.6,7.8C3.3,7.9,3,7.9,2.7,8
					C2.4,8,2.1,8,1.8,7.9C1.4,7.8,1.2,8,0.9,8.2c-0.3,0.2-0.5,0.1-0.8,0c-0.3-0.1-0.6-0.1-0.9,0c-0.5,0.1-1.1,0.2-1.7,0.3
					c-0.3,0-0.6,0-0.8,0.2c-0.3,0.2-0.5,0.4-0.8,0.4c-0.7,0-1.4,0.2-2.1,0.3"/>
			</g>
		</g>
		<g class="st2">
			<g>
				<path class="st5" d="M12.9,9.5c-0.3,0-0.5,0.2-0.8,0.3c-0.5,0.1-1.1,0.1-1.6,0.1c-0.3,0-0.6,0-0.9,0.1"/>
			</g>
			<g>
				<path class="st5" d="M6.5,10.6c-1,0-2,0.2-2.9,0.3C3.1,11,2.5,11.2,2,11.3c-0.2,0-0.3,0-0.5,0"/>
			</g>
		</g>
		<g class="st2">
			<g>
				<path class="st4" d="M-3,15c-0.5,0.2-1.1,0.3-1.6,0.4c-0.2,0-0.3,0-0.5,0"/>
			</g>
			<g>
				<path class="st4" d="M5.6,14c-0.6,0.1-1.2,0.1-1.7,0.1c-0.7,0-1.2-0.1-1.8,0.2c-0.5,0.2-1.1,0.2-1.7,0.3c-0.1,0-0.2,0-0.3,0.1"
					/>
			</g>
		</g>
		<g class="st2">
			<g>
				<path class="st3" d="M3.7,17.3c-0.6,0.1-1.2-0.3-1.8,0c-0.3,0.2-0.5,0.3-0.8,0.3s-0.6-0.2-0.9-0.1c-0.7,0.2-1.4,0.3-2,0.4"/>
			</g>
			<g>
				<path class="st3" d="M9.2,16.6c-0.7,0.1-1.3,0.2-2,0.3"/>
			</g>
		</g>
	</g>
	<g class="st6">
		<g>
			<g>
				<path class="st7" d="M-2.6-10c-1,0.2-2-1-3-0.8"/>
			</g>
			<g>
				<path class="st7" d="M-8.4-10.6c-0.2,0.1-0.3,0.1-0.5,0.2"/>
			</g>
		</g>
		<g>
			<g>
				<path class="st8" d="M3.4-3.9C2.2-3.8,2.5-3.7,1.5-3.2"/>
			</g>
			<g>
				<path class="st8" d="M10.9-6.8c-2-0.4-4,0.6-5.2,2.8"/>
			</g>
			<g>
				<path class="st8" d="M-2.4-3.1"/>
			</g>
		</g>
		<g>
			<g>
				<path class="st5" d="M-7.8,2.7C-7,3-7,3-5.5,2.9"/>
			</g>
			<g>
				<path class="st5" d="M5.1,1C2.9,2.8-0.1,1.8-2,2.3"/>
			</g>
		</g>
		<g>
			<g>
				<path class="st7" d="M5.3-2.2c-3.4,5-7.4,1-10.6,1.6"/>
			</g>
		</g>
		<g>
			<g>
				<path class="st8" d="M9.5,2.8c-0.8,0.5-1.7,0.7-2.6,1S5,4.2,4.1,4.6"/>
			</g>
		</g>
		<g>
			<g>
				<path class="st8" d="M7.7,6.8c-1.8,1-2.8,1-4.4,1.2"/>
			</g>
			<g>
				<path class="st8" d="M1.2,7.8C0.4,7.7-0.4,8.1-1.2,8"/>
			</g>
		</g>
		<g>
			<g>
				<path class="st8" d="M7.1,10.8C6.4,11,5.7,11.2,5,11.4c-3.1,1.4-7.1,1.4-10.6-0.1"/>
			</g>
		</g>
		<g>
			<g>
				<path class="st5" d="M13.4,11.8c-0.7,0.1-2.5,1-3.1,1.4"/>
			</g>
			<g>
				<path class="st5" d="M7.5,14.4c-1.6,1.4-2.6,2.4-4.9,0.4"/>
			</g>
		</g>
		<g>
			<g>
				<path class="st8" d="M-2.2,17c-0.8-0.1-1.5,0-2.3-0.1"/>
			</g>
			<g>
				<path class="st8" d="M6.6,17.4c-1.7,0.4-3.7,0.4-5.5-0.2"/>
			</g>
		</g>
		<g>
			<g>
				<path class="st7" d="M4.6,21.6c-1.7,1.2-3.7,0.2-5.6-1.8"/>
			</g>
			<g>
				<path class="st7" d="M10,19.5c0.9,3.3-1.1,2.3-3,2.3"/>
			</g>
		</g>
	</g>
</symbol>
<symbol  id="fur-flat" viewBox="-19.6 -26.1 39.1 52.2">
	<path class="st9" d="M18.9-3.8C16-18.1,5.2-27.9-5.2-25.8S-21.7-10.3-18.8,3.9s13.6,24,24,21.9S21.8,10.4,18.9-3.8z"/>
	<g class="st10">
		<g>
			<g>
				<path class="st7" d="M-2.5-12.3c-1,0.2-2,0.2-3,0.4"/>
			</g>
			<g>
				<path class="st7" d="M-8.3-11.6c-0.2,0.1-0.3,0.1-0.5,0.2"/>
			</g>
		</g>
		<g>
			<g>
				<path class="st8" d="M3.3-6.9c-0.7,0-1.3,0.2-2,0.4"/>
			</g>
			<g>
				<path class="st8" d="M11-7.8c-1.8,0-3.6,0.6-5.4,0.6"/>
			</g>
			<g>
				<path class="st8" d="M-2.8-6.1c0.1,0,0.2,0,0.3,0"/>
			</g>
		</g>
		<g>
			<g>
				<path class="st5" d="M-8,1.1c0.7,0,1.4-0.2,2.2-0.2"/>
			</g>
			<g>
				<path class="st5" d="M4.8-1C2.4-1-0.1,0-2.4,0"/>
			</g>
		</g>
		<g>
			<g>
				<path class="st7" d="M5.2-4.1C1.7-4.1-2-2.7-5.5-2.7"/>
			</g>
		</g>
		<g>
			<g>
				<path class="st8" d="M9.4,1.6c-1.9,0-3.7,0.9-5.7,0.9"/>
			</g>
		</g>
		<g>
			<g>
				<path class="st8" d="M7.4,5C5.8,5,4.1,5.7,2.7,5.7"/>
			</g>
			<g>
				<path class="st8" d="M0.7,5.7c-0.8,0-1.6,0.5-2.4,0.5"/>
			</g>
		</g>
		<g>
			<g>
				<path class="st8" d="M6.5,8.4c-4.1,0-8.3,1.3-12.3,1.9"/>
			</g>
		</g>
		<g>
			<g>
				<path class="st5" d="M13.3,10.4c-0.7,0-2.7,0.4-3.4,0.6"/>
			</g>
			<g>
				<path class="st5" d="M6.9,11.6c-1.7,0-3.3,0.7-5,0.7"/>
			</g>
		</g>
		<g>
			<g>
				<path class="st8" d="M-2.6,16c-0.7,0.1-1.4,0.3-2.1,0.3"/>
			</g>
			<g>
				<path class="st8" d="M6,14.9c-1.2,0.2-4.6-0.3-5.5,0.6"/>
			</g>
		</g>
		<g>
			<g>
				<path class="st7" d="M4.1,18.3c-1.8,0.3-3.6,0.3-5.5,0.6"/>
			</g>
			<g>
				<path class="st7" d="M9.6,17.5c-0.7,0.1-1.3,0.2-2,0.3"/>
			</g>
		</g>
	</g>
	<circle class="st11" cx="1.4" cy="4.2" r="14.9"/>
</symbol>
<g id="purrly">
	<g id="body">
		<path class="st12" d="M5.6,260.5L5.4,260c-0.1-0.3-0.3-0.7-0.5-1.1l-0.2-0.7l-0.1-0.5l-0.2-0.8l-0.2-0.8c-0.5-2.2-0.8-4.4-1-6.7
			c-0.4-4.7,0.5-10.6,0.5-17.9s0.3-16,0.8-26c0.2-5,0.5-10.3,0.8-15.8l0.3-4.2l0.1-2.2l0.1-2c0.1-1.5,0.1-2.8,0.2-4.1l0.1-4.2
			c0.3-11.8-0.7-24.7-0.9-38.4s-0.6-28-1.4-42.8L3.1,80.6c-0.3-3.7-0.5-7.5-0.9-11.2l-0.5-5.6C1.4,62,1.2,60.1,1,58.3l-0.7-6
			l-0.1-2.1c-0.1-0.7-0.1-1.4-0.1-2c0-1.3-0.1-2.7,0-4.2c0.1-6.4,1.5-12.7,4.1-18.6c3-6.7,7.9-12.4,14-16.5
			C23.6,5.4,29.5,3,35.7,1.7C40.8,0.7,46,0.1,51.2,0c9,0,18,0.6,26.9,1.9l3,0.4l1.7,0.2l1.9,0.3c2.4,0.4,4.6,0.9,6.9,1.4
			c4.5,1,8.8,2.2,13.1,3.6c8.6,2.8,16.9,6.3,24.8,10.5c8.2,4.3,15.8,9.5,22.7,15.6c3.5,3.1,6.8,6.6,9.9,10.2
			c3.1,3.7,5.8,7.7,8.2,11.9c4.7,8.3,7.8,17.5,9.1,27c0.6,4.5,0.9,9,0.7,13.5c0,1.1-0.1,2.2-0.1,3.2l-0.1,1.6v0.4v0.2l-0.1,0.7
			l-0.1,0.6l-0.1,1.2l-0.1,0.6l-0.2,1l-0.3,2l-0.2,1l-0.2,0.9c-1,4.5-2.5,8.9-4.4,13.1c-1.8,3.9-3.9,7.7-6.4,11.2
			c-4.4,6.2-9.6,11.8-15.4,16.6c-4.9,4-10.1,7.7-15.5,10.9c-8.3,4.8-17,9-26.1,12.4c-7.3,2.8-13,4.6-16.9,5.8l-6,1.8
			c-11.1,3.3-22.8-3.1-26.1-14.2s3.1-22.8,14.2-26.1l0,0l0.3-0.1l0.6-0.1L82,140c3.3-0.9,8.2-2.4,14.1-4.5c6.9-2.4,13.6-5.5,20-9
			c3.6-2,7-4.3,10.2-6.8c3.1-2.4,5.9-5.3,8.3-8.5c2.2-2.9,3.8-6.2,4.6-9.8l0.1-0.3v-0.2c0-0.1,0-0.3,0.1-0.4l0.1-0.2l0.1-0.6
			l0.2-1.2l0.1-0.6c0-0.2-0.1,0.9,0,0.4v-0.1V98l0.1-1c0.1-0.6,0.1-1.2,0.1-1.8c0.1-2.3,0-4.6-0.2-6.9c-0.5-4.6-2-9.1-4.2-13.2
			c-2.5-4.6-5.9-8.8-9.8-12.4c-8.4-7.8-20.4-14.4-33.4-18.9c-3.2-1.1-6.6-2.1-9.8-2.9c-1.6-0.4-3.3-0.8-4.9-1.1l-1.1-0.2l-1.3-0.2
			L72.7,39c-7-1.2-14.1-1.9-21.1-2.1c-2.8,0-5.7,0.2-8.4,0.7c-1.7,0.3-3.4,0.8-4.9,1.6c-0.6,0.3-1.1,0.8-1.4,1.4c-0.6,1.5-1,3-1,4.6
			c0,0.6,0,1.2,0,1.8v1v0.8l0.5,5.7c0.2,2,0.4,4.1,0.6,6.1l0.5,6c0.3,4,0.5,8,0.7,11.9l0.5,11.7c0.5,15.4,0.7,30.2,0.6,44.2
			s0.6,27.3,0.1,39.6l-0.2,4.8c-0.1,1.6-0.2,3.2-0.3,4.6l-0.2,2.3l-0.2,2.1l-0.3,4.1c-0.4,5.4-0.8,10.5-1.1,15.4
			c-0.6,9.6-1,18-1.2,24.8s-1.1,12-1,14.8c0.1,1.4,0.2,2.2,0.2,1.9l-0.1-0.4l-0.1-0.2l-0.2-0.4c-0.1-0.3-0.2-0.5-0.3-0.7
			s0-0.1,0-0.1v0.1v0.1v0.1l0.1,0.2c2.7,8.4-1.9,17.3-10.2,20.1C17.2,269.9,9.4,266.9,5.6,260.5z"/>
	</g>
	<g id="face">
		<g id="brow_right">
			<path d="M64.9,154.8l0.2-0.2c0.6-0.4,1.2-0.6,1.9-0.6c0.5,0,0.9,0.1,1.3,0.3c0.8,0.4,1.3,1.1,1.6,1.9c0.1,0.4,0.1,0.8,0.1,1.1
				V157c-0.1-0.3-0.1-0.5-0.3-0.8c-0.6-1.5-2.3-2.4-3.9-2c-0.3,0.1-0.5,0.1-0.8,0.3L64.9,154.8z"/>
		</g>
		<g id="brow_left">
			<path d="M77.9,160.3c0.1-0.1,0.2-0.2,0.3-0.3c0.6-0.5,1.5-0.8,2.3-0.8c0.3,0,0.6,0.1,0.8,0.1c0.3,0.1,0.6,0.2,0.8,0.3
				c1.3,0.7,2,2.2,1.8,3.6l-0.1,0.4v-0.4c0-0.3-0.1-0.7-0.1-1c-0.2-1-0.9-1.8-1.7-2.3c-0.2-0.1-0.5-0.2-0.7-0.3
				c-0.3-0.1-0.5-0.1-0.8-0.1c-0.5,0-0.9,0-1.4,0.2c-0.3,0.1-0.6,0.3-0.9,0.4L77.9,160.3z"/>
		</g>
		<g id="mouth">
			<path class="st13" d="M67,163.1c0.5,0.5,1,0.8,1.6,1c0.1,0,0.3,0.1,0.4,0.1s0.1,0,0.2-0.1c0.1,0,0.1,0,0.2-0.1
				c0.1,0,0.2-0.1,0.3-0.2c0.1-0.1,0.2-0.2,0.3-0.3l0.1-0.1h0.1h0.3c0.1,0,0.2,0.1,0.3,0.1c0.1,0.1,0.3,0.2,0.4,0.3
				c0.2,0.2,0.3,0.4,0.5,0.6c0.3,0.4,0.6,0.9,0.9,1.2c0.2,0.2,0.3,0.3,0.5,0.5s0.4,0.3,0.6,0.4c0.2,0.1,0.4,0.2,0.7,0.3
				c0.2,0.1,0.5,0.1,0.7,0.1c-0.2,0.1-0.5,0.1-0.8,0.1s-0.5,0-0.8-0.1s-0.5-0.2-0.7-0.4c-0.2-0.1-0.4-0.3-0.6-0.5
				c-0.4-0.4-0.7-0.8-1-1.2c-0.2-0.2-0.3-0.4-0.4-0.6c-0.1-0.1-0.1-0.1-0.2-0.2h-0.1h-0.1l0.2-0.1c-0.1,0.1-0.3,0.3-0.4,0.4
				c-0.2,0.1-0.3,0.2-0.5,0.3c-0.1,0-0.2,0.1-0.3,0.1c-0.1,0-0.2,0-0.3,0c-0.2,0-0.4-0.1-0.5-0.1c-0.3-0.1-0.6-0.3-0.9-0.6
				C67.4,163.8,67.2,163.5,67,163.1z"/>
		</g>
		<g id="mouth_mad" class="st1">
			<path class="st14" d="M69,166.2c0,0,0-0.1,0-0.3s0-0.5,0.1-0.9c0.1-0.2,0.1-0.4,0.2-0.6c0.1-0.2,0.3-0.4,0.5-0.5
				c0.3-0.1,0.6-0.1,0.8,0c0.2,0.1,0.5,0.2,0.7,0.4c0.4,0.3,0.7,0.7,0.9,1.2c0.2,0.4,0.3,0.8,0.4,1.2s0,0.7,0,0.9s-0.1,0.3-0.1,0.3
				s0-0.1,0-0.3s-0.1-0.5-0.2-0.8c-0.2-0.6-0.6-1.5-1.3-2c-0.2-0.1-0.3-0.2-0.5-0.3s-0.3-0.1-0.5-0.1c-0.3,0.1-0.5,0.5-0.7,0.8
				C69.1,165.7,69,166.2,69,166.2z"/>
		</g>
		<path id="nose" class="st13" d="M70.3,163.8c0,0-1.2-3.1,0.1-2.8S74.5,161.4,70.3,163.8z"/>
		<g id="eyes">
			<path class="st13" d="M83.7,163.7c-0.6,1.4-2.3,1.9-3.9,1.2c-1.5-0.7-2.4-2.4-1.9-4c0.6-1.4,2.3-1.9,3.9-1.2
				C83.3,160.4,84.2,162.1,83.7,163.7z"/>
			<ellipse transform="matrix(0.1938 -0.981 0.981 0.1938 -92.6463 211.2995)" class="st15" cx="82.2" cy="162" rx="0.9" ry="0.9"/>
			
				<ellipse transform="matrix(0.1938 -0.981 0.981 0.1938 -94.0536 208.5782)" class="st15" cx="79.9" cy="161.5" rx="0.5" ry="0.5"/>
			<path class="st13" d="M69.8,157c-0.3,1.1-1.8,1.5-3.2,1s-2.4-1.7-2-2.8s1.8-1.5,3.2-1S70.1,156,69.8,157z"/>
			<ellipse transform="matrix(0.1938 -0.981 0.981 0.1938 -97.9126 192.2612)" class="st15" cx="68" cy="155.7" rx="0.9" ry="0.9"/>
			
				<ellipse transform="matrix(0.1938 -0.981 0.981 0.1938 -98.5137 190.2642)" class="st15" cx="66.5" cy="155.1" rx="0.5" ry="0.4"/>
		</g>
		<path id="mouth_open" class="st16" d="M68.5,164.6c0,0,0.9,4.3,2.9,4.3s1.3-2.2,2.1-2l-2.9-2.9L68.5,164.6z"/>
		<g id="frown" class="st1">
			<g class="st2">
				<path class="st13" d="M75.7,158.6c0,0,0.1,0.1,0.3,0.2c0.2,0.1,0.6,0.3,1,0.3s0.9-0.1,1.4-0.3c0.2-0.1,0.5-0.2,0.8-0.3
					s0.6-0.2,0.8-0.3c2.3-0.7,4.5-1.4,4.5-1.4c0.5-0.2,1.1,0.1,1.3,0.7s-0.1,1.1-0.7,1.3c-0.1,0-0.1,0-0.2,0c0,0-2.3,0.2-4.7,0.4
					c-0.3,0-0.6,0.1-0.9,0.1s-0.5,0.1-0.8,0.1c-0.6,0.1-1.1,0.1-1.6,0s-0.8-0.3-1-0.5C75.8,158.8,75.7,158.6,75.7,158.6z"/>
			</g>
			<g class="st2">
				<path class="st13" d="M67,150.6C67,150.6,67,150.7,67,150.6c0,0.1,0,0.1,0,0.2c0,0.1,0.1,0.3,0.2,0.6c0.2,0.3,0.4,0.7,0.7,1.1
					c0.3,0.4,0.6,0.8,0.9,1.3s0.5,0.9,0.8,1.4c0.2,0.5,0.3,0.9,0.5,1.2s0.5,0.5,0.7,0.6s0.3,0.1,0.3,0.1s-0.1,0-0.4,0
					c-0.2,0-0.6-0.2-0.9-0.4c-0.3-0.3-0.6-0.7-0.8-1.1c-0.3-0.4-0.6-0.7-1-1.1c-0.4-0.3-0.7-0.7-1.1-1s-0.7-0.6-1-0.9
					c-0.3-0.3-0.6-0.7-0.7-1c-0.1-0.1-0.1-0.3-0.1-0.4c0-0.1,0-0.1,0-0.1c-0.2-0.5,0.1-1.1,0.7-1.3S66.9,149.9,67,150.6
					C67,150.5,67,150.5,67,150.6z"/>
			</g>
		</g>
	</g>
</g>
<g id="fur">
	
		<use xlink:href="#fur-flat"  width="39.1" height="52.2" x="-19.6" y="-26.1" transform="matrix(3.659514e-02 0.6666 -0.6666 3.659514e-02 18.0849 257.3995)" style="overflow:visible;"/>
	
		<use xlink:href="#fur-flat"  width="39.1" height="52.2" id="fur_row-5" x="-19.6" y="-26.1" transform="matrix(-0.182 0.6527 -0.6527 -0.182 18.2072 247.8199)" style="overflow:visible;"/>
	
		<use xlink:href="#fur-flat"  width="39.1" height="52.2" id="fur_row-8" x="-19.6" y="-26.1" transform="matrix(-0.2238 0.6396 -0.6396 -0.2238 18.6005 238.0193)" style="overflow:visible;"/>
	
		<use xlink:href="#fur-flat"  width="39.1" height="52.2" id="fur_row-11" x="-19.6" y="-26.1" transform="matrix(-0.232 0.6364 -0.6364 -0.232 19.105 228.1533)" style="overflow:visible;"/>
	
		<use xlink:href="#fur-flat"  width="39.1" height="52.2" id="fur_row-14" x="-19.6" y="-26.1" transform="matrix(-0.3019 0.6177 -0.6177 -0.3019 19.4457 218.3093)" style="overflow:visible;"/>
	
		<use xlink:href="#fur-flat"  width="39.1" height="52.2" id="fur_row-17" x="-19.6" y="-26.1" transform="matrix(-0.2989 0.6278 -0.6278 -0.2989 19.796 208.3611)" style="overflow:visible;"/>
	
		<use xlink:href="#fur-flat"  width="39.1" height="52.2" id="fur_row-20" x="-19.6" y="-26.1" transform="matrix(-0.2889 0.6378 -0.6378 -0.2889 20.1522 198.4231)" style="overflow:visible;"/>
	
		<use xlink:href="#fur-flat"  width="39.1" height="52.2" id="fur_row-23" x="-19.6" y="-26.1" transform="matrix(-0.2796 0.6499 -0.6499 -0.2796 20.2942 188.3624)" style="overflow:visible;"/>
	
		<use xlink:href="#fur-flat"  width="39.1" height="52.2" id="fur_row-26" x="-19.6" y="-26.1" transform="matrix(-0.1491 0.6917 -0.6917 -0.1491 20.3134 178.1858)" style="overflow:visible;"/>
	
		<use xlink:href="#fur-flat"  width="39.1" height="52.2" id="fur_row-29" x="-19.6" y="-26.1" transform="matrix(-0.2718 0.6532 -0.6532 -0.2718 20.5241 168.172)" style="overflow:visible;"/>
	
		<use xlink:href="#fur-flat"  width="39.1" height="52.2" id="fur_row-32" x="-19.6" y="-26.1" transform="matrix(-0.2762 0.6622 -0.6622 -0.2762 20.4657 158.1863)" style="overflow:visible;"/>
	
		<use xlink:href="#fur-flat"  width="39.1" height="52.2" id="fur_row-35" x="-19.6" y="-26.1" transform="matrix(-0.2789 0.6677 -0.6677 -0.2789 20.5128 148.1635)" style="overflow:visible;"/>
	
		<use xlink:href="#fur-flat"  width="39.1" height="52.2" id="fur_row-38" x="-19.6" y="-26.1" transform="matrix(-0.2122 0.6959 -0.6959 -0.2122 20.6019 138.319)" style="overflow:visible;"/>
	
		<use xlink:href="#fur-flat"  width="39.1" height="52.2" id="fur_row-41" x="-19.6" y="-26.1" transform="matrix(-0.2607 0.6792 -0.6792 -0.2607 20.7944 128.4913)" style="overflow:visible;"/>
	
		<use xlink:href="#fur-flat"  width="39.1" height="52.2" id="fur_row-44" x="-19.6" y="-26.1" transform="matrix(-0.1652 0.7186 -0.7186 -0.1652 20.4741 118.6698)" style="overflow:visible;"/>
	
		<use xlink:href="#fur-flat"  width="39.1" height="52.2" id="fur_row-47" x="-19.6" y="-26.1" transform="matrix(-0.2323 0.7 -0.7 -0.2323 20.4167 108.9372)" style="overflow:visible;"/>
	
		<use xlink:href="#fur-flat"  width="39.1" height="52.2" id="fur_row-50" x="-19.6" y="-26.1" transform="matrix(-0.2186 0.7146 -0.7146 -0.2186 19.8093 99.2763)" style="overflow:visible;"/>
	
		<use xlink:href="#fur-flat"  width="39.1" height="52.2" id="fur_row-53" x="-19.6" y="-26.1" transform="matrix(-8.168340e-02 0.7456 -0.7456 -8.168340e-02 18.4992 89.1354)" style="overflow:visible;"/>
	
		<use xlink:href="#fur-flat"  width="39.1" height="52.2" id="fur_row-56" x="-19.6" y="-26.1" transform="matrix(-0.2192 0.7273 -0.7273 -0.2192 18.5007 79.6254)" style="overflow:visible;"/>
	
		<use xlink:href="#fur-flat"  width="39.1" height="52.2" id="fur_row-59" x="-19.6" y="-26.1" transform="matrix(-0.2343 0.7201 -0.7201 -0.2343 18.1631 69.5005)" style="overflow:visible;"/>
	
		<use xlink:href="#fur-flat"  width="39.1" height="52.2" id="fur_row-62" x="-19.6" y="-26.1" transform="matrix(-0.2592 0.7174 -0.7174 -0.2592 17.917 59.4249)" style="overflow:visible;"/>
	
		<use xlink:href="#fur-flat"  width="39.1" height="52.2" id="fur_row-65" x="-19.6" y="-26.1" transform="matrix(-0.2989 0.7075 -0.7075 -0.2989 18.0631 49.1544)" style="overflow:visible;"/>
	
		<use xlink:href="#fur-flat"  width="39.1" height="52.2" id="fur_row-68" x="-19.6" y="-26.1" transform="matrix(-0.3886 0.6677 -0.6677 -0.3886 18.8322 38.3221)" style="overflow:visible;"/>
	
		<use xlink:href="#fur-flat"  width="39.1" height="52.2" id="fur_row-71" x="-19.6" y="-26.1" transform="matrix(-0.6079 0.4844 -0.4844 -0.6079 22.8121 30.1729)" style="overflow:visible;"/>
	
		<use xlink:href="#fur-flat"  width="39.1" height="52.2" id="fur_row-74" x="-19.6" y="-26.1" transform="matrix(-0.76 0.2049 -0.2049 -0.76 29.3213 24.355)" style="overflow:visible;"/>
	
		<use xlink:href="#fur-flat"  width="39.1" height="52.2" id="fur_row-77" x="-19.6" y="-26.1" transform="matrix(-0.786 -4.476598e-02 4.476598e-02 -0.786 38.5673 21.2108)" style="overflow:visible;"/>
	
		<use xlink:href="#fur-flat"  width="39.1" height="52.2" id="fur_row-80" x="-19.6" y="-26.1" transform="matrix(-0.7672 -0.2092 0.2092 -0.7672 48.8351 19.7485)" style="overflow:visible;"/>
	
		<use xlink:href="#fur-flat"  width="39.1" height="52.2" id="fur_row-83" x="-19.6" y="-26.1" transform="matrix(-0.7373 -0.2989 0.2989 -0.7373 59.7082 19.7547)" style="overflow:visible;"/>
	
		<use xlink:href="#fur-flat"  width="39.1" height="52.2" id="fur_row-86" x="-19.6" y="-26.1" transform="matrix(-0.7841 -0.1899 0.1899 -0.7841 70.914 20.6108)" style="overflow:visible;"/>
	
		<use xlink:href="#fur-flat"  width="39.1" height="52.2" id="fur_row-89" x="-19.6" y="-26.1" transform="matrix(-0.7079 -0.3877 0.3877 -0.7079 82.0369 22.5556)" style="overflow:visible;"/>
	
		<use xlink:href="#fur-flat"  width="39.1" height="52.2" id="fur_row-92" x="-19.6" y="-26.1" transform="matrix(-0.6838 -0.4474 0.4474 -0.6838 92.584 24.7946)" style="overflow:visible;"/>
	
		<use xlink:href="#fur-flat"  width="39.1" height="52.2" id="fur_row-95" x="-19.6" y="-26.1" transform="matrix(-0.6478 -0.4982 0.4982 -0.6478 102.1376 28.1472)" style="overflow:visible;"/>
	
		<use xlink:href="#fur-flat"  width="39.1" height="52.2" id="fur_row-98" x="-19.6" y="-26.1" transform="matrix(-0.6131 -0.5551 0.5551 -0.6131 111.7804 32.07)" style="overflow:visible;"/>
	
		<use xlink:href="#fur-flat"  width="39.1" height="52.2" id="fur_row-101" x="-19.6" y="-26.1" transform="matrix(-0.7168 -0.4223 0.4223 -0.7168 119.8615 35.6977)" style="overflow:visible;"/>
	
		<use xlink:href="#fur-flat"  width="39.1" height="52.2" id="fur_row-104" x="-19.6" y="-26.1" transform="matrix(-0.5082 -0.6578 0.6578 -0.5082 128.5313 41.5906)" style="overflow:visible;"/>
	
		<use xlink:href="#fur-flat"  width="39.1" height="52.2" id="fur_row-107" x="-19.6" y="-26.1" transform="matrix(-0.4466 -0.7079 0.7079 -0.4466 136.1252 47.7416)" style="overflow:visible;"/>
	
		<use xlink:href="#fur-flat"  width="39.1" height="52.2" id="fur_row-110" x="-19.6" y="-26.1" transform="matrix(-0.3686 -0.7626 0.7626 -0.3686 142.9489 54.5531)" style="overflow:visible;"/>
	
		<use xlink:href="#fur-flat"  width="39.1" height="52.2" id="fur_row-113" x="-19.6" y="-26.1" transform="matrix(-0.2692 -0.8072 0.8072 -0.2692 148.6036 62.4818)" style="overflow:visible;"/>
	
		<use xlink:href="#fur-flat"  width="39.1" height="52.2" id="fur_row-116" x="-19.6" y="-26.1" transform="matrix(-0.1478 -0.8441 0.8441 -0.1478 153.0318 70.9867)" style="overflow:visible;"/>
	
		<use xlink:href="#fur-flat"  width="39.1" height="52.2" id="fur_row-119" x="-19.6" y="-26.1" transform="matrix(-0.1906 -0.8355 0.8355 -0.1906 155.6458 80.0617)" style="overflow:visible;"/>
	
		<use xlink:href="#fur-flat"  width="39.1" height="52.2" id="fur_row-122" x="-19.6" y="-26.1" transform="matrix(0.1571 -0.8525 0.8525 0.1571 157.377 89.8165)" style="overflow:visible;"/>
	
		<use xlink:href="#fur-flat"  width="39.1" height="52.2" id="fur_row-125" x="-19.6" y="-26.1" transform="matrix(0.3429 -0.7964 0.7964 0.3429 156.3204 98.4589)" style="overflow:visible;"/>
	
		<use xlink:href="#fur-flat"  width="39.1" height="52.2" id="fur_row-128" x="-19.6" y="-26.1" transform="matrix(0.5028 -0.7184 0.7184 0.5028 154.4408 107.8532)" style="overflow:visible;"/>
	
		<use xlink:href="#fur-flat"  width="39.1" height="52.2" id="fur_row-131" x="-19.6" y="-26.1" transform="matrix(0.7312 -0.4783 0.4783 0.7312 150.1068 115.9425)" style="overflow:visible;"/>
	
		<use xlink:href="#fur-flat"  width="39.1" height="52.2" id="fur_row-134" x="-19.6" y="-26.1" transform="matrix(0.7075 -0.5281 0.5281 0.7075 144.7608 123.8772)" style="overflow:visible;"/>
	
		<use xlink:href="#fur-flat"  width="39.1" height="52.2" id="fur_row-137" x="-19.6" y="-26.1" transform="matrix(0.7672 -0.4384 0.4384 0.7672 137.7301 131.0965)" style="overflow:visible;"/>
	
		<use xlink:href="#fur-flat"  width="39.1" height="52.2" id="fur_row-140" x="-19.6" y="-26.1" transform="matrix(0.8215 -0.3595 0.3595 0.8215 129.7558 137.785)" style="overflow:visible;"/>
	
		<use xlink:href="#fur-flat"  width="39.1" height="52.2" id="fur_row-143" x="-19.6" y="-26.1" transform="matrix(0.8513 -0.2819 0.2819 0.8513 120.684 143.4585)" style="overflow:visible;"/>
	
		<use xlink:href="#fur-flat"  width="39.1" height="52.2" id="fur_row-146" x="-19.6" y="-26.1" transform="matrix(0.8823 -0.2096 0.2096 0.8823 111.4334 148.3905)" style="overflow:visible;"/>
	
		<use xlink:href="#fur-flat"  width="39.1" height="52.2" id="fur_row-149" x="-19.6" y="-26.1" transform="matrix(0.8971 -0.1328 0.1328 0.8971 103.8695 152.1928)" style="overflow:visible;"/>
	
		<use xlink:href="#fur-flat"  width="39.1" height="52.2" id="fur_row-152" x="-19.6" y="-26.1" transform="matrix(0.8395 -0.3683 0.3683 0.8395 97.5769 153.7332)" style="overflow:visible;"/>
</g>
<path id="_x32__1_" class="st17" d="M76.7,211.9c0,0-12.1,15,1.9,21.5s77.5,0.5,64,24.5"/>
<use xlink:href="#fur-caressed"  width="39.1" height="50.6" id="XMLID_1_" x="-19.6" y="-25.3" transform="matrix(0.9966 0 0 -0.9966 -45.1562 51.0268)" style="display:none;overflow:visible;"/>
<g id="UI">
	<g id="phonetics">
		<path class="st18" d="M133.8,268.3h-57c-6.1,0-11.1-5-11.1-11.1v-37.7c0-6.1,5-11.1,11.1-11.1h56.9c6.1,0,11.1,5,11.1,11.1v37.7
			C144.9,263.4,139.9,268.3,133.8,268.3z"/>
		<text transform="matrix(1 0 0 1 79.3685 249.328)" class="st19 st20">[ r ]</text>
	</g>
	<g id="explainer" class="st21" style="opacity:0;">
		<g id="label">
			<text transform="matrix(1 0 0 1 98.3137 188.2498)" class="st22 st19 st23">  start stroking here</text>
		</g>
		<path id="explainerStroke" class="st24" d="M96.4,157.2c31.7-18.6,71.5-25.5,62.6-71.7c-6-39.5-55.1-61.8-88-67.3
			c-63.5-13.7-52,42-50.9,86.3c1.3,53.9,1.8,81-0.1,130.4"/>
		<circle id="end" class="st25" cx="19.6" cy="234.9" r="11.9"/>
		<circle id="start" class="st22" cx="96.4" cy="157.2" r="11.9" style="opacity:1"/>
	</g>
	<circle id="status" class="st26" cx="105.9" cy="237.7" r="11.9"/>
</g>
<g id="strokes" class="st27">
	<path id="_x31_" class="st28" d="M96.4,157.2c31.7-18.6,71.5-25.5,62.6-71.7c-6-39.5-55.1-61.8-88-67.3c-63.5-13.7-52,42-50.9,86.3
		c1.3,53.9,1.8,81-0.1,130.4"/>
</g>
<g id="control" class="st27">
	<circle class="st29" cx="97.1" cy="157" r="26"/>
</g>
</svg>
