<svg id="Layer_1" data-name="Layer 1" xmlns="http://www.w3.org/2000/svg" xmlns:xlink="http://www.w3.org/1999/xlink" viewBox="0 0 728.45 241.12"><defs><clipPath id="clip-path" transform="translate(165.64 -30.12)"><rect y="6" width="500" height="300" style="fill:none"/></clipPath></defs><title>game-title</title><g style="clip-path:url(#clip-path)"><polygon points="728.45 118.88 728.37 118.88 512.64 235.48 512.64 179.88 358.64 179.88 358.64 56.88 512.64 56.88 512.64 0 728.45 118.88" style="fill:orange"/><polygon points="0 118.88 0.08 118.88 214.64 235.48 214.64 179.88 358.64 179.88 358.64 56.88 214.64 56.88 214.64 0 0 118.88" style="fill:#16ae5a"/><text transform="translate(213.73 145.73)" style="font-size:17px;fill:#fff;font-family:FilsonProBook">s<tspan x="7.05" y="0">wipe l</tspan><tspan x="55.13" y="0">e</tspan><tspan x="65.16" y="0">ft</tspan></text><text transform="translate(211.14 124.1)" style="font-size:48.08806228637695px;fill:#fff;font-family:Filson Soft">v<tspan x="25.39" y="0">erb</tspan></text><text transform="translate(540.15 145.73)" style="font-size:15px;fill:#fff;font-family:FilsonProBook">s<tspan x="6.23" y="0">wipe rig</tspan><tspan x="63.6" y="0">h</tspan><tspan x="72.52" y="0">t</tspan></text><text transform="translate(402.82 124.1)" style="font-size:48.08806228637695px;fill:#fff;font-family:Filson Soft">adjecti<tspan x="163.35" y="0">v</tspan><tspan x="188.74" y="0">e</tspan></text><circle cx="358.08" cy="112.21" r="16.26" style="fill:#fff"/><text transform="translate(350.14 116.62)" style="font-size:17px;font-family:FilsonProBook">o<tspan x="10.32" y="0">r</tspan></text><text transform="translate(308.38 236.17)" style="font-size:17px;font-family:Filson Soft">P<tspan x="10.64" y="0">R</tspan><tspan x="22.2" y="0">OTO</tspan><tspan x="58.5" y="0">TYPE</tspan></text></g></svg>