<svg id="Layer_1" data-name="Layer 1" xmlns="http://www.w3.org/2000/svg" xmlns:xlink="http://www.w3.org/1999/xlink" viewBox="0 0 728.45 236.36"><defs><clipPath id="clip-path" transform="translate(165.64 -30.12)"><rect y="6" width="500" height="300" style="fill:none"/></clipPath></defs><title>game-title</title><g style="clip-path:url(#clip-path)"><polygon points="728.45 118.88 728.37 118.88 512.64 235.48 512.64 179.88 358.64 179.88 358.64 56.88 512.64 56.88 512.64 0 728.45 118.88" style="fill:orange"/><polygon points="0 118.88 0.08 118.88 214.64 235.48 214.64 179.88 358.64 179.88 358.64 56.88 214.64 56.88 214.64 0 0 118.88" style="fill:#16ae5a"/><path d="M53.24,169.31a1.31,1.31,0,0,0-1.36-1,1.59,1.59,0,0,0-1.12.39,1.21,1.21,0,0,0-.43.92,1.35,1.35,0,0,0,1.17,1.22l1.26,0.41q2,0.66,2,2.31a2.15,2.15,0,0,1-.88,1.79,3.35,3.35,0,0,1-2.1.67,3.67,3.67,0,0,1-2-.54A2.59,2.59,0,0,1,48.69,174l1.12-.29a1.59,1.59,0,0,0,.74.87,2.47,2.47,0,0,0,1.27.32,1.93,1.93,0,0,0,1.22-.37,1.17,1.17,0,0,0,.48-1,1.39,1.39,0,0,0-1.21-1.24l-1.19-.39q-2.06-.66-2.06-2.26a2.35,2.35,0,0,1,.75-1.76,2.74,2.74,0,0,1,2-.72,3,3,0,0,1,1.63.46,2.14,2.14,0,0,1,1,1.38Z" transform="translate(165.64 -30.12)" style="fill:#fff"/><path d="M59.45,174.22l2.18-6.54h1.1l2.16,6.54,2.5-6.83h1.34l-3.18,8.47H64.31l-2.14-6.37L60,175.85H58.8l-3.2-8.47h1.34Z" transform="translate(165.64 -30.12)" style="fill:#fff"/><path d="M70.61,163.87a0.88,0.88,0,0,1,.65-0.27,0.9,0.9,0,0,1,.66.27,0.92,0.92,0,0,1,.27.68,0.89,0.89,0,0,1-.27.67,0.92,0.92,0,0,1-.66.26,0.89,0.89,0,0,1-.65-0.26,0.91,0.91,0,0,1-.26-0.67A0.94,0.94,0,0,1,70.61,163.87Zm1.3,12H70.63v-8.47h1.27v8.47Z" transform="translate(165.64 -30.12)" style="fill:#fff"/><path d="M74.73,167.39H76v1.68a3.65,3.65,0,0,1,3.37-1.87,3.94,3.94,0,0,1,3.05,1.27,4.83,4.83,0,0,1,0,6.29A3.94,3.94,0,0,1,79.37,176,3.65,3.65,0,0,1,76,174.17v5.49H74.73V167.39Zm6.75,1.9a2.82,2.82,0,0,0-2.23-.94,3.2,3.2,0,0,0-2.32.92,3.43,3.43,0,0,0,0,4.73,3.2,3.2,0,0,0,2.32.92,2.83,2.83,0,0,0,2.23-.93A3.71,3.71,0,0,0,81.48,169.28Z" transform="translate(165.64 -30.12)" style="fill:#fff"/><path d="M93.41,174.56a5.25,5.25,0,0,1-7.07.21A4.17,4.17,0,0,1,85,171.65a4.29,4.29,0,0,1,1.3-3.16,4.43,4.43,0,0,1,3.26-1.29,4.67,4.67,0,0,1,2.07.45,3.74,3.74,0,0,1,1.55,1.47,4.8,4.8,0,0,1,.64,2.48H86.31v0.14a3,3,0,0,0,1,2.29,3.56,3.56,0,0,0,2.52.89,4.14,4.14,0,0,0,2.89-1.12Zm-5.75-5.66a3.08,3.08,0,0,0-1.22,1.72h6.07a2.71,2.71,0,0,0-1.07-1.76,3.19,3.19,0,0,0-1.82-.54A3.44,3.44,0,0,0,87.67,168.9Z" transform="translate(165.64 -30.12)" style="fill:#fff"/><path d="M101.78,175.85H100.5V163.56h1.27v12.29Z" transform="translate(165.64 -30.12)" style="fill:#fff"/><path d="M112.32,174.56a5.25,5.25,0,0,1-7.07.21,4.17,4.17,0,0,1-1.31-3.12,4.29,4.29,0,0,1,1.3-3.16,4.43,4.43,0,0,1,3.26-1.29,4.67,4.67,0,0,1,2.07.45,3.74,3.74,0,0,1,1.55,1.47,4.8,4.8,0,0,1,.64,2.48h-7.53v0.14a3,3,0,0,0,1,2.29,3.56,3.56,0,0,0,2.52.89,4.14,4.14,0,0,0,2.89-1.12Zm-5.75-5.66a3.08,3.08,0,0,0-1.22,1.72h6.07a2.71,2.71,0,0,0-1.07-1.76,3.19,3.19,0,0,0-1.82-.54A3.44,3.44,0,0,0,106.57,168.9Z" transform="translate(165.64 -30.12)" style="fill:#fff"/><path d="M118.75,164.79a1.5,1.5,0,0,0-.93-0.26,1.27,1.27,0,0,0-1,.46,2.33,2.33,0,0,0-.4,1.53v0.87h2.35v1h-2.35v7.45h-1.27v-7.45h-1.41v-1h1.41v-0.71q0-3.28,2.67-3.28a2.62,2.62,0,0,1,1.81.59,1.91,1.91,0,0,1,.65,1.49,1.37,1.37,0,0,1-.08.46H119a1.45,1.45,0,0,0,.05-0.34A0.93,0.93,0,0,0,118.75,164.79Z" transform="translate(165.64 -30.12)" style="fill:#fff"/><path d="M122.36,173.3a1.73,1.73,0,0,0,.36,1.22,1.19,1.19,0,0,0,.9.37,1.3,1.3,0,0,0,.88-0.3,1,1,0,0,0,.35-0.81,1.44,1.44,0,0,0-.12-0.61h1.17a1.23,1.23,0,0,1,.1.33,2,2,0,0,1,0,.31v0.12a1.94,1.94,0,0,1-.65,1.5,2.54,2.54,0,0,1-1.78.59,2.58,2.58,0,0,1-1.8-.65,2.82,2.82,0,0,1-.71-2.18v-4.81h-1.43v-1h1.43l0.31-2.57h1v2.57h2.75v1h-2.75v4.9Z" transform="translate(165.64 -30.12)" style="fill:#fff"/><path d="M55.35,152.82l-8-20.72c-0.43-1.2,0-2,1.35-2h1.59a2,2,0,0,1,2,1.39l6.39,17.26,6.4-17.26a2,2,0,0,1,2-1.39h1.59c1.3,0,1.78.77,1.35,2l-8,20.72a2.08,2.08,0,0,1-2.07,1.39h-2.5A2.08,2.08,0,0,1,55.35,152.82Z" transform="translate(165.64 -30.12)" style="fill:#fff"/><path d="M72.72,142.24a12.59,12.59,0,0,1,13-12.65c6.06,0,11.59,3.61,12.26,11.3a1.48,1.48,0,0,1-1.68,1.78H77.62c-0.14,4.47,3.56,7.74,8.8,7.74a11.28,11.28,0,0,0,6.54-2,1.75,1.75,0,0,1,2.45.24L95.75,149c0.77,0.82.77,1.83-.34,2.74a14,14,0,0,1-9,3C77.91,154.74,72.72,149.12,72.72,142.24ZM93.05,139c-1.25-4.28-4.62-5.19-7.26-5.19A7.75,7.75,0,0,0,78.05,139h15Z" transform="translate(165.64 -30.12)" style="fill:#fff"/><path d="M103.2,152.48V131.86a1.61,1.61,0,0,1,1.78-1.73h1.44a1.57,1.57,0,0,1,1.73,1.73v3.65c0.82-3.85,3.56-5.91,6.44-5.91l1.06,0c1,0.14,1.15,1,1.15,1.92V133c0,1.2-.48,1.68-1.3,1.49a6,6,0,0,0-1.3-.14c-1.73,0-6.06.87-6.06,10.72v7.45a1.57,1.57,0,0,1-1.73,1.73H105A1.61,1.61,0,0,1,103.2,152.48Z" transform="translate(165.64 -30.12)" style="fill:#fff"/><path d="M125.95,150.42v2.07a1.57,1.57,0,0,1-1.73,1.73h-1.44a1.61,1.61,0,0,1-1.78-1.73v-31.3a1.61,1.61,0,0,1,1.78-1.73h1.44a1.57,1.57,0,0,1,1.73,1.73v12.74a10,10,0,0,1,8.65-4.33c7.16,0,11.92,5.63,11.92,12.55s-4.76,12.6-11.92,12.6A10,10,0,0,1,125.95,150.42Zm15.63-8.27c0-4.47-2.79-8.27-7.69-8.27-4.71,0-8,3.51-8,8.27s3.32,8.27,8,8.27C138.78,150.42,141.57,146.67,141.57,142.15Z" transform="translate(165.64 -30.12)" style="fill:#fff"/><path d="M379,170.08a1.16,1.16,0,0,0-1.2-.87,1.41,1.41,0,0,0-1,.34,1.07,1.07,0,0,0-.37.81,1.19,1.19,0,0,0,1,1.08l1.11,0.36a2.14,2.14,0,0,1,1.79,2,1.89,1.89,0,0,1-.77,1.58,3,3,0,0,1-1.85.59,3.23,3.23,0,0,1-1.75-.47,2.28,2.28,0,0,1-1-1.31l1-.25a1.4,1.4,0,0,0,.65.77,2.17,2.17,0,0,0,1.12.28,1.7,1.7,0,0,0,1.07-.33,1,1,0,0,0,.43-0.86,1.23,1.23,0,0,0-1.07-1.09l-1-.34q-1.81-.59-1.81-2a2.08,2.08,0,0,1,.66-1.55,2.42,2.42,0,0,1,1.75-.64,2.66,2.66,0,0,1,1.44.41,1.89,1.89,0,0,1,.84,1.21Z" transform="translate(165.64 -30.12)" style="fill:#fff"/><path d="M384.52,174.41l1.92-5.78h1l1.91,5.78,2.2-6h1.19l-2.8,7.47h-1.1l-1.89-5.62L385,175.85H384l-2.82-7.47h1.19Z" transform="translate(165.64 -30.12)" style="fill:#fff"/><path d="M394.37,165.28a0.77,0.77,0,0,1,.58-0.24,0.8,0.8,0,0,1,.58.24,0.82,0.82,0,0,1,.24.6,0.79,0.79,0,0,1-.24.59,0.81,0.81,0,0,1-.58.23,0.78,0.78,0,0,1-.58-0.23,0.81,0.81,0,0,1-.23-0.59A0.83,0.83,0,0,1,394.37,165.28Zm1.15,10.57h-1.12v-7.47h1.13v7.47Z" transform="translate(165.64 -30.12)" style="fill:#fff"/><path d="M398,168.38h1.13v1.49a3.22,3.22,0,0,1,3-1.65,3.47,3.47,0,0,1,2.69,1.13,4.26,4.26,0,0,1,0,5.55A3.47,3.47,0,0,1,402.1,176a3.22,3.22,0,0,1-3-1.65v4.84H398V168.38Zm6,1.67a2.49,2.49,0,0,0-2-.83,2.82,2.82,0,0,0-2,.81,3,3,0,0,0,0,4.17,2.82,2.82,0,0,0,2,.81,2.5,2.5,0,0,0,2-.83A3.27,3.27,0,0,0,404,170.05Z" transform="translate(165.64 -30.12)" style="fill:#fff"/><path d="M414.49,174.71a4.63,4.63,0,0,1-6.24.19,3.68,3.68,0,0,1-1.16-2.75,3.78,3.78,0,0,1,1.15-2.79,3.91,3.91,0,0,1,2.87-1.14,4.12,4.12,0,0,1,1.82.4,3.3,3.3,0,0,1,1.37,1.3,4.23,4.23,0,0,1,.56,2.19h-6.64v0.12a2.63,2.63,0,0,0,.85,2,3.14,3.14,0,0,0,2.23.79,3.65,3.65,0,0,0,2.55-1Zm-5.07-5a2.72,2.72,0,0,0-1.08,1.52h5.35a2.39,2.39,0,0,0-.95-1.55,2.81,2.81,0,0,0-1.6-.47A3,3,0,0,0,409.42,169.72Z" transform="translate(165.64 -30.12)" style="fill:#fff"/><path d="M421.81,170.18a2.68,2.68,0,0,1,.79-1.44,2,2,0,0,1,1.41-.53,1.56,1.56,0,0,1,.61.12v1.11a1.46,1.46,0,0,0-.69-0.15,1.82,1.82,0,0,0-1.51.88,5,5,0,0,0-.62,2.83v2.85h-1.12v-7.47h1.13v1.8Z" transform="translate(165.64 -30.12)" style="fill:#fff"/><path d="M426,165.28a0.77,0.77,0,0,1,.58-0.24,0.8,0.8,0,0,1,.58.24,0.82,0.82,0,0,1,.24.6,0.79,0.79,0,0,1-.24.59,0.81,0.81,0,0,1-.58.23,0.78,0.78,0,0,1-.58-0.23,0.81,0.81,0,0,1-.23-0.59A0.83,0.83,0,0,1,426,165.28Zm1.15,10.57H426v-7.47h1.13v7.47Z" transform="translate(165.64 -30.12)" style="fill:#fff"/><path d="M436.9,175.76a3.33,3.33,0,0,1-1.09,2.67,4.09,4.09,0,0,1-2.77.95,5,5,0,0,1-3.18-1l0.45-.88a4.19,4.19,0,0,0,2.73.92,2.76,2.76,0,0,0,2-.72,2.62,2.62,0,0,0,.75-2v-1.3a3.22,3.22,0,0,1-3,1.65,3.48,3.48,0,0,1-2.69-1.12,4.26,4.26,0,0,1,0-5.55,3.48,3.48,0,0,1,2.69-1.12,3.22,3.22,0,0,1,3,1.65v-1.49h1.13v7.38Zm-6-1.58a2.49,2.49,0,0,0,2,.83,2.82,2.82,0,0,0,2-.81,3,3,0,0,0,0-4.17,2.82,2.82,0,0,0-2-.81,2.5,2.5,0,0,0-2,.83A3.27,3.27,0,0,0,430.95,174.18Z" transform="translate(165.64 -30.12)" style="fill:#fff"/><path d="M444.91,171.61a2.55,2.55,0,0,0-.55-1.82,1.83,1.83,0,0,0-1.37-.56,2.27,2.27,0,0,0-.75.14,3,3,0,0,0-.81.45,2.32,2.32,0,0,0-.7.94,3.78,3.78,0,0,0-.29,1.48v3.63h-1.12V165h1.13v5a2.35,2.35,0,0,1,1-1.3,3,3,0,0,1,1.61-.45,2.88,2.88,0,0,1,2.14.83,3.5,3.5,0,0,1,.83,2.56v4.24h-1.12v-4.24Z" transform="translate(165.64 -30.12)" style="fill:#fff"/><path d="M449.7,173.6a1.53,1.53,0,0,0,.31,1.08,1.05,1.05,0,0,0,.79.33,1.14,1.14,0,0,0,.77-0.26,0.89,0.89,0,0,0,.31-0.71,1.28,1.28,0,0,0-.1-0.54h1a1.08,1.08,0,0,1,.09.29,1.75,1.75,0,0,1,0,.28v0.11a1.71,1.71,0,0,1-.58,1.32,2.24,2.24,0,0,1-1.57.52,2.28,2.28,0,0,1-1.59-.57,2.49,2.49,0,0,1-.63-1.92v-4.25h-1.26v-0.9h1.26l0.27-2.26h0.86v2.26h2.43v0.9H449.7v4.32Z" transform="translate(165.64 -30.12)" style="fill:#fff"/><path d="M239.06,142.15c0-6.92,4.76-12.55,11.92-12.55a10,10,0,0,1,8.61,4.33v-2.07a1.61,1.61,0,0,1,1.78-1.73h1.44a1.57,1.57,0,0,1,1.73,1.73v20.63a1.57,1.57,0,0,1-1.73,1.73h-1.44a1.61,1.61,0,0,1-1.78-1.73v-2.07a10,10,0,0,1-8.61,4.33C243.82,154.74,239.06,149.07,239.06,142.15Zm20.63,0c0-4.76-3.27-8.27-8-8.27s-7.65,3.8-7.65,8.27,2.79,8.27,7.65,8.27S259.63,146.9,259.68,142.15Z" transform="translate(165.64 -30.12)" style="fill:#fff"/><path d="M270.12,142.15c0-6.92,4.76-12.55,11.92-12.55a10,10,0,0,1,8.61,4.33V121.18a1.61,1.61,0,0,1,1.78-1.73h1.44a1.57,1.57,0,0,1,1.73,1.73v31.3a1.57,1.57,0,0,1-1.73,1.73h-1.44a1.61,1.61,0,0,1-1.78-1.73v-2.07a10,10,0,0,1-8.61,4.33C274.88,154.74,270.12,149.07,270.12,142.15Zm20.63,0c0-4.76-3.27-8.27-8-8.27s-7.65,3.8-7.65,8.27,2.79,8.27,7.65,8.27S290.7,146.9,290.75,142.15Z" transform="translate(165.64 -30.12)" style="fill:#fff"/><path d="M294.36,159.41a3.77,3.77,0,0,1,.1-0.82,0.82,0.82,0,0,1,.87-0.53h2.36a0.9,0.9,0,0,1,1,.87v0.34c0,1.2,1.2,2,2.74,2,2.16,0,3.22-1.68,3.22-4.33v-25.1a1.61,1.61,0,0,1,1.78-1.73H308a1.57,1.57,0,0,1,1.73,1.73v24.28c0,7.74-4.28,9.38-8.08,9.38C297,165.51,294.36,162.92,294.36,159.41Zm9.57-36.93a3.28,3.28,0,0,1,3.32-3.37,3.32,3.32,0,1,1,0,6.63A3.22,3.22,0,0,1,303.93,122.48Z" transform="translate(165.64 -30.12)" style="fill:#fff"/><path d="M315.32,142.24a12.59,12.59,0,0,1,13-12.65c6.06,0,11.59,3.61,12.26,11.3a1.48,1.48,0,0,1-1.68,1.78H320.23c-0.14,4.47,3.56,7.74,8.8,7.74a11.28,11.28,0,0,0,6.54-2,1.75,1.75,0,0,1,2.45.24l0.34,0.38c0.77,0.82.77,1.83-.34,2.74a14,14,0,0,1-9,3C320.52,154.74,315.32,149.12,315.32,142.24ZM335.66,139c-1.25-4.28-4.62-5.19-7.26-5.19a7.75,7.75,0,0,0-7.74,5.19h15Z" transform="translate(165.64 -30.12)" style="fill:#fff"/><path d="M344.08,142.43c0-7.07,4.86-12.84,13.56-12.84a14.38,14.38,0,0,1,7.26,2,1.53,1.53,0,0,1,.48,2.45l-0.38.48c-0.67.91-1.39,1-2.45,0.48a11.11,11.11,0,0,0-4.66-1.06c-5.1,0-8.85,3.37-8.85,8.22s3.75,8.27,8.85,8.27a11.1,11.1,0,0,0,4.66-1.06,1.67,1.67,0,0,1,2.45.48l0.34,0.48c0.67,0.91.34,2.07-1.2,2.84a13.57,13.57,0,0,1-6.49,1.59C349.13,154.74,344.08,149.31,344.08,142.43Z" transform="translate(165.64 -30.12)" style="fill:#fff"/><path d="M372.5,146.57V134h-2.93a0.9,0.9,0,0,1-1-1v-1.87a0.86,0.86,0,0,1,1-1h3l0.87-5.53A1.45,1.45,0,0,1,375,123.2h1a1.35,1.35,0,0,1,1.44,1.49v5.43H384a0.86,0.86,0,0,1,1,1V133a0.9,0.9,0,0,1-1,1h-6.59v12.89c0,2.6,1.25,3.61,2.79,3.61a2.59,2.59,0,0,0,2.84-2.6A3.65,3.65,0,0,0,383,147a0.83,0.83,0,0,1,.87-1.11h2.21a1,1,0,0,1,1.11.87,8.79,8.79,0,0,1,.19,1.78c0,3.61-2.6,6.25-7.21,6.25C376.3,154.74,372.5,152.77,372.5,146.57Z" transform="translate(165.64 -30.12)" style="fill:#fff"/><path d="M390.92,122.48a3.28,3.28,0,0,1,3.32-3.37,3.32,3.32,0,1,1,0,6.63A3.22,3.22,0,0,1,390.92,122.48Zm0.87,30V131.86a1.61,1.61,0,0,1,1.78-1.73H395a1.57,1.57,0,0,1,1.73,1.73v20.63a1.57,1.57,0,0,1-1.73,1.73h-1.44A1.61,1.61,0,0,1,391.78,152.48Z" transform="translate(165.64 -30.12)" style="fill:#fff"/><path d="M410.39,152.82l-8-20.72c-0.43-1.2,0-2,1.35-2h1.59a2,2,0,0,1,2,1.39l6.39,17.26,6.4-17.26a2,2,0,0,1,2-1.39h1.59c1.3,0,1.78.77,1.35,2l-8,20.72a2.08,2.08,0,0,1-2.07,1.39h-2.5A2.08,2.08,0,0,1,410.39,152.82Z" transform="translate(165.64 -30.12)" style="fill:#fff"/><path d="M427.75,142.24a12.59,12.59,0,0,1,13-12.65c6.06,0,11.59,3.61,12.26,11.3a1.48,1.48,0,0,1-1.68,1.78H432.66c-0.14,4.47,3.56,7.74,8.8,7.74a11.28,11.28,0,0,0,6.54-2,1.75,1.75,0,0,1,2.45.24l0.34,0.38c0.77,0.82.77,1.83-.34,2.74a14,14,0,0,1-9,3C432.94,154.74,427.75,149.12,427.75,142.24ZM448.09,139c-1.25-4.28-4.62-5.19-7.26-5.19a7.75,7.75,0,0,0-7.74,5.19h15Z" transform="translate(165.64 -30.12)" style="fill:#fff"/><circle cx="358.08" cy="112.21" r="16.26" style="fill:#fff"/><path d="M186.51,139.39a4.45,4.45,0,0,1,7.59,3.12,4.23,4.23,0,0,1-1.31,3.13,4.46,4.46,0,0,1-6.28,0A4.4,4.4,0,0,1,186.51,139.39Zm0.9,5.44a3.09,3.09,0,0,0,4.48,0,3.19,3.19,0,0,0,.94-2.3,3.23,3.23,0,0,0-.94-2.33,3.07,3.07,0,0,0-4.48,0,3.25,3.25,0,0,0-.93,2.33A3.2,3.2,0,0,0,187.41,144.83Z" transform="translate(165.64 -30.12)"/><path d="M197.47,140.31a3,3,0,0,1,.9-1.63,2.31,2.31,0,0,1,1.6-.6,1.77,1.77,0,0,1,.7.14v1.26a1.66,1.66,0,0,0-.78-0.17,2.06,2.06,0,0,0-1.71,1,5.65,5.65,0,0,0-.71,3.2v3.23h-1.27v-8.47h1.27v2Z" transform="translate(165.64 -30.12)"/><path d="M152.8,258.17a3.48,3.48,0,0,1-3.62,3.67h-3v3.84a0.56,0.56,0,0,1-.61.61H145a0.56,0.56,0,0,1-.61-0.61V255a0.56,0.56,0,0,1,.61-0.61h4.2A3.55,3.55,0,0,1,152.8,258.17Zm-1.85,0a2.08,2.08,0,0,0-2.12-2.28h-2.65v4.52h2.65A2.06,2.06,0,0,0,150.95,258.15Z" transform="translate(165.64 -30.12)"/><path d="M159.14,261.82h-2.35v3.86a0.56,0.56,0,0,1-.61.61H155.6a0.56,0.56,0,0,1-.61-0.61V255a0.56,0.56,0,0,1,.61-0.61H160a3.54,3.54,0,0,1,3.62,3.76,3.45,3.45,0,0,1-2.79,3.59C161,263,161.76,265,163,265a1.72,1.72,0,0,0,.87-0.2,0.53,0.53,0,0,1,.82.22l0.08,0.15a0.6,0.6,0,0,1-.19.85,3.06,3.06,0,0,1-1.72.49C160.11,266.48,159.26,263.25,159.14,261.82Zm0.51-1.43a2.27,2.27,0,0,0,0-4.52h-2.86v4.52h2.86Z" transform="translate(165.64 -30.12)"/><path d="M165.7,260.34a6.19,6.19,0,1,1,6.19,6.14A6.16,6.16,0,0,1,165.7,260.34Zm10.54,0a4.35,4.35,0,1,0-4.35,4.52A4.4,4.4,0,0,0,176.24,260.34Z" transform="translate(165.64 -30.12)"/><path d="M188.19,255v0.25a0.56,0.56,0,0,1-.61.61h-3.31v9.81a0.56,0.56,0,0,1-.61.61h-0.56a0.56,0.56,0,0,1-.61-0.61v-9.81h-3.31a0.56,0.56,0,0,1-.61-0.61V255a0.56,0.56,0,0,1,.61-0.61h8.41A0.56,0.56,0,0,1,188.19,255Z" transform="translate(165.64 -30.12)"/><path d="M188.69,260.34a6.19,6.19,0,1,1,6.19,6.14A6.16,6.16,0,0,1,188.69,260.34Zm10.54,0a4.35,4.35,0,1,0-4.35,4.52A4.4,4.4,0,0,0,199.23,260.34Z" transform="translate(165.64 -30.12)"/><path d="M211.18,255v0.25a0.56,0.56,0,0,1-.61.61h-3.31v9.81a0.56,0.56,0,0,1-.61.61h-0.56a0.56,0.56,0,0,1-.61-0.61v-9.81h-3.31a0.56,0.56,0,0,1-.61-0.61V255a0.56,0.56,0,0,1,.61-0.61h8.41A0.56,0.56,0,0,1,211.18,255Z" transform="translate(165.64 -30.12)"/><path d="M216.4,265.68v-4.28l-4.15-6.26c-0.29-.42-0.1-0.75.39-0.75h0.75a0.75,0.75,0,0,1,.73.41l3.16,5.07,3.18-5.07a0.78,0.78,0,0,1,.75-0.41h0.73c0.49,0,.68.32,0.39,0.75l-4.13,6.26v4.28a0.57,0.57,0,0,1-.63.61H217A0.56,0.56,0,0,1,216.4,265.68Z" transform="translate(165.64 -30.12)"/><path d="M233.16,258.17a3.48,3.48,0,0,1-3.62,3.67h-3v3.84a0.56,0.56,0,0,1-.61.61h-0.58a0.56,0.56,0,0,1-.61-0.61V255a0.56,0.56,0,0,1,.61-0.61h4.2A3.55,3.55,0,0,1,233.16,258.17Zm-1.85,0a2.08,2.08,0,0,0-2.12-2.28h-2.65v4.52h2.65A2.06,2.06,0,0,0,231.3,258.15Z" transform="translate(165.64 -30.12)"/><path d="M237.17,255.87v3.86h4.45a0.56,0.56,0,0,1,.61.61v0.22a0.57,0.57,0,0,1-.61.63h-4.45v3.62h5.2a0.56,0.56,0,0,1,.61.61v0.25a0.56,0.56,0,0,1-.61.61H236a0.56,0.56,0,0,1-.61-0.61V255a0.56,0.56,0,0,1,.61-0.61h6.39a0.56,0.56,0,0,1,.61.61v0.25a0.56,0.56,0,0,1-.61.61h-5.2Z" transform="translate(165.64 -30.12)"/></g></svg>