<?xml version="1.0" encoding="utf-8"?>
<!-- Generator: Adobe Illustrator 19.2.0, SVG Export Plug-In . SVG Version: 6.00 Build 0)  -->
<!DOCTYPE svg PUBLIC "-//W3C//DTD SVG 1.1//EN" "http://www.w3.org/Graphics/SVG/1.1/DTD/svg11.dtd">
<svg version="1.1" xmlns="http://www.w3.org/2000/svg" xmlns:xlink="http://www.w3.org/1999/xlink" x="0px" y="0px"
	 viewBox="0 0 180.1 287.3" style="enable-background:new 0 0 180.1 287.3;" xml:space="preserve">
	<style type="text/css">
		
			.letter{ display: none; }

			.pipe_x002E_dotted{opacity:0.3;fill:none;stroke:#000000;stroke-width:0.4254;stroke-miterlimit:10;stroke-dasharray:4.2538,4.2538;enable-background:new    ;}
		
			.pipe_x002E_highlights{opacity:0.1;fill:none;stroke:#E9F5FF;stroke-width:7.9712;stroke-linecap:round;stroke-miterlimit:10;stroke-dasharray:63.7696,15.9424;enable-background:new    ;}
		
			.pipe_x002E_fill{opacity:0.4;fill:none;stroke:#FFFFFF;stroke-width:19.928;stroke-linecap:round;stroke-miterlimit:10;enable-background:new    ;}
		.pipe_x002E_outline{fill:none;stroke:#58646E;stroke-width:2;stroke-linecap:round;stroke-miterlimit:10;}
		.pipes_x002E_rings_x002E_outer{fill:none;stroke:#4F4F4F;stroke-width:0.8567;stroke-linecap:round;stroke-miterlimit:10;}
		.pipes_x002E_rings_x002E_inner{fill:none;stroke:#BABABA;stroke-width:0.6887;stroke-linecap:round;stroke-miterlimit:10;}
		.st0{fill:none;stroke:#000000;stroke-width:23.9136;stroke-linecap:square;stroke-linejoin:round;stroke-miterlimit:10;}
		.st1{fill:none;stroke:#BABABA;stroke-width:0.6858;stroke-linecap:round;stroke-miterlimit:10;}
		.st2{fill:none;stroke:#BABABA;stroke-width:0.6813;stroke-linecap:round;stroke-miterlimit:10;}
		.st3{fill:none;stroke:#BABABA;stroke-width:0.6739;stroke-linecap:round;stroke-miterlimit:10;}
		.st4{fill:none;stroke:#BABABA;stroke-width:0.6665;stroke-linecap:round;stroke-miterlimit:10;}
		.st5{fill:none;stroke:#BABABA;stroke-width:0.6591;stroke-linecap:round;stroke-miterlimit:10;}
		.st6{fill:none;stroke:#BABABA;stroke-width:0.6517;stroke-linecap:round;stroke-miterlimit:10;}
		.st7{fill:none;stroke:#BABABA;stroke-width:0.6443;stroke-linecap:round;stroke-miterlimit:10;}
		.st8{fill:none;stroke:#BABABA;stroke-width:0.6369;stroke-linecap:round;stroke-miterlimit:10;}
		.st9{fill:none;stroke:#58646E;stroke-width:2;stroke-linecap:round;stroke-miterlimit:10;}
		.st10{fill:#C7863C;}
		.st11{fill:#C7863C;stroke:#6E3611;stroke-width:0.8406;stroke-linecap:round;stroke-miterlimit:10;}
		.st12{fill:none;stroke:#6E3611;stroke-width:0.8406;stroke-linecap:round;stroke-miterlimit:10;}
		.st13{fill:none;stroke:#6E3611;stroke-width:0.8406;stroke-linecap:round;stroke-linejoin:round;stroke-miterlimit:10;}
		.st14{display:none;}
		.st15{display:inline;fill:#C7863C;}
		.st16{display:inline;fill:none;stroke:#6E3611;stroke-width:0.8406;stroke-linecap:round;stroke-miterlimit:10;}
		.st17{display:inline;fill:none;stroke:#6E3611;stroke-width:0.6643;stroke-linecap:round;stroke-miterlimit:10;}
		.st18{display:inline;fill:none;stroke:#6E3611;stroke-width:0.5;stroke-linecap:round;stroke-miterlimit:10;}
		.st19{display:inline;fill:none;stroke:#C7863C;stroke-width:20;stroke-linecap:round;stroke-linejoin:round;stroke-miterlimit:1;}
		.st20{display:inline;fill:#C7863C;stroke:#6E3611;stroke-width:0.8406;stroke-linecap:round;stroke-miterlimit:10;}
		.st21{display:inline;}
		.st22{display:inline;fill:#FFFFFF;}
		.st23{fill:#B37736;}
		
			.st24{display:inline;fill:none;stroke:#C7863C;stroke-width:20.3768;stroke-linecap:round;stroke-linejoin:round;stroke-miterlimit:10;}
		.st25{display:inline;fill:#C6863C;stroke:#6E3611;stroke-linecap:round;stroke-miterlimit:10;}
		.st26{fill:none;stroke:#6E3611;stroke-width:0.8302;stroke-linecap:round;stroke-miterlimit:10;}
		.st27{fill:#C6863C;stroke:#6E3611;stroke-linecap:round;stroke-miterlimit:10;}
		.st28{fill:#FFFFFF;}
		.st29{clip-path:url(#door_1_);fill:#D66951;}
		.st30{fill:none;stroke:#4F4F4F;stroke-width:0.8379;stroke-linecap:round;stroke-miterlimit:10;}
		.st31{fill:none;stroke:#6F84A8;stroke-width:0.6887;stroke-linecap:round;stroke-miterlimit:10;}
		.st32{fill:none;stroke:#4F4F4F;stroke-width:0.8509;stroke-linecap:round;stroke-miterlimit:10;}
		.st33{fill:none;stroke:#4F4F4F;stroke-width:0.8451;stroke-linecap:round;stroke-miterlimit:10;}
		.st34{fill:none;stroke:#4F4F4F;stroke-width:0.8394;stroke-linecap:round;stroke-miterlimit:10;}
		.st35{fill:none;stroke:#4F4F4F;stroke-width:0.8336;stroke-linecap:round;stroke-miterlimit:10;}
		.st36{fill:none;stroke:#4F4F4F;stroke-width:0.8278;stroke-linecap:round;stroke-miterlimit:10;}
		.st37{fill:none;stroke:#4F4F4F;stroke-width:0.8221;stroke-linecap:round;stroke-miterlimit:10;}
		.st38{fill:none;stroke:#4F4F4F;stroke-width:0.8163;stroke-linecap:round;stroke-miterlimit:10;}
		
			.st39{opacity:0.4;fill:none;stroke:#FFFFFF;stroke-width:19.928;stroke-linecap:round;stroke-miterlimit:10;enable-background:new    ;}
		.st40{opacity:0.1;}
		.st41{fill:none;stroke:#E9F5FF;stroke-width:7.9712;stroke-linecap:round;stroke-miterlimit:10;}
		
			.st42{fill:none;stroke:#E9F5FF;stroke-width:7.9712;stroke-linecap:round;stroke-miterlimit:10;stroke-dasharray:79.2001,28.2857,56.5715,79.2001;}
		.st43{opacity:0.3;}
		.st44{fill:none;stroke:#000000;stroke-width:0.4254;stroke-miterlimit:10;}
		.st45{fill:none;stroke:#000000;stroke-width:0.4254;stroke-miterlimit:10;stroke-dasharray:4.2505,4.2505;}
		.st46{fill:#C4A14A;}
		.st47{clip-path:url(#SVGID_2_);}
		.st48{fill:none;stroke:#2B2410;stroke-width:8;stroke-linecap:square;stroke-miterlimit:10;}
		.st49{fill:url(#SVGID_4_);}
		.st50{fill:#6B091D;stroke:#870B24;stroke-miterlimit:10;}
		.st51{fill:url(#button-top_1_);}
		.st52{fill:#75C5FF;stroke:#2980C2;stroke-width:0.5;stroke-miterlimit:10;}
		.st53{enable-background:new    ;}
		.st54{fill:#FFFFFF;stroke:#736868;stroke-width:3;stroke-miterlimit:10;}
		.st55{font-family:'MyriadPro-Regular';}
		.st56{font-size:39.3259px;}
		.st57{fill:none;stroke:#2980C2;stroke-width:0.5;stroke-miterlimit:10;}
		.st58{fill:none;stroke:#2980C2;stroke-width:0.5;stroke-miterlimit:10;stroke-dasharray:2.9092,2.9092;}
		.st59{fill:#2980C2;}
		.st60{fill:none;stroke:#D00B00;stroke-width:5;stroke-miterlimit:10;}
		.st61{opacity:0;}
		.st62{fill:none;stroke:#FF6500;stroke-width:19.928;stroke-linecap:round;stroke-linejoin:round;stroke-miterlimit:10;}
		.st63{fill:#F79159;}
	</style>
	<g id="nH5kHZ_1_" class="letter">
		<g>
			<path class="st0" d="M-166,64.9c-178,15.9-192.6,250,0,194.2"/>
			<path class="st0" d="M-166,64.9c-22.6,0-45.4,1.8-67.7-0.5c-21.7-2.2-43.8-11.7-55.8,16.4"/>
			<line class="st0" x1="-234.3" y1="5" x2="-230" y2="6.8"/>
		</g>
	</g>
	<g id="pipes_and_stuff">
		<path id="inner_ring" class="st1" d="M73.5,64.4c-3.2-0.4-5.2-5.1-4.6-10.5c0.7-5.4,3.8-9.5,7-9.1"/>
		<g id="inner_rings">
			<path class="pipes_x002E_rings_x002E_inner" d="M100.3,77.5c-1.7,0.7-4.7-2.8-6.7-7.7c-2-4.9-2.3-9.5-0.6-10.2"/>
			<path class="st2" d="M49.2,85.6c-1,0.8,1,4.6,4.5,8.5s7.2,6.4,8.2,5.5"/>
			<path class="st3" d="M19,120.5c-0.5,0.6,2.8,3.1,7.3,5.5c4.5,2.4,8.6,3.8,9.1,3.2"/>
			<path class="st4" d="M2.8,159.7c-0.2,0.3,3.7,1,8.7,1.6s9.2,0.9,9.3,0.6"/>
			<path class="st5" d="M1.3,199.1c-0.2-0.2,3.5-1.5,8.3-2.9c4.7-1.4,8.7-2.4,8.9-2.2"/>
			<path class="st6" d="M15.7,233.7c-0.6-0.5,1.7-3.7,5.1-7.2s6.6-5.9,7.1-5.4"/>
			<path class="st7" d="M46.6,257.9c-1.2-0.3-1.3-4.4-0.3-9.1c1-4.7,2.8-8.2,4-7.9"/>
			<path class="st8" d="M92,266.5c-1.7,0.2-4.1-3.3-5.3-7.9c-1.2-4.6-0.8-8.5,1-8.7"/>
		</g>
		<path id="outline_1_" class="st9" d="M82.4,66.4c16.2,1.6,32.5,1.3,48.3,0.9c0,0,15.5-1.1,20.4-0.3"/>
		<circle id="blackness" cx="27.4" cy="73.2" r="9.7"/>
		<circle id="exit" cx="151.9" cy="250" r="8.4"/>
		<g id="hamster_front">
			<g id="f1">
				<g id="blob">
					<path class="st10" d="M74.4,148.1c-13.2-2.9-10.4-20.2,2.6-18.8C90.9,129.5,89.1,151.3,74.4,148.1z"/>
				</g>
				<path class="st11" d="M72.1,143.1c0,0-1.4,1.1-1.9,0.6c-0.7-0.7,0-2.3,0-2.3"/>
				<path class="st12" d="M77.5,137.9l-0.8-1.2c-0.4-0.8-1.5-0.8-2-0.1l-0.9,1.3"/>
				<line class="st12" x1="75.7" y1="134.2" x2="75.7" y2="136.1"/>
				<path class="st11" d="M80.6,143.1c0,0,1.4,1.1,1.9,0.6c0.7-0.7,0-2.3,0-2.3"/>
				<path class="st13" d="M72.3,139.1c-0.9,0-1.2,0.8-1.2,0.8"/>
				<path class="st13" d="M80.9,139.8c-0.6-0.7-1.4-0.5-1.4-0.5"/>
			</g>
			<g id="f2" class="st14">
				<path class="st15" d="M79.5,148.3c5.6,0.9,10.2-4.9,9.6-10.7c-0.5-4.9-4.9-8.8-9.8-8.7c-0.2,0-0.4,0-0.6,0c-0.4,0-0.8,0-1.2,0
					c-0.3-0.1-0.7-0.1-1-0.1c-4.8-0.2-9.1,3.3-9.9,8c-1,6.1,3.6,11.4,9.6,11.4C76.1,148.3,78.2,148.2,79.5,148.3z"/>
				<path class="st16" d="M79.8,139.7c0,0,1.6-1.1,2.4-1.2s0.9,2.3,0.9,2.3"/>
				<path class="st16" d="M82.2,138.6c0,0,0.5-1.9,0.4-2.7"/>
				<path class="st16" d="M74.5,145.4c0,0-2,3.9-2.4-0.9"/>
				<path class="st17" d="M83.9,145.9c0,0-0.3,2.4,0.7,1.8c0.5-0.3,0.6-1.5,0.6-1.5"/>
				<path class="st18" d="M76.1,142.3c0,0,1-0.9,2.1-0.5"/>
				<path class="st18" d="M83.4,142.6c0,0,1.1,0,1.1,1"/>
			</g>
			<g id="f3" class="st14">
				<path class="st19" d="M88.5,139.8c-1.7-1.6-12.8-1-12.8-1"/>
				<path class="st20" d="M83.1,147.1c0,0-1.4,1.1-1.9,0.6c-0.7-0.7,0-2.3,0-2.3"/>
				<path class="st20" d="M93.2,148.1c0,0,1.4,1.1,1.9,0.6c0.7-0.7,0-2.3,0-2.3"/>
				<path class="st16" d="M94.9,143.3l-0.4-1.4c-0.2-0.8-1.2-1.1-1.9-0.6l-1.2,1"/>
				<line class="st16" x1="94.2" y1="139.3" x2="93.7" y2="141.1"/>
				<path class="st21" d="M87.9,142.6c-1.5,0.7-2.8-0.1-2.8-0.1S86.7,140.2,87.9,142.6z"/>
				<circle class="st22" cx="86" cy="142.1" r="0.2"/>
			</g>
		</g>
		<g id="hamster" class="st14">
			<g id="legs-1" class="st21">
				<g id="_x31__2_">
					<path class="st23" d="M108.5,131.8C108.5,131.8,108.6,131.8,108.5,131.8c0.1,0,0.1,0.1,0.2,0.1c0.2,0.1,0.4,0.2,0.8,0.3
						c0.7,0.3,1.6,0.6,2.6,0.9c2,0.6,4,1.1,4,1.1c1.1,0.3,1.8,1.4,1.6,2.5c-0.2,0.8-0.8,1.4-1.6,1.6c0,0-2.1,0.5-4.3,0.9
						c-1.1,0.2-2.2,0.4-3.1,0.4c-0.4,0-0.8,0.1-1.1,0.1c-0.1,0-0.3,0-0.4,0s-0.1,0-0.1,0c-2.3,0.3-4.4-1.3-4.7-3.6
						c-0.3-2.3,1.3-4.4,3.6-4.7c0.7-0.1,1.4,0,2,0.2L108.5,131.8z"/>
				</g>
				<g>
					<path class="st10" d="M108.1,138.7c0,0,0.2,0,0.4,0.1c0.3,0,0.6,0.1,1.1,0.2c0.9,0.1,2.1,0.3,3.2,0.5c2.3,0.4,4.6,0.9,4.6,0.9
						c1.1,0.2,1.8,1.3,1.6,2.5c-0.2,0.8-0.8,1.4-1.6,1.6c0,0-2.2,0.5-4.4,1.1c-1.1,0.3-2.2,0.6-3,0.8c-0.4,0.1-0.7,0.2-1,0.3
						c-0.2,0.1-0.3,0.1-0.3,0.1c-2.2,0.7-4.5-0.5-5.2-2.6s0.5-4.5,2.6-5.2c0.6-0.2,1.2-0.2,1.7-0.2L108.1,138.7z"/>
				</g>
			</g>
			<path id="hamsterbody" class="st24" d="M73.7,139.1c7.7,0,23.2,0,29.9,0"/>
			<path id="bobble-1" class="st25" d="M104.1,131.8c0,0,4.1-1,5.8,1.9c1.7,2.9-2.9,0.2-2.9,0.2"/>
			<g id="face-0" class="st21">
				<path id="eye.closed_1_" class="st26" d="M71.4,144.8c0.3,0.8,1.6,1.1,2.9,0.7c1.3-0.5,2.1-1.5,1.8-2.3"/>
				<path id="eye" d="M70.9,144.8c0.4,1,1.9,1.3,3.5,0.8c1.6-0.6,2.5-1.8,2.2-2.8c-0.4-1-2.3-0.9-3.8-0.3
					C71.2,143.1,70.6,143.9,70.9,144.8z"/>
				<g id="ears">
					<path class="st27" d="M77.6,137.7c0,0,2.2-3.7,0.8-3.9c-1.3-0.2-2.8,0.7-5,3.6"/>
					<path class="st27" d="M71.8,132.1c0,0,1.8-4,0.4-4.1s-2.8,1-4.7,4.2"/>
				</g>
				<path class="st27" d="M64.5,140c0,0-0.6,4.3,1.4,1"/>
				<circle class="st28" cx="72.7" cy="144.9" r="0.8"/>
				<circle class="st28" cx="73.9" cy="143.1" r="0.5"/>
			</g>
		</g>
		<g id="_x31__1_">
			<path id="white_2_" class="pipe_x002E_fill" d="M27.9,72.5C40,44.4,62.1,53.9,83.8,56.1"/>
			<g id="red_entry">
				<g>
					<g>
						<g>
							<defs>
								<rect id="door" x="13.7" y="60.8" width="27.6" height="22"/>
							</defs>
							<clipPath id="door_1_">
								<use xlink:href="#door"  style="overflow:visible;"/>
							</clipPath>
							<circle id="entry_1_" class="st29" cx="27.4" cy="73.2" r="9.7"/>
						</g>
					</g>
				</g>
			</g>
			<path id="entry.outline" class="st1" d="M17.6,72.8c0-5.4,4.4-9.8,9.8-9.8s9.8,4.4,9.8,9.8"/>
			<path id="outer_ring" class="st30" d="M76,44.8c3.2,0.4,5.2,5.1,4.6,10.5s-3.8,9.5-7,9.1"/>
			<circle id="crosssection" class="st31" cx="151.5" cy="56.6" r="9.2"/>
			<g id="outer_rings_1_">
				<path class="pipes_x002E_rings_x002E_outer" d="M92.7,59.2c1.9-0.8,5,2.7,7.1,7.6c2.1,5,2.2,9.7,0.4,10.4"/>
				<path class="st32" d="M62.8,100.1c1.1-0.9-0.9-4.9-4.4-8.8s-7.3-6.4-8.5-5.5"/>
				<path class="st33" d="M36.9,129.9c0.5-0.7-2.8-3.3-7.4-5.8s-8.8-4-9.3-3.3"/>
				<path class="st34" d="M23,162.7c0.2-0.3-3.9-1.1-9-1.8s-9.4-1.1-9.6-0.8"/>
				<path class="st35" d="M21.3,194.3c0.2,0.2-3.7,1.5-8.6,2.9s-9.1,2.2-9.3,2"/>
				<path class="st36" d="M31.3,221.3c0.6,0.6-1.9,3.9-5.5,7.3s-7.2,5.8-7.8,5.2"/>
				<path class="st37" d="M53.2,241c1.4,0.4,1.3,4.7-0.1,9.5c-1.4,4.8-3.7,8.4-5,7.9"/>
				<path class="st38" d="M89.4,250c2-0.2,4.3,3.6,5.1,8.5c0.8,4.9-0.1,9-2.1,9.2"/>
			</g>
			<path id="reflections_1_" class="pipe_x002E_highlights" d="M149.9,59.4c-6.9,0-13.7,0.2-20.6,0.3c-15.6,0.4-31.7,0.8-47.4-0.8
				c-3.7-0.4-7.3-0.9-11-1.5c-18.2-2.9-33.7-2.9-42.8,18.3"/>
			<path id="dotted_line_1_" class="pipe_x002E_dotted" d="M22,80.8l5.9-12C37.4,46.5,53,49,71.1,51.8c3.6,0.6,7.3,1.1,10.9,1.5
				c15.7,1.6,31.7,1.2,47.3,0.8c6.9-0.2,13.8-0.3,20.6-0.3"/>
			<path id="outline_3_" class="pipe_x002E_outline" d="M82.4,66.4c-3.9-0.4-7.7-1-11.4-1.6c-18.9-3-27.6-3.6-34.3,12
				c-1.6,3.8-5.3,6-9.2,6c-1.3,0-2.6-0.3-3.9-0.8c-5.1-2.2-7.4-8-5.2-13.1C31.5,38.3,56.2,42.2,74.1,45c3.6,0.6,6.9,1.1,10.3,1.4
				c14.9,1.5,29.9,1.2,45.8,0.8c6.8-0.2,13.9-0.3,20.9-0.3c5.5,0,10,4.5,10,10s-4.5,10-10,10"/>
		</g>
		<g id="_x32_">
			<path id="plastic" class="st39" d="M150.2,56.6c-178,15.9-192.6,250,0,194.2"/>
			<g id="reflections" class="st40">
				<g>
					<path class="st41" d="M150.2,59.4c-14.2,1.3-27.2,3.9-39,7.7"/>
					<path class="st42" d="M61.4,93.4c-20.1,16.1-33.4,35.6-40.6,54c-12.4,32.1-8.4,64.8,10.5,85.5c9.7,10.6,22.7,17.7,38.5,21.3"/>
					<path class="st41" d="M109.2,256c12.2-1.1,25.2-3.7,39.1-7.7"/>
				</g>
			</g>
			<g id="dotted_line" class="st43">
				<g>
					<path class="st44" d="M153.8,257.7c-0.7,0.2-1.4,0.4-2,0.6"/>
					<path class="st45" d="M147.6,259.4C-50,311.8-33.7,69.9,150.4,49.8"/>
					<path class="st44" d="M152.5,49.6c0.7-0.1,1.4-0.1,2.1-0.2"/>
				</g>
			</g>
			<path id="outline" class="st9" d="M95.7,269.7c-31.3,0-56.8-9.8-73.8-28.3c-22.3-24.4-27.3-62.3-13.1-99
				c9.5-24.6,26.6-46.4,49.3-63.1c25.1-18.5,56.7-29.9,91.1-33c0.3,0,0.6,0,0.9,0c5.3,0,9.8,4.1,10.3,9.4c0.2,2.8-0.6,5.4-2.4,7.6
				c-1.8,2.1-4.3,3.4-7,3.7c-30.7,2.8-58.6,12.8-80.7,29c-19.5,14.3-34.1,33-42.2,53.9c-11.4,29.3-7.9,59,9.1,77.6
				c13,14.1,33.2,21.6,58.4,21.6c15.5,0,32.9-2.8,51.6-8.2c0.9-0.3,1.9-0.4,2.9-0.4c4.6,0,8.7,3.1,9.9,7.5c0.8,2.7,0.5,5.5-0.9,7.9
				c-1.3,2.4-3.5,4.2-6.2,5C132.5,266.7,113.2,269.7,95.7,269.7L95.7,269.7z"/>
		</g>
	</g>
	<g id="open-button">
		<circle class="st46" cx="86.8" cy="2.8" r="17.6"/>
		<g>
			<g>
				<g>
					<g>
						<defs>
							<circle id="SVGID_1_" cx="86.8" cy="2.8" r="17.6"/>
						</defs>
						<clipPath id="SVGID_2_">
							<use xlink:href="#SVGID_1_"  style="overflow:visible;"/>
						</clipPath>
						<g class="st47">
							<line class="st48" x1="86.3" y1="-14.8" x2="69.2" y2="3"/>
							<line class="st48" x1="81" y1="10.7" x2="75.6" y2="16.4"/>
							<line class="st48" x1="99.9" y1="-8.9" x2="94.5" y2="-3.3"/>
							<line class="st48" x1="103.9" y1="6.9" x2="91.6" y2="19.7"/>
						</g>
					</g>
				</g>
			</g>
		</g>
		
			<linearGradient id="SVGID_4_" gradientUnits="userSpaceOnUse" x1="-701.7921" y1="84.1361" x2="-625.2164" y2="84.1361" gradientTransform="matrix(-0.3099 -0.9508 -0.9508 0.3099 -41.8382 -663.3835)">
			<stop  offset="0" style="stop-color:#D4EDFF;stop-opacity:0"/>
			<stop  offset="1" style="stop-color:#D4EDFF;stop-opacity:0.7"/>
		</linearGradient>
		<circle id="SVGID_3_" class="st49" cx="86.8" cy="2.8" r="17.6"/>
		<path class="st50" d="M96.6,2.8c0,5.4-4.4,9.8-9.8,9.8S77,8.2,77,2.8C77-8,81.4-9,86.8-9C92.2-9,96.6-8.7,96.6,2.8z"/>
		
			<linearGradient id="button-top_1_" gradientUnits="userSpaceOnUse" x1="79.6827" y1="184.869" x2="97.016" y2="178.369" gradientTransform="matrix(1 0 0 -1 0 180)">
			<stop  offset="0" style="stop-color:#BD423E"/>
			<stop  offset="0.3009" style="stop-color:#DD7061"/>
			<stop  offset="1" style="stop-color:#B81612"/>
		</linearGradient>
		<circle id="button-top" class="st51" cx="86.8" cy="-2.2" r="10"/>
		<g>
			<path class="st52" d="M102.1-25.7H71.5c-3.2,0-5.8-2.6-5.8-5.7l0,0c0-3.2,2.6-5.7,5.8-5.7h30.6c3.2,0,5.8,2.6,5.8,5.7l0,0
				C107.9-28.3,105.3-25.7,102.1-25.7z"/>
			<text transform="matrix(1 0 0 1 74.99 -28.4936)" class="st28" style="font-family:'Montserrat-Bold'; font-size:8px;">OPEN</text>
		</g>
	</g>
	<g id="UI">
		<g id="phonetics">
			<path class="st54" d="M145.3,191.3h-57c-6.1,0-11.1-5-11.1-11.1v-37.7c0-6.1,5-11.1,11.1-11.1h56.9c6.1,0,11.1,5,11.1,11.1v37.7
				C156.4,186.4,151.4,191.3,145.3,191.3z"/>
			<text transform="matrix(1 0 0 1 88.2589 172.3276)" class="st55 st56">[ x ]</text>
		</g>
		<g id="explainer">
			<g>
				<g>
					<path class="st57" d="M5.2,68.4c-0.5-0.1-0.9-0.2-1.5-0.4"/>
					<path class="st58" d="M1,67.2c-4.4-1.6-9.5-4.5-12.1-9.9"/>
					<path class="st57" d="M-11.6,56c-0.2-0.5-0.3-0.9-0.5-1.4"/>
					<g>
						<polygon class="st59" points="5,65.8 8.8,69 4.1,70.7 					"/>
					</g>
				</g>
			</g>
			<g>
				<path class="st59" d="M-24.3,38.2c0,1.2-0.9,2-2.3,2c-0.8,0-1.4-0.2-1.9-0.6l0.5-0.9c0.4,0.3,0.9,0.4,1.3,0.4
					c0.7,0,1.1-0.4,1.1-0.9v-0.5c-0.3,0.4-0.7,0.6-1.2,0.6c-1.1,0-1.9-0.8-1.9-2.1c0-1.2,0.7-2,1.8-2c0.6,0,1,0.2,1.3,0.6v-0.5h1.4
					L-24.3,38.2L-24.3,38.2z M-25.7,36.3c0-0.6-0.4-1.1-0.9-1.1s-0.9,0.4-0.9,1.1c0,0.6,0.4,1,0.9,1C-26.1,37.4-25.7,36.9-25.7,36.3z
					"/>
				<path class="st59" d="M-21.9,35c0.3-0.5,0.8-0.8,1.4-0.8v1.2c-0.8-0.1-1.3,0.3-1.4,0.9v2.2h-1.4v-4.3h1.4V35z"/>
				<path class="st59" d="M-16.2,35.8v2.8h-1.4v-0.5c-0.3,0.4-0.7,0.6-1.3,0.6c-0.9,0-1.5-0.6-1.5-1.4c0-0.8,0.6-1.3,1.7-1.3h1.1
					v-0.1c0-0.4-0.3-0.7-0.8-0.7c-0.4,0-0.8,0.1-1.3,0.4l-0.4-0.9c0.7-0.3,1.3-0.5,2-0.5C-16.9,34.2-16.2,34.8-16.2,35.8z
					 M-17.5,37.1v-0.4h-0.9c-0.4,0-0.6,0.1-0.6,0.5c0,0.3,0.2,0.5,0.6,0.5C-18,37.7-17.6,37.5-17.5,37.1z"/>
				<path class="st59" d="M-10.4,36.5c0,1.3-0.8,2.2-2,2.2c-0.6,0-1-0.2-1.3-0.6v0.6h-1.4v-5.9h1.4V35c0.3-0.4,0.7-0.6,1.3-0.6
					C-11.3,34.2-10.4,35.1-10.4,36.5z M-11.8,36.4c0-0.7-0.4-1.1-1-1.1s-1,0.5-1,1.1c0,0.7,0.4,1.1,1,1.1S-11.8,37.1-11.8,36.4z"/>
				<path class="st59" d="M-22,48c-0.3,0.2-0.7,0.3-1.2,0.3c-0.8,0-1.4-0.5-1.4-1.4V45h-0.6v-0.9h0.6v-1.2h1.4v1.2h1.1V45h-1.1v1.7
					c0,0.3,0.1,0.5,0.4,0.5c0.1,0,0.3-0.1,0.5-0.1L-22,48z"/>
				<path class="st59" d="M-16.8,45.5v2.7h-1.4v-2.3c0-0.5-0.3-0.8-0.8-0.8s-0.9,0.4-0.9,1v2.1h-1.4v-5.9h1.4v2.3
					c0.3-0.5,0.8-0.8,1.4-0.8C-17.4,43.8-16.8,44.5-16.8,45.5z"/>
				<path class="st59" d="M-11.8,46.4h-3c0.1,0.5,0.5,0.8,1,0.8c0.4,0,0.7-0.2,1-0.4l0.7,0.7c-0.4,0.5-1.1,0.8-1.9,0.8
					c-1.4,0-2.3-0.9-2.3-2.2s0.9-2.2,2.2-2.2C-12.4,43.8-11.7,44.8-11.8,46.4z M-13.1,45.7c0-0.5-0.3-0.9-0.8-0.9s-0.8,0.4-0.9,0.9
					H-13.1z"/>
				<path class="st59" d="M-5.3,45.4v2.8h-1.4v-0.5C-7,48.1-7.4,48.3-8,48.3c-0.9,0-1.5-0.6-1.5-1.4c0-0.8,0.6-1.3,1.7-1.3h1.1v-0.1
					c0-0.4-0.3-0.7-0.8-0.7c-0.4,0-0.8,0.1-1.3,0.4l-0.4-0.9c0.7-0.3,1.3-0.5,2-0.5C-6,43.8-5.4,44.4-5.3,45.4z M-6.7,46.7v-0.4h-0.9
					c-0.4,0-0.6,0.1-0.6,0.5c0,0.3,0.2,0.5,0.6,0.5S-6.8,47.1-6.7,46.7z"/>
				<path class="st59" d="M-1,44.3l-0.5,0.9c-0.5-0.3-1-0.4-1.4-0.4c-0.2,0-0.4,0.1-0.4,0.3c0,0.6,2.3,0.3,2.3,1.8
					c0,0.9-0.8,1.4-1.8,1.4c-0.7,0-1.4-0.2-1.9-0.6l0.4-0.9c0.5,0.3,1,0.5,1.5,0.5c0.3,0,0.5-0.1,0.5-0.3c0-0.6-2.2-0.3-2.2-1.8
					c0-0.9,0.8-1.4,1.8-1.4C-2.2,43.8-1.6,44-1,44.3z"/>
				<path class="st59" d="M3.1,44.3l-0.5,0.9c-0.5-0.3-1-0.4-1.4-0.4c-0.2,0-0.4,0.1-0.4,0.3c0,0.6,2.3,0.3,2.3,1.8
					c0,0.9-0.8,1.4-1.8,1.4c-0.7,0-1.4-0.2-1.9-0.6l0.4-0.9c0.5,0.3,1,0.5,1.5,0.5c0.3,0,0.5-0.1,0.5-0.3c0-0.6-2.2-0.3-2.2-1.8
					c0-0.9,0.8-1.4,1.8-1.4C1.9,43.8,2.5,44,3.1,44.3z"/>
				<path class="st59" d="M5,47.6c0,0.4-0.3,0.7-0.7,0.7c-0.4,0-0.7-0.3-0.7-0.7s0.3-0.7,0.7-0.7C4.7,46.9,5,47.2,5,47.6z M4.8,46.3
					H4l-0.2-2.2v-1.4H5v1.4L4.8,46.3z"/>
			</g>
		</g>
		<g id="no">
			<line class="st60" x1="210.5" y1="220.8" x2="224.1" y2="234.4"/>
			<line class="st60" x1="224.1" y1="220.8" x2="210.5" y2="234.4"/>
		</g>
	</g>
	<g id="strokes" class="st61">
		<path id="s1" class="st62" d="M86.8-2.2"/>
		<path id="s2" class="st62" d="M27.9,72.5C40,44.4,62.1,53.9,83.8,56.1c22.4,2.3,45.1,0.5,67.7,0.5c-178,15.9-192.6,250,0,194.2"/>
	</g>
	<g id="control" class="st61">
		<circle class="st63" cx="86.8" cy="0" r="14.4"/>
	</g>
</svg>