<svg xmlns="http://www.w3.org/2000/svg" xmlns:xlink="http://www.w3.org/1999/xlink" viewBox="0 0 1024 820"><defs><clipPath id="clip-path" transform="translate(174.56 0.07)"><rect y="-0.07" width="849.44" height="820" style="fill:none"/></clipPath><filter id="AI_GaussianBlur_4" name="AI_GaussianBlur_4"><feGaussianBlur stdDeviation="4"/></filter><linearGradient id="linear-gradient" x1="659.12" y1="272.64" x2="748.58" y2="227.61" gradientUnits="userSpaceOnUse"><stop offset="0" stop-color="#fff"/><stop offset="1"/></linearGradient></defs><title>ñ</title><g style="isolation:isolate"><g id="Layer_1" data-name="Layer 1"><rect x="175" width="849" height="820"/><g style="clip-path:url(#clip-path)"><g id="yvQa2N"><image id="yvQa2N-2" data-name="yvQa2N" width="1024" height="768" transform="translate(0 52)" xlink:href="ñ1.png"/></g></g></g><g id="Layer_2" data-name="Layer 2"><g style="filter:url(#AI_GaussianBlur_4)"><path d="M753.76,258.56c-10.32,5.37-19.94,5.38-32.95,9.09a102.73,102.73,0,0,0-38.42,20.65c-4,3.44-7.89,7.27-12.78,9.29s-11.23,1.72-14.67-2.31-2.71-10.42-1.54-15.78a336.36,336.36,0,0,1,14.12-47.43c4.34-11.42,9.38-23.09,8.7-35.28s-9.35-25-21.55-25.49c-8.68-.35-16.4,5.42-22.37,11.73-16.91,17.9-35.59,83.2-46.85,103.37-2.24,4-4.44.09-5.72-1.51S607,224,617.81,192.85c1.33-3.82,2.67-7.83,2.07-11.83S616,173.1,612,173.2a12,12,0,0,0-5.63,2.1,111.64,111.64,0,0,0-21.77,16.84S564.21,212,542.25,208.66s-49.14-14.15-59.56-3.72" transform="translate(174.56 0.07)" style="fill:none;stroke:#d2fff3;stroke-linecap:round;stroke-linejoin:round;stroke-width:8px;opacity:0.14"/><path d="M596.44,130.93s8.88,20.52,40,13c19-4.59,43-20,73,17" transform="translate(174.56 0.07)" style="fill:none;stroke:#d2fff3;stroke-linecap:round;stroke-linejoin:round;stroke-width:8px;opacity:0.14"/><path d="M753.55,266.76a41.33,41.33,0,0,0-17.17,21.35c-6.27,18,.28,39-8,56.12-5.49,11.41-16.59,19-27.67,25.1s-22.87,11.59-31.59,20.77c-10.58,11.14-15.37,26.41-19.84,41.11l-5.26,17.3c-1.3,4.29-2.62,8.62-4.88,12.49-4.3,7.38-11.58,12.45-18.63,17.27" transform="translate(174.56 0.07)" style="fill:none;stroke:#d2fff3;stroke-linecap:round;stroke-linejoin:round;stroke-width:8px;opacity:0.14"/><path d="M681.72,380c-0.73,16.58,7.8,32.95,5,49.3-1.5,8.65-6.05,16.41-9.63,24.43s-6.24,17.1-3.71,25.51" transform="translate(174.56 0.07)" style="fill:none;stroke:#d2fff3;stroke-linecap:round;stroke-linejoin:round;stroke-width:8px;opacity:0.14"/><path d="M679.79,448.23L686.1,454c4.13,3.79,8.28,17.59,12.79,20.91" transform="translate(174.56 0.07)" style="fill:none;stroke:#d2fff3;stroke-linecap:round;stroke-linejoin:round;stroke-width:8px;opacity:0.14"/><path d="M657.54,408.38c-0.42,4.68,2.79,7.64,4.89,10.76a16.19,16.19,0,0,1,2.72,9.56" transform="translate(174.56 0.07)" style="fill:none;stroke:#d2fff3;stroke-linecap:round;stroke-linejoin:round;stroke-width:8px;opacity:0.14"/><g style="opacity:0.14"><path d="M727,199.74c-4.58.09-8.61,3.05-11.74,6.39s-5.75,7.2-9.36,10a31.16,31.16,0,0,1-12.28,5.42c-9.1,2.11-18.56,1.8-27.86,2.59s-19,2.88-26.08,8.92c-2.52,2.14-4.64,4.7-7.18,6.81-6.65,5.53-15.55,7.48-24.14,8.49a148.3,148.3,0,0,1-36-.17" transform="translate(174.56 0.07)" style="fill:none;stroke:#d2fff3;stroke-linecap:round;stroke-linejoin:round;stroke-width:8px"/><path d="M640.89,232.48a94.91,94.91,0,0,1-17.94,1.61,10.06,10.06,0,0,1-3.36-.42,12.17,12.17,0,0,1-3.09-1.94,44.39,44.39,0,0,0-31.35-8.6" transform="translate(174.56 0.07)" style="fill:none;stroke:#d2fff3;stroke-linecap:round;stroke-linejoin:round;stroke-width:8px"/><path d="M598.77,223.76c-6.28-.87-11.19,6.38-17.53,6.42" transform="translate(174.56 0.07)" style="fill:none;stroke:#d2fff3;stroke-linecap:round;stroke-linejoin:round;stroke-width:8px"/></g><path d="M741.73,222.57c-14.7,10.11-24.24,26.19-30.93,42.73s-11,34-17.79,50.46c-4,9.69-9.61,19.72-19.23,23.89-10.47,4.54-22.69.89-33.87,3.18-13,2.66-22.9,12.87-34.68,18.91a37.32,37.32,0,0,1-13,4.18c-12.63,1.31-27.53-5.5-36.9,3.06" transform="translate(174.56 0.07)" style="fill:none;stroke:#d2fff3;stroke-linecap:round;stroke-linejoin:round;stroke-width:8px;opacity:0.14"/><path d="M714.26,257.38c-8.68.63-16.95,7.7-22.92,14a282.55,282.55,0,0,1-42.41,36.77c-5.55,3.92-12.75,7.76-18.78,4.61-3.69-5.73,6-11.73,5.91-18.54a10.78,10.78,0,0,0-2-5.55c-5-7.73-14-12.33-23.19-13.18s-18.4,1.73-26.57,6c-3.47,1.8-6.82,3.92-10.56,5.06a32.52,32.52,0,0,1-12.23.94c-17.93-1.5-35.39-10.71-53.1-7.55" transform="translate(174.56 0.07)" style="fill:none;stroke:#d2fff3;stroke-linecap:round;stroke-linejoin:round;stroke-width:8px;opacity:0.14"/><path d="M610.35,275.45c-1.06-6.23-6.8-10.89-13-12.37s-12.62-.33-18.72,1.35a4.2,4.2,0,0,1-2.34.19c-2.23-.7-1.7-4-2.77-6.1s-3.54-2.66-5.75-3.11c-3.92-.79-8.1-1.57-11.84-0.16-2.53,1-4.59,2.82-6.82,4.36a30.14,30.14,0,0,1-30.83,1.62" transform="translate(174.56 0.07)" style="fill:none;stroke:#d2fff3;stroke-linecap:round;stroke-linejoin:round;stroke-width:8px;opacity:0.14"/><g style="opacity:0.08"><path d="M753.76,258.56c-10.32,5.37-19.94,5.38-32.95,9.09a102.73,102.73,0,0,0-38.42,20.65c-4,3.44-7.89,7.27-12.78,9.29s-11.23,1.72-14.67-2.31-2.71-10.42-1.54-15.78a336.36,336.36,0,0,1,14.12-47.43c4.34-11.42,9.38-23.09,8.7-35.28s-9.35-25-21.55-25.49c-8.68-.35-16.4,5.42-22.37,11.73-16.91,17.9-35.59,83.2-46.85,103.37-2.24,4-4.44.09-5.72-1.51S607,224,617.81,192.85c1.33-3.82,2.67-7.83,2.07-11.83S616,173.1,612,173.2a12,12,0,0,0-5.63,2.1,111.64,111.64,0,0,0-21.77,16.84S564.21,212,542.25,208.66s-49.14-14.15-59.56-3.72" transform="translate(174.56 0.07)" style="fill:none;stroke:#fff;stroke-linecap:round;stroke-linejoin:round;stroke-width:24px"/><path d="M596.44,130.93s8.88,20.52,40,13c19-4.59,43-20,73,17" transform="translate(174.56 0.07)" style="fill:none;stroke:#fff;stroke-linecap:round;stroke-linejoin:round;stroke-width:24px"/><path d="M753.55,266.76a41.33,41.33,0,0,0-17.17,21.35c-6.27,18,.28,39-8,56.12-5.49,11.41-16.59,19-27.67,25.1s-22.87,11.59-31.59,20.77c-10.58,11.14-15.37,26.41-19.84,41.11l-5.26,17.3c-1.3,4.29-2.62,8.62-4.88,12.49-4.3,7.38-11.58,12.45-18.63,17.27" transform="translate(174.56 0.07)" style="fill:none;stroke:#fff;stroke-linecap:round;stroke-linejoin:round;stroke-width:24px"/><path d="M681.72,380c-0.73,16.58,7.8,32.95,5,49.3-1.5,8.65-6.05,16.41-9.63,24.43s-6.24,17.1-3.71,25.51" transform="translate(174.56 0.07)" style="fill:none;stroke:#fff;stroke-linecap:round;stroke-linejoin:round;stroke-width:24px"/><path d="M679.79,448.23L686.1,454c4.13,3.79,8.28,17.59,12.79,20.91" transform="translate(174.56 0.07)" style="fill:none;stroke:#fff;stroke-linecap:round;stroke-linejoin:round;stroke-width:24px"/><path d="M657.54,408.38c-0.42,4.68,2.79,7.64,4.89,10.76a16.19,16.19,0,0,1,2.72,9.56" transform="translate(174.56 0.07)" style="fill:none;stroke:#fff;stroke-linecap:round;stroke-linejoin:round;stroke-width:24px"/><path d="M727,199.74c-4.58.09-8.61,3.05-11.74,6.39s-5.75,7.2-9.36,10a31.16,31.16,0,0,1-12.28,5.42c-9.1,2.11-18.56,1.8-27.86,2.59s-19,2.88-26.08,8.92c-2.52,2.14-4.64,4.7-7.18,6.81-6.65,5.53-15.55,7.48-24.14,8.49a148.3,148.3,0,0,1-36-.17" transform="translate(174.56 0.07)" style="fill:none;stroke:#fff;stroke-linecap:round;stroke-linejoin:round;stroke-width:24px"/><path d="M640.89,232.48a94.91,94.91,0,0,1-17.94,1.61,10.06,10.06,0,0,1-3.36-.42,12.17,12.17,0,0,1-3.09-1.94,44.39,44.39,0,0,0-31.35-8.6" transform="translate(174.56 0.07)" style="fill:none;stroke:#fff;stroke-linecap:round;stroke-linejoin:round;stroke-width:24px"/><path d="M598.77,223.76c-6.28-.87-11.19,6.38-17.53,6.42" transform="translate(174.56 0.07)" style="fill:none;stroke:#fff;stroke-linecap:round;stroke-linejoin:round;stroke-width:24px"/><path d="M741.73,222.57c-14.7,10.11-24.24,26.19-30.93,42.73s-11,34-17.79,50.46c-4,9.69-9.61,19.72-19.23,23.89-10.47,4.54-22.69.89-33.87,3.18-13,2.66-22.9,12.87-34.68,18.91a37.32,37.32,0,0,1-13,4.18c-12.63,1.31-27.53-5.5-36.9,3.06" transform="translate(174.56 0.07)" style="fill:none;stroke:#fff;stroke-linecap:round;stroke-linejoin:round;stroke-width:24px"/><path d="M714.26,257.38c-8.68.63-16.95,7.7-22.92,14a282.55,282.55,0,0,1-42.41,36.77c-5.55,3.92-12.75,7.76-18.78,4.61-3.69-5.73,6-11.73,5.91-18.54a10.78,10.78,0,0,0-2-5.55c-5-7.73-14-12.33-23.19-13.18s-18.4,1.73-26.57,6c-3.47,1.8-6.82,3.92-10.56,5.06a32.52,32.52,0,0,1-12.23.94c-17.93-1.5-35.39-10.71-53.1-7.55" transform="translate(174.56 0.07)" style="fill:none;stroke:#fff;stroke-linecap:round;stroke-linejoin:round;stroke-width:24px"/><path d="M610.35,275.45c-1.06-6.23-6.8-10.89-13-12.37s-12.62-.33-18.72,1.35a4.2,4.2,0,0,1-2.34.19c-2.23-.7-1.7-4-2.77-6.1s-3.54-2.66-5.75-3.11c-3.92-.79-8.1-1.57-11.84-0.16-2.53,1-4.59,2.82-6.82,4.36a30.14,30.14,0,0,1-30.83,1.62" transform="translate(174.56 0.07)" style="fill:none;stroke:#fff;stroke-linecap:round;stroke-linejoin:round;stroke-width:24px"/></g></g><path d="M754.86,260.8l-1.71.84c-0.58.28-1.38,0.62-2.29,1s-2,.78-3.16,1.17a81,81,0,0,1-8.92,2.39c-3.49.76-7.46,1.48-11.79,2.5a100.72,100.72,0,0,0-29.43,11.93,103,103,0,0,0-15.71,11.73,48.32,48.32,0,0,1-9.26,6.86c-0.47.23-.93,0.47-1.42,0.68l-0.36.16-0.26.11-0.16.06-0.66.25c-0.51.17-1.14,0.38-1.65,0.5s-1.08.25-1.63,0.34a17.18,17.18,0,0,1-6.83-.2,13,13,0,0,1-3.42-1.31,11.59,11.59,0,0,1-3-2.34l-0.33-.36c-0.25-.29-0.13-0.17-0.22-0.27l-0.11-.15c-0.16-.21-0.29-0.37-0.47-0.62a12.93,12.93,0,0,1-1-1.79,13.88,13.88,0,0,1-1.14-3.56c-0.83-4.81.18-9.25,1.09-13.35,1.84-8.25,4-16.71,6.67-25.3s5.71-17.33,9.1-26c1.66-4.35,3.29-8.7,4.51-13.14a52.09,52.09,0,0,0,2.12-13.48c0-.57,0-1.13,0-1.69l0-.79-0.07-.91a29.53,29.53,0,0,0-.5-3.23,29,29,0,0,0-2.17-6.32,23.37,23.37,0,0,0-8.5-9.9,15.52,15.52,0,0,0-12.25-1.85c-4.24,1.07-8.27,3.67-11.85,6.85a48.37,48.37,0,0,0-5,5.14,57.27,57.27,0,0,0-4.19,6,139.46,139.46,0,0,0-7.13,13.33c-4.37,9.21-8.24,18.78-12,28.4l-11.1,29c-1.87,4.83-3.78,9.64-5.84,14.42-1,2.39-2.1,4.77-3.29,7.13l-0.91,1.77a14.16,14.16,0,0,1-1.27,2.09,5.83,5.83,0,0,1-3.07,2,5.67,5.67,0,0,1-3.73-.38,6.56,6.56,0,0,1-2.59-2.11,5.53,5.53,0,0,1-.87-1.76,4.28,4.28,0,0,1,.13-2.76l1.6-3.57c1-2.28,1.94-4.58,2.88-6.92,1.89-4.66,3.72-9.33,5.54-14,3.63-9.31,7.2-18.53,10.81-27.57s7.31-17.89,11.12-26.48q2.86-6.44,5.87-12.67l0.72-1.51,0.3-.67,0.28-.7a20.36,20.36,0,0,0,.84-2.86,17.27,17.27,0,0,0,.37-2.89q0-.72,0-1.43c0-.23,0-0.47-0.06-0.7l0-.35s0-.22,0-0.08l0-.21A7.68,7.68,0,0,0,615,177a4.77,4.77,0,0,0-1.82-1.07,3.67,3.67,0,0,0-.94-0.16H612l-0.32,0a4.06,4.06,0,0,0-.48.08,18.73,18.73,0,0,0-5,2.47c-1.75,1.06-3.51,2.19-5.19,3.35a117.23,117.23,0,0,0-9.6,7.33q-2.26,1.93-4.37,3.94l-1.1,1-1.16,1c-0.77.66-1.56,1.3-2.34,1.92a71.66,71.66,0,0,1-20,11.21,41.76,41.76,0,0,1-20.7,2.18c-6.31-1.06-12.08-2.48-17.4-3.74s-10.17-2.47-14.57-3.39A89.17,89.17,0,0,0,498,201.4a31.4,31.4,0,0,0-8.73.42,15.1,15.1,0,0,0-5,2,11.71,11.71,0,0,0-1.15.82l-0.37.31h0a0,0,0,0,1,0,0l0.33-.35a11.89,11.89,0,0,1,1-1,14.87,14.87,0,0,1,5-2.65,29.4,29.4,0,0,1,9-1.28,77.19,77.19,0,0,1,12.2,1.08c4.52,0.69,9.46,1.74,14.8,2.88s11.09,2.42,17.26,3.31a38.1,38.1,0,0,0,18.84-2.45,67.57,67.57,0,0,0,18.52-11c0.73-.6,1.45-1.21,2.15-1.84l1-1,1-1q2.15-2.14,4.46-4.21a107.05,107.05,0,0,1,9.87-7.85c1.76-1.24,3.54-2.42,5.42-3.59a22.54,22.54,0,0,1,6.51-3.15,8.86,8.86,0,0,1,1.12-.19l0.49,0h0.6a6.76,6.76,0,0,1,1.15.1,6.69,6.69,0,0,1,1.12.25,9.89,9.89,0,0,1,3.83,2.15,12.85,12.85,0,0,1,4,7.14,20.68,20.68,0,0,1-.15,7.71,24.55,24.55,0,0,1-1,3.66l-0.35.89-0.39.89L619.74,195q-2.93,6.14-5.72,12.53c-3.74,8.52-7.33,17.34-10.91,26.35s-7.13,18.21-10.75,27.54c-1.81,4.66-3.64,9.36-5.54,14.07-0.94,2.35-1.94,4.73-3,7.12L582.34,286a1.42,1.42,0,0,0,.08-0.89c0-.12,0-0.1,0-0.06a0.94,0.94,0,0,0,.35.28c0.12,0,.1,0,0,0s-0.1.07,0-.09a13.37,13.37,0,0,0,.69-1.2l0.84-1.64c1.11-2.21,2.14-4.52,3.14-6.84,2-4.66,3.88-9.43,5.73-14.23l11.06-29c3.77-9.69,7.66-19.35,12.13-28.81a145,145,0,0,1,7.41-13.91,63,63,0,0,1,4.63-6.61,53.94,53.94,0,0,1,5.67-5.82c4-3.55,8.71-6.74,14.32-8.17a22,22,0,0,1,8.66-.45,21.46,21.46,0,0,1,8.1,3A29.15,29.15,0,0,1,675.85,184a33.81,33.81,0,0,1,3.2,11.62l0.07,0.91,0,1c0,0.65.06,1.31,0,2a57.82,57.82,0,0,1-2.35,15c-1.33,4.76-3,9.27-4.71,13.65-3.41,8.7-6.44,17.2-9,25.66s-4.78,16.75-6.6,24.86a55,55,0,0,0-1.1,5.83,17.55,17.55,0,0,0,0,5.25,7,7,0,0,0,5.5,6,11.65,11.65,0,0,0,4.62.14,11.39,11.39,0,0,0,1.16-.24c0.41-.09.67-0.19,1.06-0.3l0.66-.25,0.16-.06,0.06,0,0.28-.12c0.37-.15.74-0.34,1.11-0.52a43.43,43.43,0,0,0,8.21-6.07c2.65-2.34,5.44-4.64,8.21-6.66s5.57-3.88,8.35-5.55a106,106,0,0,1,31-12.38c4.51-1,8.51-1.74,11.9-2.46a76,76,0,0,0,8.37-2.19c1.11-.35,2-0.74,2.87-1s1.42-.6,2-0.86l1.71-.83A2.5,2.5,0,0,1,754.86,260.8Z" transform="translate(174.56 0.07)" style="fill:#d2fff3"/><path d="M596.48,130.91s0.41,0.36,1.08,1,1.65,1.59,2.81,2.78a28.58,28.58,0,0,0,4.52,3.91,28.94,28.94,0,0,0,6.88,3.52,34.4,34.4,0,0,0,9,1.82,44.1,44.1,0,0,0,10.4-.53c1.79-.29,3.62-0.67,5.43-1.12,0.94-.24,1.85-0.5,2.76-0.76l2.77-.85c3.72-1.17,7.54-2.44,11.47-3.47a61.25,61.25,0,0,1,12-2,42.21,42.21,0,0,1,11.93.94A43.65,43.65,0,0,1,688.12,140a57.16,57.16,0,0,1,8.41,5.36c1.22,0.94,2.35,1.89,3.42,2.79s2,1.81,2.92,2.68l2.47,2.45,2,2.16c1.22,1.29,2.08,2.4,2.71,3.11l0.95,1.11a2,2,0,0,1-3,2.59h0l-0.06-.07L707,161.1c-0.6-.69-1.42-1.77-2.58-3l-1.9-2.1-2.33-2.37c-0.84-.84-1.79-1.67-2.75-2.58s-2.06-1.78-3.2-2.67a53.46,53.46,0,0,0-7.79-5.1,40,40,0,0,0-9.62-3.66,38.73,38.73,0,0,0-11-1,57.94,57.94,0,0,0-11.41,1.79c-3.8.94-7.57,2.15-11.35,3.29a83.16,83.16,0,0,1-11.41,2.74,50.13,50.13,0,0,1-11.08.58,34.55,34.55,0,0,1-9.84-2,28.09,28.09,0,0,1-7.5-4.1,25.8,25.8,0,0,1-4.69-4.62,11.92,11.92,0,0,1-1.9-3.79,5.73,5.73,0,0,1-.26-1.51,0,0,0,0,1,.05,0h0Z" transform="translate(174.56 0.07)" style="fill:#d2fff3"/><g style="opacity:0.4"><path d="M754.31,268l-0.64.41-0.78.5-1,.7a39.07,39.07,0,0,0-6,5.35,39.94,39.94,0,0,0-7,10.44l-0.73,1.7c-0.21.57-.48,1.21-0.65,1.76l-0.6,1.94a17.38,17.38,0,0,0-.54,2c-0.3,1.32-.63,2.67-0.83,4.12s-0.42,2.91-.58,4.43c-0.64,6.07-.53,12.77-0.83,19.9a88.44,88.44,0,0,1-1,11c-0.18.93-.29,1.88-0.52,2.81l-0.68,2.82a44.12,44.12,0,0,1-2,5.54,38.14,38.14,0,0,1-6.48,10.13,56.62,56.62,0,0,1-9,8.26c-6.58,5-14,8.75-21.27,12.63s-14.46,7.94-20.48,13.3a59.39,59.39,0,0,0-13.85,19,153.65,153.65,0,0,0-7.85,20.79L645,446.49c-0.92,3-1.76,5.8-2.75,8.46a36.22,36.22,0,0,1-3.53,7.23,41.8,41.8,0,0,1-8.9,9.53c-2.82,2.27-5.17,3.87-6.75,5l-2.44,1.68a0.12,0.12,0,0,1-.14-0.21h0l2.44-1.68c1.59-1.1,3.91-2.74,6.69-5a41.45,41.45,0,0,0,8.72-9.52c2.75-4.21,4.32-9.71,6.07-15.63l5.73-19.16a154.51,154.51,0,0,1,7.69-21,70.65,70.65,0,0,1,5.9-10.29,54.28,54.28,0,0,1,8-9.16c6.1-5.54,13.37-9.73,20.6-13.69s14.55-7.79,20.93-12.7a54.82,54.82,0,0,0,8.68-8.08,36.16,36.16,0,0,0,6.08-9.7,42.09,42.09,0,0,0,1.86-5.29l0.63-2.7c0.22-.89.31-1.81,0.48-2.71a86.31,86.31,0,0,0,.9-10.74c0.23-7,0-13.79.64-20,0.15-1.56.3-3.1,0.56-4.59s0.53-3,.85-4.39a18.92,18.92,0,0,1,.54-2.05l0.58-1.95a40.32,40.32,0,0,1,1.46-3.78,42.59,42.59,0,0,1,7.33-11.21,41.8,41.8,0,0,1,6.43-5.8l1.09-.78,0.78-.51,0.63-.41a1.41,1.41,0,0,1,1.55,2.36h0Z" transform="translate(174.56 0.07)" style="fill:#d2fff3"/><g style="opacity:0.9"><path d="M682.44,380a8.29,8.29,0,0,0-.08,1.15c0,0.75-.1,1.86,0,3.23s0.17,3.06.37,5c0.13,1,.26,2,0.41,3.06l0.57,3.38c0.43,2.36.94,4.9,1.49,7.6s1.11,5.55,1.56,8.53a65.51,65.51,0,0,1,.84,9.26c0,0.79,0,1.59,0,2.39l-0.14,2.4c-0.2,1.59-.37,3.22-0.73,4.77-1.39,6.34-4.29,12.13-6.9,17.52-1.31,2.7-2.58,5.31-3.63,7.85a56.32,56.32,0,0,0-2.52,7.31,37.8,37.8,0,0,0-1.15,6.43,26.92,26.92,0,0,0,0,5,18.56,18.56,0,0,0,.26,1.85,13.72,13.72,0,0,0,.28,1.35l0.28,1.12-0.3-1.11a13.76,13.76,0,0,1-.3-1.35,18.62,18.62,0,0,1-.28-1.85,27,27,0,0,1-.08-5.05,38,38,0,0,1,1.08-6.47,56.55,56.55,0,0,1,2.45-7.37c1-2.56,2.26-5.19,3.54-7.91s2.61-5.52,3.8-8.43a52.39,52.39,0,0,0,2.86-9c0.34-1.57.48-3.14,0.66-4.71l0.11-2.37c0-.79,0-1.57,0-2.36a64.77,64.77,0,0,0-.94-9.15c-0.48-3-1.08-5.79-1.65-8.48s-1.12-5.24-1.58-7.6l-0.62-3.4-0.46-3.09c-0.22-2-.4-3.66-0.45-5.09s-0.05-2.52-.06-3.27V380a0.65,0.65,0,0,1,1.3,0h0Z" transform="translate(174.56 0.07)" style="fill:#d2fff3"/><g style="opacity:0.9"><path d="M679.9,448.1l3.81,3.53,1.84,1.71a13.48,13.48,0,0,1,1,1,8.74,8.74,0,0,1,.92,1.11,24.55,24.55,0,0,1,1.61,2.55c0.5,0.89,1,1.82,1.44,2.75,0.93,1.86,1.81,3.74,2.67,5.49,0.43,0.87.85,1.71,1.27,2.5s0.83,1.52,1.22,2.2,0.78,1.27,1.16,1.78a12.46,12.46,0,0,0,1,1.28,6.63,6.63,0,0,0,.76.73l0.28,0.25-0.28-.24a6.65,6.65,0,0,1-.77-0.72,12.48,12.48,0,0,1-1-1.27c-0.39-.5-0.76-1.11-1.18-1.77s-0.83-1.4-1.25-2.19-0.85-1.62-1.3-2.49c-0.87-1.74-1.78-3.61-2.72-5.46-0.47-.92-1-1.84-1.47-2.72a24.39,24.39,0,0,0-1.62-2.51,8.45,8.45,0,0,0-.91-1.09,13.16,13.16,0,0,0-1-.94l-1.86-1.69-3.84-3.49a0.17,0.17,0,0,1,.23-0.25h0Z" transform="translate(174.56 0.07)" style="fill:#d2fff3"/></g><g style="opacity:0.9"><path d="M672.82,467.66l6.95,3.84-7.06-3.62a0.13,0.13,0,0,1,.11-0.22h0Z" transform="translate(174.56 0.07)" style="fill:#d2fff3"/></g></g><path d="M658.06,408.41s0,0.35-.05.95a8.59,8.59,0,0,0,.06,1,7.87,7.87,0,0,0,.26,1.32,12.36,12.36,0,0,0,1.44,3.12c0.68,1.09,1.51,2.19,2.32,3.34a20,20,0,0,1,1.13,1.77,16.33,16.33,0,0,1,1.85,5.31,16,16,0,0,1,.22,2.53c0,0.61,0,1,0,1a0.12,0.12,0,0,1-.13.12,0.13,0.13,0,0,1-.12-0.13s0-.35,0-0.95a15.67,15.67,0,0,0-.29-2.47,16.08,16.08,0,0,0-1.05-3.35,15.87,15.87,0,0,0-.91-1.75,17.05,17.05,0,0,0-1.16-1.69c-0.83-1.1-1.72-2.18-2.47-3.27a13.2,13.2,0,0,1-1.66-3.27,8.8,8.8,0,0,1-.35-1.45,9.38,9.38,0,0,1-.11-1.17c0-.62,0-1,0-1v0a0.52,0.52,0,0,1,1,.05v0Z" transform="translate(174.56 0.07)" style="fill:#d2fff3"/></g><g style="opacity:0.6"><path d="M727.06,200.93a0.75,0.75,0,0,0-.48-0.11,7.77,7.77,0,0,0-1.28.09,13.09,13.09,0,0,0-4.63,1.85,27,27,0,0,0-6,5.34c-2.12,2.36-4.3,5.32-7.4,8a29.29,29.29,0,0,1-11.67,5.76,73.71,73.71,0,0,1-14.23,2.09c-5,.33-10.08.4-15.24,0.8a63.6,63.6,0,0,0-15.32,2.84,32.46,32.46,0,0,0-13.14,8,58.14,58.14,0,0,1-5.7,5.27,30.38,30.38,0,0,1-6.6,3.81,54.44,54.44,0,0,1-13.86,3.62c-4.51.62-8.79,1-12.76,1.16a147.77,147.77,0,0,1-19.15-.33c-2.3-.19-4.11-0.39-5.34-0.54l-1.88-.23a0.13,0.13,0,0,1-.11-0.14,0.13,0.13,0,0,1,.14-0.11l1.88,0.22c1.23,0.13,3,.32,5.34.48a147.37,147.37,0,0,0,19.1.15c3.94-.22,8.22-0.62,12.69-1.28A53.78,53.78,0,0,0,625,244a29.6,29.6,0,0,0,6.39-3.77A57.43,57.43,0,0,0,637,235a32.49,32.49,0,0,1,6.18-5,36,36,0,0,1,7.25-3.39,64.68,64.68,0,0,1,15.56-3c5.2-.45,10.32-0.57,15.24-0.94a72.29,72.29,0,0,0,13.94-2.18,27.78,27.78,0,0,0,11-5.55c2.89-2.54,5-5.48,7.17-7.92a28.82,28.82,0,0,1,6.34-5.74,15.09,15.09,0,0,1,5.23-2.17,11.56,11.56,0,0,1,1.52-.2l0.48,0a1.06,1.06,0,0,1,.12,2.1h0Z" transform="translate(174.56 0.07)" style="fill:#d2fff3"/><path d="M640.91,232.6a0.76,0.76,0,0,1-.12.28,1.07,1.07,0,0,1-.47.13l-1.84.31c-1.59.25-3.86,0.56-6.6,0.78s-5.94.39-9.38,0.34a10.24,10.24,0,0,1-2.67-.33,8,8,0,0,1-2.46-1.3c-1.44-1.11-2.9-2.15-4.43-3.12a45.13,45.13,0,0,0-9.64-4.45,47.54,47.54,0,0,0-4.74-1.25c-0.76-.17-1.51-0.3-2.23-0.41s-1.43-.21-2.1-0.28-1.33-.13-1.95-0.17-1.21-.08-1.76-0.08c-1.11,0-2.07,0-2.87,0s-1.42-.07-1.84,0a1.11,1.11,0,0,1-.65-0.11h0c-0.07,0-.13.12-0.13,0.05s0,0,.11-0.05a4,4,0,0,0,.65,0c0.43,0,1.05-.1,1.85-0.14s1.77-.09,2.89-0.07c0.56,0,1.15,0,1.78,0s1.28,0.06,2,.13,1.4,0.13,2.13.24,1.49,0.21,2.27.37a42.31,42.31,0,0,1,4.81,1.21,45.75,45.75,0,0,1,9.81,4.44c1.57,1,3.08,2,4.49,3.12a7.27,7.27,0,0,0,2.25,1.17,9.56,9.56,0,0,0,2.49.29c3.4,0,6.59-.15,9.3-0.4s5-.56,6.53-0.82l1.81-.32a1.07,1.07,0,0,1,.49-0.05,0.76,0.76,0,0,1,.21.22A0.12,0.12,0,0,0,640.91,232.6Z" transform="translate(174.56 0.07)" style="fill:#d2fff3"/><path d="M598.75,223.93a7.7,7.7,0,0,1-.81,0,4.28,4.28,0,0,0-.91,0l-0.55.05-0.61.13a9.79,9.79,0,0,0-1.36.38c-0.47.17-1,.38-1.46,0.62-1,.47-2,1.08-3,1.68s-2,1.22-3,1.74c-0.5.25-1,.5-1.45,0.69a11.49,11.49,0,0,1-1.35.5l-0.61.19L583,230a5,5,0,0,1-.93.14c-0.26,0-.47,0-0.6.05a0.71,0.71,0,0,0-.21.09,0.15,0.15,0,1,1,0-.26h0a0.6,0.6,0,0,0,.21.05c0.14,0,.34,0,0.6,0a4.89,4.89,0,0,0,.92-0.15l0.56-.12,0.6-.2a27.67,27.67,0,0,0,5.74-3c1-.62,2-1.25,3-1.75,0.5-.25,1-0.47,1.48-0.66a10.13,10.13,0,0,1,1.39-.43l0.64-.15,0.59-.06a4.64,4.64,0,0,1,1,0l0.82,0a0.21,0.21,0,0,1,.23.21,0.22,0.22,0,0,1-.25.19h0Z" transform="translate(174.56 0.07)" style="fill:#d2fff3"/></g><path d="M742,223l-2.4,1.74c-0.77.58-1.67,1.34-2.75,2.2l-1.67,1.49c-0.6.52-1.22,1.11-1.85,1.75a76.61,76.61,0,0,0-8.42,9.82,104.36,104.36,0,0,0-8.71,14.38,164.68,164.68,0,0,0-7.82,18.33c-2.44,6.65-4.72,13.78-7.14,21.13s-5,14.94-8.14,22.46a74.12,74.12,0,0,1-5.58,11,40.7,40.7,0,0,1-3.68,5,29.94,29.94,0,0,1-4.49,4.32,25.84,25.84,0,0,1-5.34,3.22,28.53,28.53,0,0,1-6,1.8,61.81,61.81,0,0,1-12.27.68,106.06,106.06,0,0,0-12,.18,36,36,0,0,0-11.3,3c-7.08,3.12-13.08,7.7-19,11.56a87.68,87.68,0,0,1-8.93,5.22,40,40,0,0,1-9.09,3.26,26.19,26.19,0,0,1-4.51.6l-1.1.07h-1.09c-0.73,0-1.44,0-2.15,0-2.82-.11-5.48-0.44-8-0.72a64.18,64.18,0,0,0-13-.63,17.68,17.68,0,0,0-7.92,2.48l-0.59.34-0.47.37-0.73.57-0.6.47,0.59-.47,0.73-.58,0.47-.37,0.59-.34a17.71,17.71,0,0,1,7.93-2.51,64.24,64.24,0,0,1,13,.58c2.5,0.27,5.16.58,8,.69a34.56,34.56,0,0,0,8.82-.65,39.86,39.86,0,0,0,9-3.28,87.47,87.47,0,0,0,8.89-5.24c5.92-3.88,11.91-8.48,19-11.65a36.4,36.4,0,0,1,11.39-3,106.36,106.36,0,0,1,12.09-.23,61.42,61.42,0,0,0,12.18-.72,28,28,0,0,0,5.84-1.79,25.35,25.35,0,0,0,5.22-3.18,29.43,29.43,0,0,0,4.4-4.27,40.16,40.16,0,0,0,3.61-5,73.55,73.55,0,0,0,5.5-10.9c3.1-7.5,5.64-15.08,8-22.44s4.64-14.5,7.07-21.18A165.48,165.48,0,0,1,715.46,254a105.24,105.24,0,0,1,8.73-14.53,77.55,77.55,0,0,1,8.49-10c0.64-.65,1.26-1.25,1.87-1.78l1.69-1.52c1.1-.89,2-1.68,2.8-2.26l2.39-1.75a0.5,0.5,0,1,1,.59.81h0Z" transform="translate(174.56 0.07)" style="fill:#d2fff3"/><path d="M714.31,257.88a25.3,25.3,0,0,0-11.81,4.48,60.27,60.27,0,0,0-9.83,8.32c-1.51,1.55-3,3.13-4.52,4.67s-3.06,3.08-4.62,4.59q-4.67,4.54-9.54,8.86-9.75,8.63-20.26,16.34c-1.75,1.29-3.51,2.55-5.29,3.79a42,42,0,0,1-5.65,3.31,20.17,20.17,0,0,1-6.29,1.93,11.08,11.08,0,0,1-6.49-1.12,0.31,0.31,0,0,1-.11-0.1,5.33,5.33,0,0,1-.85-2.47,6.59,6.59,0,0,1,.34-2.57,20.26,20.26,0,0,1,2.35-4.47c0.9-1.4,1.84-2.77,2.61-4.22a10.94,10.94,0,0,0,1.45-4.6,8.83,8.83,0,0,0-1.25-4.62,25.66,25.66,0,0,0-2.84-4,29.75,29.75,0,0,0-3.55-3.42,32.87,32.87,0,0,0-4.1-2.76,33.43,33.43,0,0,0-9.24-3.47,32.88,32.88,0,0,0-4.9-.69,36.33,36.33,0,0,0-5,0,45.41,45.41,0,0,0-9.77,1.68,57.64,57.64,0,0,0-9.28,3.55c-3,1.43-5.82,3.2-8.86,4.57a25.49,25.49,0,0,1-4.73,1.64,28,28,0,0,1-5,.67,52.19,52.19,0,0,1-10-.62c-3.29-.47-6.55-1.16-9.79-1.92-6.47-1.52-12.86-3.38-19.4-4.61a72.08,72.08,0,0,0-9.88-1.22,46,46,0,0,0-9.93.59,46,46,0,0,1,9.93-.62,72.13,72.13,0,0,1,9.9,1.19c6.54,1.21,12.94,3,19.42,4.54,3.24,0.75,6.49,1.42,9.78,1.88a52,52,0,0,0,9.92.58,25.06,25.06,0,0,0,9.58-2.32c3-1.37,5.84-3.16,8.84-4.6a58,58,0,0,1,9.32-3.6,45.77,45.77,0,0,1,9.84-1.73,36.75,36.75,0,0,1,5,0,33.28,33.28,0,0,1,5,.68,33.87,33.87,0,0,1,9.38,3.48,33.34,33.34,0,0,1,4.18,2.78,30.24,30.24,0,0,1,3.63,3.47,26.11,26.11,0,0,1,2.91,4.1,9.35,9.35,0,0,1,1.34,4.88,11.46,11.46,0,0,1-1.49,4.84c-0.79,1.49-1.73,2.87-2.62,4.27a19.75,19.75,0,0,0-2.27,4.34,5.08,5.08,0,0,0,.46,4.53l-0.11-.1a10.45,10.45,0,0,0,6.13,1,19.54,19.54,0,0,0,6.08-1.89,41.36,41.36,0,0,0,5.54-3.28c1.77-1.24,3.53-2.51,5.26-3.8q10.44-7.72,20.14-16.38,4.84-4.32,9.48-8.87c1.55-1.51,3.08-3,4.58-4.59s3-3.13,4.5-4.69a61.18,61.18,0,0,1,10-8.48,33.31,33.31,0,0,1,5.81-3.11,21.47,21.47,0,0,1,6.43-1.57h0a0.5,0.5,0,1,1,.07,1h0Z" transform="translate(174.56 0.07)" style="fill:#d2fff3"/><path d="M610.44,275.53a3.14,3.14,0,0,1-.48-1.17,15.28,15.28,0,0,0-4.7-6.93,19,19,0,0,0-5.76-3.39,23.68,23.68,0,0,0-7.82-1.35,40.61,40.61,0,0,0-8.88,1c-1.53.32-3,.72-4.62,1.13a4.57,4.57,0,0,1-1.26.15,2.41,2.41,0,0,1-.68-0.13,2.62,2.62,0,0,1-.57-0.29,3.52,3.52,0,0,1-1.3-2.2c-0.41-1.6-.44-3.34-1.54-4.53a8.19,8.19,0,0,0-4.32-2.06c-3.24-.68-6.54-1.4-9.78-1a11.78,11.78,0,0,0-4.53,1.52,43.35,43.35,0,0,0-3.9,2.69,29.67,29.67,0,0,1-8,4.18,30.25,30.25,0,0,1-7.91,1.56,32,32,0,0,1-6.8-.32,29.8,29.8,0,0,1-5.09-1.29,25.58,25.58,0,0,1-3.12-1.31l-1.07-.54,1.07,0.53a25.56,25.56,0,0,0,3.12,1.29,29.75,29.75,0,0,0,5.09,1.25,31.86,31.86,0,0,0,6.79.27,30.1,30.1,0,0,0,7.86-1.61,29.47,29.47,0,0,0,7.88-4.21A43.53,43.53,0,0,1,554,256a12.07,12.07,0,0,1,4.63-1.59c3.31-.43,6.65.28,9.9,0.94a8.54,8.54,0,0,1,4.55,2.15,5,5,0,0,1,1.13,2.29c0.21,0.81.32,1.63,0.53,2.41a3.12,3.12,0,0,0,1.11,1.92,2.16,2.16,0,0,0,.51.25,2.09,2.09,0,0,0,.52.09,4.1,4.1,0,0,0,1.13-.14c1.54-.42,3.09-0.83,4.62-1.17a41.09,41.09,0,0,1,9-1.06,24.2,24.2,0,0,1,8,1.33,19.48,19.48,0,0,1,6,3.47A15.72,15.72,0,0,1,609.1,271a14.31,14.31,0,0,1,1.36,3.21l0.26,1.17c0,0.2.14,0.4-.06,0.45s-0.22-.08-0.22-0.28h0Z" transform="translate(174.56 0.07)" style="fill:#d2fff3"/><g style="opacity:0.7000000000000001"><path d="M465.72,176a35.71,35.71,0,0,0,8.3,5.44,55.34,55.34,0,0,0,9.32,3.45,78,78,0,0,0,9.74,2,76.13,76.13,0,0,0,9.91.81h0a48.55,48.55,0,0,1,8.3,2.79,20.69,20.69,0,0,1,3.83,2.19,12.62,12.62,0,0,1,1.64,1.5c0.51,0.53,1,1.07,1.48,1.62a68.39,68.39,0,0,0,5.85,6.4,13.16,13.16,0,0,0,3.57,2.24,13,13,0,0,0,4.09.92,0.5,0.5,0,0,1-.06,1h0a13.35,13.35,0,0,1-8.11-3.56,68.59,68.59,0,0,1-5.78-6.61c-0.47-.55-0.94-1.1-1.43-1.63a11.91,11.91,0,0,0-1.55-1.48,20.25,20.25,0,0,0-3.7-2.22A48.25,48.25,0,0,0,503,188h0a76.31,76.31,0,0,1-9.93-.87,78.16,78.16,0,0,1-9.74-2.07,55.42,55.42,0,0,1-9.31-3.51A35.74,35.74,0,0,1,465.72,176Z" transform="translate(174.56 0.07)" style="fill:#d2fff3"/></g><path d="M672.15,109.71s77.37,45.54,104.6,128.69S781.66,386.24,779,405s-7.91,215.52-182.45,51.53c-81.18-76.27-107.74-297-66.11-329.64S493.22-35.75,672.15,109.71Z" transform="translate(174.56 0.07)" style="mix-blend-mode:multiply;fill:url(#linear-gradient)"/><path d="M753.76,258.56c-10.32,5.37-19.94,5.38-32.95,9.09a102.73,102.73,0,0,0-38.42,20.65c-4,3.44-7.89,7.27-12.78,9.29s-11.23,1.72-14.67-2.31-2.71-10.42-1.54-15.78a336.36,336.36,0,0,1,14.12-47.43c4.34-11.42,9.38-23.09,8.7-35.28s-9.35-25-21.55-25.49c-8.68-.35-16.4,5.42-22.37,11.73-16.91,17.9-35.59,83.2-46.85,103.37-2.24,4-6.61.34-5.72-1.51,8.16-16.81,23.53-60.33,38.07-92.05A21.24,21.24,0,0,0,619.87,181c-0.6-4-3.84-7.92-7.88-7.81a12,12,0,0,0-5.63,2.1,111.64,111.64,0,0,0-21.77,16.84S564.21,212,542.25,208.66s-49.14-14.15-59.56-3.72" transform="translate(174.56 0.07)" style="fill:none;stroke:#000;stroke-linecap:round;stroke-linejoin:round;stroke-dasharray:20,670"/><path d="M596.44,130.93s8.88,20.52,40,13c19-4.59,43-20,73,17" transform="translate(174.56 0.07)" style="fill:none;stroke:#000;stroke-linecap:round;stroke-linejoin:round;stroke-width:0.5px"/></g></g></svg>